<?xml version="1.0" encoding="UTF-8" standalone="no"?>
<!DOCTYPE svg PUBLIC "-//W3C//DTD SVG 1.1//EN"
 "http://www.w3.org/Graphics/SVG/1.1/DTD/svg11.dtd">
<!-- Generated by graphviz version 2.43.0 (0)
 -->
<!-- Title: backend_task.cpp Pages: 1 -->
<svg width="773pt" height="148pt"
 viewBox="0.00 0.00 773.00 148.00" xmlns="http://www.w3.org/2000/svg" xmlns:xlink="http://www.w3.org/1999/xlink">
<g id="graph0" class="graph" transform="scale(1 1) rotate(0) translate(4 144)">
<title>backend_task.cpp</title>
<!-- Node1 -->
<g id="Node000001" class="node">
<title>Node1</title>
<g id="a_Node000001"><a xlink:title="Backend processing task for sensor data.">
<polygon fill="#999999" stroke="#666666" points="424,-140 320,-140 320,-121 424,-121 424,-140"/>
<text text-anchor="middle" x="372" y="-128" font-family="Helvetica,sans-Serif" font-size="10.00">backend_task.cpp</text>
</a>
</g>
</g>
<!-- Node2 -->
<g id="Node000002" class="node">
<title>Node2</title>
<g id="a_Node000002"><a xlink:href="backend__task_8h.html" target="_top" xlink:title="Header for the backend FreeRTOS task processing sensor data.">
<polygon fill="white" stroke="#666666" points="122,-79.5 0,-79.5 0,-60.5 122,-60.5 122,-79.5"/>
<text text-anchor="middle" x="61" y="-67.5" font-family="Helvetica,sans-Serif" font-size="10.00">tasks/backend_task.h</text>
</a>
</g>
</g>
<!-- Node1&#45;&gt;Node2 -->
<g id="edge1_Node000001_Node000002" class="edge">
<title>Node1&#45;&gt;Node2</title>
<g id="a_edge1_Node000001_Node000002"><a xlink:title=" ">
<path fill="none" stroke="#63b8ff" d="M324.4,-120.93C275.76,-112.11 198.06,-97.9 131,-85 125.23,-83.89 119.2,-82.71 113.2,-81.53"/>
<polygon fill="#63b8ff" stroke="#63b8ff" points="113.67,-78.05 103.18,-79.54 112.31,-84.92 113.67,-78.05"/>
</a>
</g>
</g>
<!-- Node4 -->
<g id="Node000004" class="node">
<title>Node4</title>
<g id="a_Node000004"><a xlink:href="sensor__data_8h.html" target="_top" xlink:title="Header for parsing, validating, and logging sensor data from BLE devices.">
<polygon fill="white" stroke="#666666" points="225.5,-79.5 140.5,-79.5 140.5,-60.5 225.5,-60.5 225.5,-79.5"/>
<text text-anchor="middle" x="183" y="-67.5" font-family="Helvetica,sans-Serif" font-size="10.00">sensor_data.h</text>
</a>
</g>
</g>
<!-- Node1&#45;&gt;Node4 -->
<g id="edge3_Node000001_Node000004" class="edge">
<title>Node1&#45;&gt;Node4</title>
<g id="a_edge3_Node000001_Node000004"><a xlink:title=" ">
<path fill="none" stroke="#63b8ff" d="M344.52,-120.99C311.76,-110.86 256.88,-93.87 220.31,-82.55"/>
<polygon fill="#63b8ff" stroke="#63b8ff" points="221.1,-79.13 210.52,-79.52 219.03,-85.82 221.1,-79.13"/>
</a>
</g>
</g>
<!-- Node5 -->
<g id="Node000005" class="node">
<title>Node5</title>
<g id="a_Node000005"><a xlink:href="sensor__packet__from__sensor_8h.html" target="_top" xlink:title="Defines the data structure for sensor packets received from Arduino sensors.">
<polygon fill="white" stroke="#666666" points="358.5,-85 243.5,-85 243.5,-55 358.5,-55 358.5,-85"/>
<text text-anchor="start" x="251.5" y="-73" font-family="Helvetica,sans-Serif" font-size="10.00">sensor_packet_from</text>
<text text-anchor="middle" x="301" y="-62" font-family="Helvetica,sans-Serif" font-size="10.00">_sensor.h</text>
</a>
</g>
</g>
<!-- Node1&#45;&gt;Node5 -->
<g id="edge5_Node000001_Node000005" class="edge">
<title>Node1&#45;&gt;Node5</title>
<g id="a_edge5_Node000001_Node000005"><a xlink:title=" ">
<path fill="none" stroke="#63b8ff" d="M361.52,-120.87C352.25,-113.22 338.33,-101.76 326.18,-91.75"/>
<polygon fill="#63b8ff" stroke="#63b8ff" points="328.07,-88.77 318.13,-85.11 323.62,-94.17 328.07,-88.77"/>
</a>
</g>
</g>
<!-- Node6 -->
<g id="Node000006" class="node">
<title>Node6</title>
<g id="a_Node000006"><a xlink:href="threadsafe__serial_8h.html" target="_top" xlink:title="Thread&#45;safe Serial printing utilities for Arduino with FreeRTOS.">
<polygon fill="white" stroke="#666666" points="511,-79.5 377,-79.5 377,-60.5 511,-60.5 511,-79.5"/>
<text text-anchor="middle" x="444" y="-67.5" font-family="Helvetica,sans-Serif" font-size="10.00">utils/threadsafe_serial.h</text>
</a>
</g>
</g>
<!-- Node1&#45;&gt;Node6 -->
<g id="edge7_Node000001_Node000006" class="edge">
<title>Node1&#45;&gt;Node6</title>
<g id="a_edge7_Node000001_Node000006"><a xlink:title=" ">
<path fill="none" stroke="#63b8ff" d="M382.62,-120.87C393.9,-111.71 411.92,-97.06 425.53,-86.01"/>
<polygon fill="#63b8ff" stroke="#63b8ff" points="427.78,-88.69 433.33,-79.67 423.36,-83.26 427.78,-88.69"/>
</a>
</g>
</g>
<!-- Node9 -->
<g id="Node000009" class="node">
<title>Node9</title>
<g id="a_Node000009"><a xlink:title=" ">
<polygon fill="#e0e0e0" stroke="#999999" points="612.5,-79.5 529.5,-79.5 529.5,-60.5 612.5,-60.5 612.5,-79.5"/>
<text text-anchor="middle" x="571" y="-67.5" font-family="Helvetica,sans-Serif" font-size="10.00">ArduinoJson.h</text>
</a>
</g>
</g>
<!-- Node1&#45;&gt;Node9 -->
<g id="edge11_Node000001_Node000009" class="edge">
<title>Node1&#45;&gt;Node9</title>
<g id="a_edge11_Node000001_Node000009"><a xlink:title=" ">
<path fill="none" stroke="#63b8ff" d="M400.94,-120.99C435.57,-110.81 493.7,-93.72 532.21,-82.4"/>
<polygon fill="#63b8ff" stroke="#63b8ff" points="533.42,-85.7 542.03,-79.52 531.45,-78.98 533.42,-85.7"/>
</a>
</g>
</g>
<!-- Node10 -->
<g id="Node000010" class="node">
<title>Node10</title>
<g id="a_Node000010"><a xlink:href="backend__server__secrets__example_8h.html" target="_top" xlink:title="Example backend server configuration and API key placeholders.">
<polygon fill="white" stroke="#666666" points="765,-85 631,-85 631,-55 765,-55 765,-85"/>
<text text-anchor="start" x="639" y="-73" font-family="Helvetica,sans-Serif" font-size="10.00">backend_server_secrets</text>
<text text-anchor="middle" x="698" y="-62" font-family="Helvetica,sans-Serif" font-size="10.00">_example.h</text>
</a>
</g>
</g>
<!-- Node1&#45;&gt;Node10 -->
<g id="edge12_Node000001_Node000010" class="edge">
<title>Node1&#45;&gt;Node10</title>
<g id="a_edge12_Node000001_Node000010"><a xlink:title=" ">
<path fill="none" stroke="#63b8ff" d="M420.41,-120.97C468.62,-112.46 545.02,-98.91 620.68,-85.23"/>
<polygon fill="#63b8ff" stroke="#63b8ff" points="621.65,-88.61 630.87,-83.39 620.4,-81.73 621.65,-88.61"/>
</a>
</g>
</g>
<!-- Node3 -->
<g id="Node000003" class="node">
<title>Node3</title>
<g id="a_Node000003"><a xlink:title=" ">
<polygon fill="#e0e0e0" stroke="#999999" points="280.5,-19 217.5,-19 217.5,0 280.5,0 280.5,-19"/>
<text text-anchor="middle" x="249" y="-7" font-family="Helvetica,sans-Serif" font-size="10.00">Arduino.h</text>
</a>
</g>
</g>
<!-- Node2&#45;&gt;Node3 -->
<g id="edge2_Node000002_Node000003" class="edge">
<title>Node2&#45;&gt;Node3</title>
<g id="a_edge2_Node000002_Node000003"><a xlink:title=" ">
<path fill="none" stroke="#63b8ff" d="M88.34,-60.49C120.92,-50.36 175.51,-33.37 211.89,-22.05"/>
<polygon fill="#63b8ff" stroke="#63b8ff" points="213.12,-25.33 221.63,-19.02 211.04,-18.65 213.12,-25.33"/>
</a>
</g>
</g>
<!-- Node4&#45;&gt;Node3 -->
<g id="edge4_Node000004_Node000003" class="edge">
<title>Node4&#45;&gt;Node3</title>
<g id="a_edge4_Node000004_Node000003"><a xlink:title=" ">
<path fill="none" stroke="#63b8ff" d="M192.74,-60.37C202.97,-51.3 219.29,-36.84 231.72,-25.82"/>
<polygon fill="#63b8ff" stroke="#63b8ff" points="234.06,-28.42 239.22,-19.17 229.42,-23.18 234.06,-28.42"/>
</a>
</g>
</g>
<!-- Node5&#45;&gt;Node3 -->
<g id="edge6_Node000005_Node000003" class="edge">
<title>Node5&#45;&gt;Node3</title>
<g id="a_edge6_Node000005_Node000003"><a xlink:title=" ">
<path fill="none" stroke="#63b8ff" d="M288.41,-54.84C280.94,-46.43 271.44,-35.74 263.63,-26.96"/>
<polygon fill="#63b8ff" stroke="#63b8ff" points="266.05,-24.41 256.79,-19.27 260.82,-29.07 266.05,-24.41"/>
</a>
</g>
</g>
<!-- Node6&#45;&gt;Node3 -->
<g id="edge8_Node000006_Node000003" class="edge">
<title>Node6&#45;&gt;Node3</title>
<g id="a_edge8_Node000006_Node000003"><a xlink:title=" ">
<path fill="none" stroke="#63b8ff" d="M415.65,-60.49C381.71,-50.31 324.74,-33.22 287.01,-21.9"/>
<polygon fill="#63b8ff" stroke="#63b8ff" points="287.97,-18.54 277.39,-19.02 285.96,-25.24 287.97,-18.54"/>
</a>
</g>
</g>
<!-- Node7 -->
<g id="Node000007" class="node">
<title>Node7</title>
<g id="a_Node000007"><a xlink:title=" ">
<polygon fill="#e0e0e0" stroke="#999999" points="425.5,-19 312.5,-19 312.5,0 425.5,0 425.5,-19"/>
<text text-anchor="middle" x="369" y="-7" font-family="Helvetica,sans-Serif" font-size="10.00">freertos/FreeRTOS.h</text>
</a>
</g>
</g>
<!-- Node6&#45;&gt;Node7 -->
<g id="edge9_Node000006_Node000007" class="edge">
<title>Node6&#45;&gt;Node7</title>
<g id="a_edge9_Node000006_Node000007"><a xlink:title=" ">
<path fill="none" stroke="#63b8ff" d="M432.93,-60.37C421.19,-51.21 402.41,-36.56 388.24,-25.51"/>
<polygon fill="#63b8ff" stroke="#63b8ff" points="390.15,-22.56 380.11,-19.17 385.84,-28.08 390.15,-22.56"/>
</a>
</g>
</g>
<!-- Node8 -->
<g id="Node000008" class="node">
<title>Node8</title>
<g id="a_Node000008"><a xlink:title=" ">
<polygon fill="#e0e0e0" stroke="#999999" points="546.5,-19 443.5,-19 443.5,0 546.5,0 546.5,-19"/>
<text text-anchor="middle" x="495" y="-7" font-family="Helvetica,sans-Serif" font-size="10.00">freertos/semphr.h</text>
</a>
</g>
</g>
<!-- Node6&#45;&gt;Node8 -->
<g id="edge10_Node000006_Node000008" class="edge">
<title>Node6&#45;&gt;Node8</title>
<g id="a_edge10_Node000006_Node000008"><a xlink:title=" ">
<path fill="none" stroke="#63b8ff" d="M451.53,-60.37C459.21,-51.55 471.32,-37.66 480.81,-26.77"/>
<polygon fill="#63b8ff" stroke="#63b8ff" points="483.51,-29.01 487.44,-19.17 478.23,-24.41 483.51,-29.01"/>
</a>
</g>
</g>
</g>
</svg>
