<?xml version="1.0" encoding="UTF-8" standalone="no"?>
<!DOCTYPE svg PUBLIC "-//W3C//DTD SVG 1.1//EN"
 "http://www.w3.org/Graphics/SVG/1.1/DTD/svg11.dtd">
<!-- Generated by graphviz version 2.43.0 (0)
 -->
<!-- Title: backend_server_secrets_example.h Pages: 1 -->
<svg width="276pt" height="93pt"
 viewBox="0.00 0.00 276.00 93.00" xmlns="http://www.w3.org/2000/svg" xmlns:xlink="http://www.w3.org/1999/xlink">
<g id="graph0" class="graph" transform="scale(1 1) rotate(0) translate(4 89)">
<title>backend_server_secrets_example.h</title>
<!-- Node1 -->
<g id="Node000001" class="node">
<title>Node1</title>
<g id="a_Node000001"><a xlink:title="Example backend server configuration and API key placeholders.">
<polygon fill="#999999" stroke="#666666" points="190,-85 56,-85 56,-55 190,-55 190,-85"/>
<text text-anchor="start" x="64" y="-73" font-family="Helvetica,sans-Serif" font-size="10.00">backend_server_secrets</text>
<text text-anchor="middle" x="123" y="-62" font-family="Helvetica,sans-Serif" font-size="10.00">_example.h</text>
</a>
</g>
</g>
<!-- Node2 -->
<g id="Node000002" class="node">
<title>Node2</title>
<g id="a_Node000002"><a xlink:href="backend__task_8cpp.html" target="_top" xlink:title="Backend processing task for sensor data.">
<polygon fill="white" stroke="#666666" points="104,-19 0,-19 0,0 104,0 104,-19"/>
<text text-anchor="middle" x="52" y="-7" font-family="Helvetica,sans-Serif" font-size="10.00">backend_task.cpp</text>
</a>
</g>
</g>
<!-- Node1&#45;&gt;Node2 -->
<g id="edge1_Node000001_Node000002" class="edge">
<title>Node1&#45;&gt;Node2</title>
<g id="a_edge1_Node000001_Node000002"><a xlink:title=" ">
<path fill="none" stroke="#63b8ff" d="M97.81,-48.24C85.73,-38.29 71.91,-26.91 62.64,-19.27"/>
<polygon fill="#63b8ff" stroke="#63b8ff" points="95.87,-51.18 105.81,-54.84 100.32,-45.78 95.87,-51.18"/>
</a>
</g>
</g>
<!-- Node3 -->
<g id="Node000003" class="node">
<title>Node3</title>
<g id="a_Node000003"><a xlink:href="httptransmission__task_8cpp.html" target="_top" xlink:title="FreeRTOS task for transmitting aggregated sensor data to a backend server via HTTP/HTTPS.">
<polygon fill="white" stroke="#666666" points="268,-19 122,-19 122,0 268,0 268,-19"/>
<text text-anchor="middle" x="195" y="-7" font-family="Helvetica,sans-Serif" font-size="10.00">httptransmission_task.cpp</text>
</a>
</g>
</g>
<!-- Node1&#45;&gt;Node3 -->
<g id="edge2_Node000001_Node000003" class="edge">
<title>Node1&#45;&gt;Node3</title>
<g id="a_edge2_Node000001_Node000003"><a xlink:title=" ">
<path fill="none" stroke="#63b8ff" d="M148.19,-48.53C160.52,-38.51 174.72,-26.98 184.21,-19.27"/>
<polygon fill="#63b8ff" stroke="#63b8ff" points="145.98,-45.82 140.43,-54.84 150.4,-51.25 145.98,-45.82"/>
</a>
</g>
</g>
</g>
</svg>
