<?xml version="1.0" encoding="UTF-8" standalone="no"?>
<!DOCTYPE svg PUBLIC "-//W3C//DTD SVG 1.1//EN"
 "http://www.w3.org/Graphics/SVG/1.1/DTD/svg11.dtd">
<!-- Generated by graphviz version 2.43.0 (0)
 -->
<!-- Title: isCentralConnected Pages: 1 -->
<svg width="375pt" height="101pt"
 viewBox="0.00 0.00 375.00 101.00" xmlns="http://www.w3.org/2000/svg" xmlns:xlink="http://www.w3.org/1999/xlink">
<g id="graph0" class="graph" transform="scale(1 1) rotate(0) translate(4 97)">
<title>isCentralConnected</title>
<!-- Node1 -->
<g id="Node000001" class="node">
<title>Node1</title>
<g id="a_Node000001"><a xlink:title="Check if a BLE central device is currently connected.">
<polygon fill="#999999" stroke="#666666" points="367,-56 255,-56 255,-37 367,-37 367,-56"/>
<text text-anchor="middle" x="311" y="-44" font-family="Helvetica,sans-Serif" font-size="10.00">isCentralConnected</text>
</a>
</g>
</g>
<!-- Node2 -->
<g id="Node000002" class="node">
<title>Node2</title>
<g id="a_Node000002"><a xlink:href="sensor__state__manager_8cpp.html#ac0408ab1cf4324682efe91602a9e42c9" target="_top" xlink:title="Re&#45;evaluate timers, flags and inputs to select the next state.">
<polygon fill="white" stroke="#666666" points="209,-93 84,-93 84,-74 209,-74 209,-93"/>
<text text-anchor="middle" x="146.5" y="-81" font-family="Helvetica,sans-Serif" font-size="10.00">determineSensorState</text>
</a>
</g>
</g>
<!-- Node1&#45;&gt;Node2 -->
<g id="edge1_Node000001_Node000002" class="edge">
<title>Node1&#45;&gt;Node2</title>
<g id="a_edge1_Node000001_Node000002"><a xlink:title=" ">
<path fill="none" stroke="#63b8ff" d="M258.23,-58.29C236.04,-63.34 210.47,-69.16 189.49,-73.94"/>
<polygon fill="#63b8ff" stroke="#63b8ff" points="259.18,-61.66 268.15,-56.03 257.62,-54.84 259.18,-61.66"/>
</a>
</g>
</g>
<!-- Node4 -->
<g id="Node000004" class="node">
<title>Node4</title>
<g id="a_Node000004"><a xlink:href="sensor__state__manager_8cpp.html#aa4f73ee3dd8e6bab72fab72bbf882a16" target="_top" xlink:title="Ensure BLE is in the expected lifecycle state (advertising/connected).">
<polygon fill="white" stroke="#666666" points="211,-56 82,-56 82,-37 211,-37 211,-56"/>
<text text-anchor="middle" x="146.5" y="-44" font-family="Helvetica,sans-Serif" font-size="10.00">state_BLEManagement</text>
</a>
</g>
</g>
<!-- Node1&#45;&gt;Node4 -->
<g id="edge3_Node000001_Node000004" class="edge">
<title>Node1&#45;&gt;Node4</title>
<g id="a_edge3_Node000001_Node000004"><a xlink:title=" ">
<path fill="none" stroke="#63b8ff" d="M244.91,-46.5C233.78,-46.5 222.24,-46.5 211.15,-46.5"/>
<polygon fill="#63b8ff" stroke="#63b8ff" points="244.98,-50 254.98,-46.5 244.98,-43 244.98,-50"/>
</a>
</g>
</g>
<!-- Node5 -->
<g id="Node000005" class="node">
<title>Node5</title>
<g id="a_Node000005"><a xlink:href="sensor__state__manager_8cpp.html#a983a3afb91dcbfff50322233586c469c" target="_top" xlink:title="Transfer the next buffered packet via BLE notification.">
<polygon fill="white" stroke="#666666" points="219,-19 74,-19 74,0 219,0 219,-19"/>
<text text-anchor="middle" x="146.5" y="-7" font-family="Helvetica,sans-Serif" font-size="10.00">state_TransferPacketBatch</text>
</a>
</g>
</g>
<!-- Node1&#45;&gt;Node5 -->
<g id="edge5_Node000001_Node000005" class="edge">
<title>Node1&#45;&gt;Node5</title>
<g id="a_edge5_Node000001_Node000005"><a xlink:title=" ">
<path fill="none" stroke="#63b8ff" d="M258.23,-34.71C236.04,-29.66 210.47,-23.84 189.49,-19.06"/>
<polygon fill="#63b8ff" stroke="#63b8ff" points="257.62,-38.16 268.15,-36.97 259.18,-31.34 257.62,-38.16"/>
</a>
</g>
</g>
<!-- Node3 -->
<g id="Node000003" class="node">
<title>Node3</title>
<g id="a_Node000003"><a xlink:href="src__package__arduino_2src_2main_8cpp.html#afe461d27b9c48d5921c00d521181f12f" target="_top" xlink:title="Arduino main loop function.">
<polygon fill="white" stroke="#666666" points="38,-56 0,-56 0,-37 38,-37 38,-56"/>
<text text-anchor="middle" x="19" y="-44" font-family="Helvetica,sans-Serif" font-size="10.00">loop</text>
</a>
</g>
</g>
<!-- Node2&#45;&gt;Node3 -->
<g id="edge2_Node000002_Node000003" class="edge">
<title>Node2&#45;&gt;Node3</title>
<g id="a_edge2_Node000002_Node000003"><a xlink:title=" ">
<path fill="none" stroke="#63b8ff" d="M94.73,-71.33C87.74,-69.48 80.67,-67.51 74,-65.5 62.01,-61.89 48.74,-57.23 38.36,-53.43"/>
<polygon fill="#63b8ff" stroke="#63b8ff" points="94.3,-74.84 104.86,-73.96 96.06,-68.06 94.3,-74.84"/>
</a>
</g>
</g>
<!-- Node4&#45;&gt;Node3 -->
<g id="edge4_Node000004_Node000003" class="edge">
<title>Node4&#45;&gt;Node3</title>
<g id="a_edge4_Node000004_Node000003"><a xlink:title=" ">
<path fill="none" stroke="#63b8ff" d="M71.58,-46.5C59.15,-46.5 47.31,-46.5 38.13,-46.5"/>
<polygon fill="#63b8ff" stroke="#63b8ff" points="71.65,-50 81.65,-46.5 71.65,-43 71.65,-50"/>
</a>
</g>
</g>
<!-- Node5&#45;&gt;Node3 -->
<g id="edge6_Node000005_Node000003" class="edge">
<title>Node5&#45;&gt;Node3</title>
<g id="a_edge6_Node000005_Node000003"><a xlink:title=" ">
<path fill="none" stroke="#63b8ff" d="M98.18,-21.63C90.09,-23.83 81.79,-26.17 74,-28.5 62.07,-32.07 48.8,-36.49 38.4,-40.05"/>
<polygon fill="#63b8ff" stroke="#63b8ff" points="99.15,-25 107.9,-19.02 97.33,-18.23 99.15,-25"/>
</a>
</g>
</g>
</g>
</svg>
