<?xml version="1.0" encoding="UTF-8" standalone="no"?>
<!DOCTYPE svg PUBLIC "-//W3C//DTD SVG 1.1//EN"
 "http://www.w3.org/Graphics/SVG/1.1/DTD/svg11.dtd">
<!-- Generated by graphviz version 2.43.0 (0)
 -->
<!-- Title: sensorService Pages: 1 -->
<svg width="459pt" height="27pt"
 viewBox="0.00 0.00 459.00 27.00" xmlns="http://www.w3.org/2000/svg" xmlns:xlink="http://www.w3.org/1999/xlink">
<g id="graph0" class="graph" transform="scale(1 1) rotate(0) translate(4 23)">
<title>sensorService</title>
<!-- Node1 -->
<g id="Node000001" class="node">
<title>Node1</title>
<g id="a_Node000001"><a xlink:title=" ">
<polygon fill="#999999" stroke="#666666" points="451,-19 366,-19 366,0 451,0 451,-19"/>
<text text-anchor="middle" x="408.5" y="-7" font-family="Helvetica,sans-Serif" font-size="10.00">sensorService</text>
</a>
</g>
</g>
<!-- Node2 -->
<g id="Node000002" class="node">
<title>Node2</title>
<g id="a_Node000002"><a xlink:href="bluetooth__manager_8cpp.html#acdb4283f066b8733e235c63fe52d9553" target="_top" xlink:title="Initialize the BLE peripheral for the sensor.">
<polygon fill="white" stroke="#666666" points="330,-19 239,-19 239,0 330,0 330,-19"/>
<text text-anchor="middle" x="284.5" y="-7" font-family="Helvetica,sans-Serif" font-size="10.00">setupBluetooth</text>
</a>
</g>
</g>
<!-- Node1&#45;&gt;Node2 -->
<g id="edge1_Node000001_Node000002" class="edge">
<title>Node1&#45;&gt;Node2</title>
<g id="a_edge1_Node000001_Node000002"><a xlink:title=" ">
<path fill="none" stroke="#63b8ff" d="M355.71,-9.5C347.26,-9.5 338.56,-9.5 330.29,-9.5"/>
<polygon fill="#63b8ff" stroke="#63b8ff" points="355.86,-13 365.86,-9.5 355.86,-6 355.86,-13"/>
</a>
</g>
</g>
<!-- Node3 -->
<g id="Node000003" class="node">
<title>Node3</title>
<g id="a_Node000003"><a xlink:href="sensor__state__manager_8cpp.html#aa4f73ee3dd8e6bab72fab72bbf882a16" target="_top" xlink:title="Ensure BLE is in the expected lifecycle state (advertising/connected).">
<polygon fill="white" stroke="#666666" points="203,-19 74,-19 74,0 203,0 203,-19"/>
<text text-anchor="middle" x="138.5" y="-7" font-family="Helvetica,sans-Serif" font-size="10.00">state_BLEManagement</text>
</a>
</g>
</g>
<!-- Node2&#45;&gt;Node3 -->
<g id="edge2_Node000002_Node000003" class="edge">
<title>Node2&#45;&gt;Node3</title>
<g id="a_edge2_Node000002_Node000003"><a xlink:title=" ">
<path fill="none" stroke="#63b8ff" d="M228.69,-9.5C220.3,-9.5 211.57,-9.5 203.01,-9.5"/>
<polygon fill="#63b8ff" stroke="#63b8ff" points="228.73,-13 238.73,-9.5 228.73,-6 228.73,-13"/>
</a>
</g>
</g>
<!-- Node4 -->
<g id="Node000004" class="node">
<title>Node4</title>
<g id="a_Node000004"><a xlink:href="src__package__arduino_2src_2main_8cpp.html#afe461d27b9c48d5921c00d521181f12f" target="_top" xlink:title="Arduino main loop function.">
<polygon fill="white" stroke="#666666" points="38,-19 0,-19 0,0 38,0 38,-19"/>
<text text-anchor="middle" x="19" y="-7" font-family="Helvetica,sans-Serif" font-size="10.00">loop</text>
</a>
</g>
</g>
<!-- Node3&#45;&gt;Node4 -->
<g id="edge3_Node000003_Node000004" class="edge">
<title>Node3&#45;&gt;Node4</title>
<g id="a_edge3_Node000003_Node000004"><a xlink:title=" ">
<path fill="none" stroke="#63b8ff" d="M63.84,-9.5C54.31,-9.5 45.33,-9.5 38.02,-9.5"/>
<polygon fill="#63b8ff" stroke="#63b8ff" points="63.94,-13 73.94,-9.5 63.94,-6 63.94,-13"/>
</a>
</g>
</g>
</g>
</svg>
