<?xml version="1.0" encoding="UTF-8" standalone="no"?>
<!DOCTYPE svg PUBLIC "-//W3C//DTD SVG 1.1//EN"
 "http://www.w3.org/Graphics/SVG/1.1/DTD/svg11.dtd">
<!-- Generated by graphviz version 2.43.0 (0)
 -->
<!-- Title: bluetooth_manager.h Pages: 1 -->
<svg width="360pt" height="137pt"
 viewBox="0.00 0.00 360.00 137.00" xmlns="http://www.w3.org/2000/svg" xmlns:xlink="http://www.w3.org/1999/xlink">
<g id="graph0" class="graph" transform="scale(1 1) rotate(0) translate(4 133)">
<title>bluetooth_manager.h</title>
<!-- Node1 -->
<g id="Node000001" class="node">
<title>Node1</title>
<g id="a_Node000001"><a xlink:title="BLE peripheral management for sensor units.">
<polygon fill="#999999" stroke="#666666" points="201.5,-129 81.5,-129 81.5,-110 201.5,-110 201.5,-129"/>
<text text-anchor="middle" x="141.5" y="-117" font-family="Helvetica,sans-Serif" font-size="10.00">bluetooth_manager.h</text>
</a>
</g>
</g>
<!-- Node2 -->
<g id="Node000002" class="node">
<title>Node2</title>
<g id="a_Node000002"><a xlink:href="bluetooth__manager_8cpp.html" target="_top" xlink:title="BLE peripheral setup and management for sensor units.">
<polygon fill="white" stroke="#666666" points="131,-74 0,-74 0,-55 131,-55 131,-74"/>
<text text-anchor="middle" x="65.5" y="-62" font-family="Helvetica,sans-Serif" font-size="10.00">bluetooth_manager.cpp</text>
</a>
</g>
</g>
<!-- Node1&#45;&gt;Node2 -->
<g id="edge1_Node000001_Node000002" class="edge">
<title>Node1&#45;&gt;Node2</title>
<g id="a_edge1_Node000001_Node000002"><a xlink:title=" ">
<path fill="none" stroke="#63b8ff" d="M120.92,-104.15C107.19,-94.57 89.57,-82.29 77.93,-74.17"/>
<polygon fill="#63b8ff" stroke="#63b8ff" points="119.08,-107.14 129.29,-109.98 123.09,-101.39 119.08,-107.14"/>
</a>
</g>
</g>
<!-- Node3 -->
<g id="Node000003" class="node">
<title>Node3</title>
<g id="a_Node000003"><a xlink:href="sensor__state__manager_8h.html" target="_top" xlink:title="Sensor unit state machine API and documentation.">
<polygon fill="white" stroke="#666666" points="285.5,-74 149.5,-74 149.5,-55 285.5,-55 285.5,-74"/>
<text text-anchor="middle" x="217.5" y="-62" font-family="Helvetica,sans-Serif" font-size="10.00">sensor_state_manager.h</text>
</a>
</g>
</g>
<!-- Node1&#45;&gt;Node3 -->
<g id="edge2_Node000001_Node000003" class="edge">
<title>Node1&#45;&gt;Node3</title>
<g id="a_edge2_Node000001_Node000003"><a xlink:title=" ">
<path fill="none" stroke="#63b8ff" d="M162.08,-104.15C175.81,-94.57 193.43,-82.29 205.07,-74.17"/>
<polygon fill="#63b8ff" stroke="#63b8ff" points="159.91,-101.39 153.71,-109.98 163.92,-107.14 159.91,-101.39"/>
</a>
</g>
</g>
<!-- Node4 -->
<g id="Node000004" class="node">
<title>Node4</title>
<g id="a_Node000004"><a xlink:href="src__package__arduino_2src_2main_8cpp.html" target="_top" xlink:title="Main entry point for the sensor firmware.">
<polygon fill="white" stroke="#666666" points="186.5,-19 124.5,-19 124.5,0 186.5,0 186.5,-19"/>
<text text-anchor="middle" x="155.5" y="-7" font-family="Helvetica,sans-Serif" font-size="10.00">main.cpp</text>
</a>
</g>
</g>
<!-- Node3&#45;&gt;Node4 -->
<g id="edge3_Node000003_Node000004" class="edge">
<title>Node3&#45;&gt;Node4</title>
<g id="a_edge3_Node000003_Node000004"><a xlink:title=" ">
<path fill="none" stroke="#63b8ff" d="M199.75,-48.32C188.69,-38.87 174.87,-27.06 165.64,-19.17"/>
<polygon fill="#63b8ff" stroke="#63b8ff" points="197.66,-51.15 207.54,-54.98 202.21,-45.83 197.66,-51.15"/>
</a>
</g>
</g>
<!-- Node5 -->
<g id="Node000005" class="node">
<title>Node5</title>
<g id="a_Node000005"><a xlink:href="sensor__state__manager_8cpp.html" target="_top" xlink:title="Manages the state machine of the sensor unit for packet creation, buffering, and BLE transfer.">
<polygon fill="white" stroke="#666666" points="352,-19 205,-19 205,0 352,0 352,-19"/>
<text text-anchor="middle" x="278.5" y="-7" font-family="Helvetica,sans-Serif" font-size="10.00">sensor_state_manager.cpp</text>
</a>
</g>
</g>
<!-- Node3&#45;&gt;Node5 -->
<g id="edge4_Node000003_Node000005" class="edge">
<title>Node3&#45;&gt;Node5</title>
<g id="a_edge4_Node000003_Node000005"><a xlink:title=" ">
<path fill="none" stroke="#63b8ff" d="M234.97,-48.32C245.84,-38.87 259.44,-27.06 268.52,-19.17"/>
<polygon fill="#63b8ff" stroke="#63b8ff" points="232.55,-45.78 227.3,-54.98 237.15,-51.07 232.55,-45.78"/>
</a>
</g>
</g>
</g>
</svg>
