<?xml version="1.0" encoding="UTF-8" standalone="no"?>
<!DOCTYPE svg PUBLIC "-//W3C//DTD SVG 1.1//EN"
 "http://www.w3.org/Graphics/SVG/1.1/DTD/svg11.dtd">
<!-- Generated by graphviz version 2.43.0 (0)
 -->
<!-- Title: sensorChar Pages: 1 -->
<svg width="503pt" height="64pt"
 viewBox="0.00 0.00 503.00 64.00" xmlns="http://www.w3.org/2000/svg" xmlns:xlink="http://www.w3.org/1999/xlink">
<g id="graph0" class="graph" transform="scale(1 1) rotate(0) translate(4 60)">
<title>sensorChar</title>
<!-- Node1 -->
<g id="Node000001" class="node">
<title>Node1</title>
<g id="a_Node000001"><a xlink:title=" ">
<polygon fill="#999999" stroke="#666666" points="495,-37 424,-37 424,-18 495,-18 495,-37"/>
<text text-anchor="middle" x="459.5" y="-25" font-family="Helvetica,sans-Serif" font-size="10.00">sensorChar</text>
</a>
</g>
</g>
<!-- Node2 -->
<g id="Node000002" class="node">
<title>Node2</title>
<g id="a_Node000002"><a xlink:href="bluetooth__manager_8cpp.html#a46761ce1ac4ac80065b22d3889b44c4b" target="_top" xlink:title="Get a reference to the sensor BLE characteristic.">
<polygon fill="white" stroke="#666666" points="388,-56 255,-56 255,-37 388,-37 388,-56"/>
<text text-anchor="middle" x="321.5" y="-44" font-family="Helvetica,sans-Serif" font-size="10.00">getSensorCharacteristic</text>
</a>
</g>
</g>
<!-- Node1&#45;&gt;Node2 -->
<g id="edge1_Node000001_Node000002" class="edge">
<title>Node1&#45;&gt;Node2</title>
<g id="a_edge1_Node000001_Node000002"><a xlink:title=" ">
<path fill="none" stroke="#63b8ff" d="M413.73,-33.76C405.5,-34.9 396.75,-36.13 388.06,-37.34"/>
<polygon fill="#63b8ff" stroke="#63b8ff" points="414.41,-37.19 423.83,-32.34 413.44,-30.26 414.41,-37.19"/>
</a>
</g>
</g>
<!-- Node5 -->
<g id="Node000005" class="node">
<title>Node5</title>
<g id="a_Node000005"><a xlink:href="bluetooth__manager_8cpp.html#acdb4283f066b8733e235c63fe52d9553" target="_top" xlink:title="Initialize the BLE peripheral for the sensor.">
<polygon fill="white" stroke="#666666" points="367,-19 276,-19 276,0 367,0 367,-19"/>
<text text-anchor="middle" x="321.5" y="-7" font-family="Helvetica,sans-Serif" font-size="10.00">setupBluetooth</text>
</a>
</g>
</g>
<!-- Node1&#45;&gt;Node5 -->
<g id="edge4_Node000001_Node000005" class="edge">
<title>Node1&#45;&gt;Node5</title>
<g id="a_edge4_Node000001_Node000005"><a xlink:title=" ">
<path fill="none" stroke="#63b8ff" d="M413.78,-21.58C398.8,-19.6 382.11,-17.39 367.14,-15.41"/>
<polygon fill="#63b8ff" stroke="#63b8ff" points="413.46,-25.07 423.83,-22.91 414.38,-18.13 413.46,-25.07"/>
</a>
</g>
</g>
<!-- Node3 -->
<g id="Node000003" class="node">
<title>Node3</title>
<g id="a_Node000003"><a xlink:href="sensor__state__manager_8cpp.html#a983a3afb91dcbfff50322233586c469c" target="_top" xlink:title="Transfer the next buffered packet via BLE notification.">
<polygon fill="white" stroke="#666666" points="219,-56 74,-56 74,-37 219,-37 219,-56"/>
<text text-anchor="middle" x="146.5" y="-44" font-family="Helvetica,sans-Serif" font-size="10.00">state_TransferPacketBatch</text>
</a>
</g>
</g>
<!-- Node2&#45;&gt;Node3 -->
<g id="edge2_Node000002_Node000003" class="edge">
<title>Node2&#45;&gt;Node3</title>
<g id="a_edge2_Node000002_Node000003"><a xlink:title=" ">
<path fill="none" stroke="#63b8ff" d="M244.47,-46.5C236.1,-46.5 227.59,-46.5 219.27,-46.5"/>
<polygon fill="#63b8ff" stroke="#63b8ff" points="244.6,-50 254.6,-46.5 244.6,-43 244.6,-50"/>
</a>
</g>
</g>
<!-- Node4 -->
<g id="Node000004" class="node">
<title>Node4</title>
<g id="a_Node000004"><a xlink:href="src__package__arduino_2src_2main_8cpp.html#afe461d27b9c48d5921c00d521181f12f" target="_top" xlink:title="Arduino main loop function.">
<polygon fill="white" stroke="#666666" points="38,-37 0,-37 0,-18 38,-18 38,-37"/>
<text text-anchor="middle" x="19" y="-25" font-family="Helvetica,sans-Serif" font-size="10.00">loop</text>
</a>
</g>
</g>
<!-- Node3&#45;&gt;Node4 -->
<g id="edge3_Node000003_Node000004" class="edge">
<title>Node3&#45;&gt;Node4</title>
<g id="a_edge3_Node000003_Node000004"><a xlink:title=" ">
<path fill="none" stroke="#63b8ff" d="M72.15,-35.4C59.51,-33.48 47.45,-31.66 38.12,-30.24"/>
<polygon fill="#63b8ff" stroke="#63b8ff" points="71.97,-38.91 82.38,-36.94 73.02,-31.99 71.97,-38.91"/>
</a>
</g>
</g>
<!-- Node6 -->
<g id="Node000006" class="node">
<title>Node6</title>
<g id="a_Node000006"><a xlink:href="sensor__state__manager_8cpp.html#aa4f73ee3dd8e6bab72fab72bbf882a16" target="_top" xlink:title="Ensure BLE is in the expected lifecycle state (advertising/connected).">
<polygon fill="white" stroke="#666666" points="211,-19 82,-19 82,0 211,0 211,-19"/>
<text text-anchor="middle" x="146.5" y="-7" font-family="Helvetica,sans-Serif" font-size="10.00">state_BLEManagement</text>
</a>
</g>
</g>
<!-- Node5&#45;&gt;Node6 -->
<g id="edge5_Node000005_Node000006" class="edge">
<title>Node5&#45;&gt;Node6</title>
<g id="a_edge5_Node000005_Node000006"><a xlink:title=" ">
<path fill="none" stroke="#63b8ff" d="M265.47,-9.5C248.19,-9.5 228.96,-9.5 211.14,-9.5"/>
<polygon fill="#63b8ff" stroke="#63b8ff" points="265.95,-13 275.95,-9.5 265.95,-6 265.95,-13"/>
</a>
</g>
</g>
<!-- Node6&#45;&gt;Node4 -->
<g id="edge6_Node000006_Node000004" class="edge">
<title>Node6&#45;&gt;Node4</title>
<g id="a_edge6_Node000006_Node000004"><a xlink:title=" ">
<path fill="none" stroke="#63b8ff" d="M71.58,-20.1C59.15,-21.89 47.31,-23.58 38.13,-24.9"/>
<polygon fill="#63b8ff" stroke="#63b8ff" points="72.25,-23.54 81.65,-18.66 71.25,-16.61 72.25,-23.54"/>
</a>
</g>
</g>
</g>
</svg>
