<?xml version="1.0" encoding="UTF-8" standalone="no"?>
<!DOCTYPE svg PUBLIC "-//W3C//DTD SVG 1.1//EN"
 "http://www.w3.org/Graphics/SVG/1.1/DTD/svg11.dtd">
<!-- Generated by graphviz version 2.43.0 (0)
 -->
<!-- Title: setupBluetooth Pages: 1 -->
<svg width="220pt" height="64pt"
 viewBox="0.00 0.00 220.00 64.00" xmlns="http://www.w3.org/2000/svg" xmlns:xlink="http://www.w3.org/1999/xlink">
<g id="graph0" class="graph" transform="scale(1 1) rotate(0) translate(4 60)">
<title>setupBluetooth</title>
<!-- Node1 -->
<g id="Node000001" class="node">
<title>Node1</title>
<g id="a_Node000001"><a xlink:title="Initialize the BLE peripheral for the sensor.">
<polygon fill="#999999" stroke="#666666" points="91,-37 0,-37 0,-18 91,-18 91,-37"/>
<text text-anchor="middle" x="45.5" y="-25" font-family="Helvetica,sans-Serif" font-size="10.00">setupBluetooth</text>
</a>
</g>
</g>
<!-- Node2 -->
<g id="Node000002" class="node">
<title>Node2</title>
<g id="a_Node000002"><a xlink:href="bluetooth__manager_8cpp.html#a2b744d5d335a0af515c9958567d5f8bc" target="_top" xlink:title=" ">
<polygon fill="white" stroke="#666666" points="205,-56 134,-56 134,-37 205,-37 205,-56"/>
<text text-anchor="middle" x="169.5" y="-44" font-family="Helvetica,sans-Serif" font-size="10.00">sensorChar</text>
</a>
</g>
</g>
<!-- Node1&#45;&gt;Node2 -->
<g id="edge1_Node000001_Node000002" class="edge">
<title>Node1&#45;&gt;Node2</title>
<g id="a_edge1_Node000001_Node000002"><a xlink:title=" ">
<path fill="none" stroke="#63b8ff" d="M91.24,-34.47C101.85,-36.12 113.18,-37.88 123.79,-39.54"/>
<polygon fill="#63b8ff" stroke="#63b8ff" points="123.29,-43 133.71,-41.08 124.36,-36.08 123.29,-43"/>
</a>
</g>
</g>
<!-- Node3 -->
<g id="Node000003" class="node">
<title>Node3</title>
<g id="a_Node000003"><a xlink:href="bluetooth__manager_8cpp.html#a83aaf49454fe892c91182596227f13ed" target="_top" xlink:title=" ">
<polygon fill="white" stroke="#666666" points="212,-19 127,-19 127,0 212,0 212,-19"/>
<text text-anchor="middle" x="169.5" y="-7" font-family="Helvetica,sans-Serif" font-size="10.00">sensorService</text>
</a>
</g>
</g>
<!-- Node1&#45;&gt;Node3 -->
<g id="edge2_Node000001_Node000003" class="edge">
<title>Node1&#45;&gt;Node3</title>
<g id="a_edge2_Node000001_Node000003"><a xlink:title=" ">
<path fill="none" stroke="#63b8ff" d="M91.24,-20.9C99.45,-19.69 108.1,-18.41 116.51,-17.17"/>
<polygon fill="#63b8ff" stroke="#63b8ff" points="117.23,-20.6 126.61,-15.68 116.2,-13.68 117.23,-20.6"/>
</a>
</g>
</g>
</g>
</svg>
