<?xml version="1.0" encoding="UTF-8" standalone="no"?>
<!DOCTYPE svg PUBLIC "-//W3C//DTD SVG 1.1//EN"
 "http://www.w3.org/Graphics/SVG/1.1/DTD/svg11.dtd">
<!-- Generated by graphviz version 2.43.0 (0)
 -->
<!-- Title: bluetooth_manager.cpp Pages: 1 -->
<svg width="298pt" height="192pt"
 viewBox="0.00 0.00 297.50 192.00" xmlns="http://www.w3.org/2000/svg" xmlns:xlink="http://www.w3.org/1999/xlink">
<g id="graph0" class="graph" transform="scale(1 1) rotate(0) translate(4 188)">
<title>bluetooth_manager.cpp</title>
<!-- Node1 -->
<g id="Node000001" class="node">
<title>Node1</title>
<g id="a_Node000001"><a xlink:title="BLE peripheral setup and management for sensor units.">
<polygon fill="#999999" stroke="#666666" points="245.5,-184 114.5,-184 114.5,-165 245.5,-165 245.5,-184"/>
<text text-anchor="middle" x="180" y="-172" font-family="Helvetica,sans-Serif" font-size="10.00">bluetooth_manager.cpp</text>
</a>
</g>
</g>
<!-- Node2 -->
<g id="Node000002" class="node">
<title>Node2</title>
<g id="a_Node000002"><a xlink:href="bluetooth__manager_8h.html" target="_top" xlink:title="BLE peripheral management for sensor units.">
<polygon fill="white" stroke="#666666" points="240,-129 120,-129 120,-110 240,-110 240,-129"/>
<text text-anchor="middle" x="180" y="-117" font-family="Helvetica,sans-Serif" font-size="10.00">bluetooth_manager.h</text>
</a>
</g>
</g>
<!-- Node1&#45;&gt;Node2 -->
<g id="edge1_Node000001_Node000002" class="edge">
<title>Node1&#45;&gt;Node2</title>
<g id="a_edge1_Node000001_Node000002"><a xlink:title=" ">
<path fill="none" stroke="#63b8ff" d="M180,-164.75C180,-157.8 180,-147.85 180,-139.13"/>
<polygon fill="#63b8ff" stroke="#63b8ff" points="183.5,-139.09 180,-129.09 176.5,-139.09 183.5,-139.09"/>
</a>
</g>
</g>
<!-- Node3 -->
<g id="Node000003" class="node">
<title>Node3</title>
<g id="a_Node000003"><a xlink:href="sensor__package__manager_8h.html" target="_top" xlink:title="Sensor packet layout and helpers for assembling SensorPacket structs.">
<polygon fill="white" stroke="#666666" points="152,-74 0,-74 0,-55 152,-55 152,-74"/>
<text text-anchor="middle" x="76" y="-62" font-family="Helvetica,sans-Serif" font-size="10.00">sensor_package_manager.h</text>
</a>
</g>
</g>
<!-- Node2&#45;&gt;Node3 -->
<g id="edge2_Node000002_Node000003" class="edge">
<title>Node2&#45;&gt;Node3</title>
<g id="a_edge2_Node000002_Node000003"><a xlink:title=" ">
<path fill="none" stroke="#63b8ff" d="M163.29,-109.98C146.79,-101.57 121.3,-88.59 102.12,-78.81"/>
<polygon fill="#63b8ff" stroke="#63b8ff" points="103.51,-75.59 93.01,-74.17 100.33,-81.83 103.51,-75.59"/>
</a>
</g>
</g>
<!-- Node4 -->
<g id="Node000004" class="node">
<title>Node4</title>
<g id="a_Node000004"><a xlink:title=" ">
<polygon fill="#e0e0e0" stroke="#999999" points="159.5,-19 96.5,-19 96.5,0 159.5,0 159.5,-19"/>
<text text-anchor="middle" x="128" y="-7" font-family="Helvetica,sans-Serif" font-size="10.00">Arduino.h</text>
</a>
</g>
</g>
<!-- Node2&#45;&gt;Node4 -->
<g id="edge4_Node000002_Node000004" class="edge">
<title>Node2&#45;&gt;Node4</title>
<g id="a_edge4_Node000002_Node000004"><a xlink:title=" ">
<path fill="none" stroke="#63b8ff" d="M178.42,-109.93C175.9,-97.39 170.28,-73.52 161,-55 156,-45.02 148.75,-34.95 142.32,-26.91"/>
<polygon fill="#63b8ff" stroke="#63b8ff" points="144.9,-24.54 135.81,-19.1 139.53,-29.02 144.9,-24.54"/>
</a>
</g>
</g>
<!-- Node5 -->
<g id="Node000005" class="node">
<title>Node5</title>
<g id="a_Node000005"><a xlink:title=" ">
<polygon fill="#e0e0e0" stroke="#999999" points="289.5,-74 208.5,-74 208.5,-55 289.5,-55 289.5,-74"/>
<text text-anchor="middle" x="249" y="-62" font-family="Helvetica,sans-Serif" font-size="10.00">ArduinoBLE.h</text>
</a>
</g>
</g>
<!-- Node2&#45;&gt;Node5 -->
<g id="edge5_Node000002_Node000005" class="edge">
<title>Node2&#45;&gt;Node5</title>
<g id="a_edge5_Node000002_Node000005"><a xlink:title=" ">
<path fill="none" stroke="#63b8ff" d="M191.09,-109.98C201.49,-102 217.26,-89.88 229.72,-80.31"/>
<polygon fill="#63b8ff" stroke="#63b8ff" points="231.91,-83.04 237.71,-74.17 227.65,-77.49 231.91,-83.04"/>
</a>
</g>
</g>
<!-- Node3&#45;&gt;Node4 -->
<g id="edge3_Node000003_Node000004" class="edge">
<title>Node3&#45;&gt;Node4</title>
<g id="a_edge3_Node000003_Node000004"><a xlink:title=" ">
<path fill="none" stroke="#63b8ff" d="M84.59,-54.75C92.16,-47.03 103.38,-35.6 112.51,-26.28"/>
<polygon fill="#63b8ff" stroke="#63b8ff" points="115.07,-28.68 119.57,-19.09 110.07,-23.78 115.07,-28.68"/>
</a>
</g>
</g>
</g>
</svg>
