<?xml version="1.0" encoding="UTF-8" standalone="no"?>
<!DOCTYPE svg PUBLIC "-//W3C//DTD SVG 1.1//EN"
 "http://www.w3.org/Graphics/SVG/1.1/DTD/svg11.dtd">
<!-- Generated by graphviz version 2.43.0 (0)
 -->
<!-- Title: broker_task.cpp Pages: 1 -->
<svg width="827pt" height="148pt"
 viewBox="0.00 0.00 826.50 148.00" xmlns="http://www.w3.org/2000/svg" xmlns:xlink="http://www.w3.org/1999/xlink">
<g id="graph0" class="graph" transform="scale(1 1) rotate(0) translate(4 144)">
<title>broker_task.cpp</title>
<!-- Node1 -->
<g id="Node000001" class="node">
<title>Node1</title>
<g id="a_Node000001"><a xlink:title="Broker task for discovering BLE sensors and forwarding their data.">
<polygon fill="#999999" stroke="#666666" points="545,-140 451,-140 451,-121 545,-121 545,-140"/>
<text text-anchor="middle" x="498" y="-128" font-family="Helvetica,sans-Serif" font-size="10.00">broker_task.cpp</text>
</a>
</g>
</g>
<!-- Node2 -->
<g id="Node000002" class="node">
<title>Node2</title>
<g id="a_Node000002"><a xlink:href="broker__task_8h.html" target="_top" xlink:title="Header for the broker FreeRTOS task handling BLE sensor discovery.">
<polygon fill="white" stroke="#666666" points="112,-79.5 0,-79.5 0,-60.5 112,-60.5 112,-79.5"/>
<text text-anchor="middle" x="56" y="-67.5" font-family="Helvetica,sans-Serif" font-size="10.00">tasks/broker_task.h</text>
</a>
</g>
</g>
<!-- Node1&#45;&gt;Node2 -->
<g id="edge1_Node000001_Node000002" class="edge">
<title>Node1&#45;&gt;Node2</title>
<g id="a_edge1_Node000001_Node000002"><a xlink:title=" ">
<path fill="none" stroke="#63b8ff" d="M450.78,-125.37C379.18,-118.79 239,-104.63 121,-85 115.09,-84.02 108.91,-82.86 102.8,-81.63"/>
<polygon fill="#63b8ff" stroke="#63b8ff" points="103.17,-78.13 92.67,-79.53 101.75,-84.99 103.17,-78.13"/>
</a>
</g>
</g>
<!-- Node4 -->
<g id="Node000004" class="node">
<title>Node4</title>
<g id="a_Node000004"><a xlink:href="sensor__packet__from__sensor_8h.html" target="_top" xlink:title="Defines the data structure for sensor packets received from Arduino sensors.">
<polygon fill="white" stroke="#666666" points="245.5,-85 130.5,-85 130.5,-55 245.5,-55 245.5,-85"/>
<text text-anchor="start" x="138.5" y="-73" font-family="Helvetica,sans-Serif" font-size="10.00">sensor_packet_from</text>
<text text-anchor="middle" x="188" y="-62" font-family="Helvetica,sans-Serif" font-size="10.00">_sensor.h</text>
</a>
</g>
</g>
<!-- Node1&#45;&gt;Node4 -->
<g id="edge3_Node000001_Node000004" class="edge">
<title>Node1&#45;&gt;Node4</title>
<g id="a_edge3_Node000001_Node000004"><a xlink:title=" ">
<path fill="none" stroke="#63b8ff" d="M450.9,-121.23C404,-112.92 329.7,-99.54 255.69,-85.11"/>
<polygon fill="#63b8ff" stroke="#63b8ff" points="256.21,-81.64 245.73,-83.16 254.87,-88.51 256.21,-81.64"/>
</a>
</g>
</g>
<!-- Node5 -->
<g id="Node000005" class="node">
<title>Node5</title>
<g id="a_Node000005"><a xlink:href="threadsafe__serial_8h.html" target="_top" xlink:title="Thread&#45;safe Serial printing utilities for Arduino with FreeRTOS.">
<polygon fill="white" stroke="#666666" points="398,-79.5 264,-79.5 264,-60.5 398,-60.5 398,-79.5"/>
<text text-anchor="middle" x="331" y="-67.5" font-family="Helvetica,sans-Serif" font-size="10.00">utils/threadsafe_serial.h</text>
</a>
</g>
</g>
<!-- Node1&#45;&gt;Node5 -->
<g id="edge5_Node000001_Node000005" class="edge">
<title>Node1&#45;&gt;Node5</title>
<g id="a_edge5_Node000001_Node000005"><a xlink:title=" ">
<path fill="none" stroke="#63b8ff" d="M473.72,-120.99C445.02,-110.94 397.11,-94.16 364.8,-82.84"/>
<polygon fill="#63b8ff" stroke="#63b8ff" points="365.91,-79.52 355.31,-79.52 363.59,-86.13 365.91,-79.52"/>
</a>
</g>
</g>
<!-- Node8 -->
<g id="Node000008" class="node">
<title>Node8</title>
<g id="a_Node000008"><a xlink:title=" ">
<polygon fill="#e0e0e0" stroke="#999999" points="488,-79.5 416,-79.5 416,-60.5 488,-60.5 488,-79.5"/>
<text text-anchor="middle" x="452" y="-67.5" font-family="Helvetica,sans-Serif" font-size="10.00">BLEClient.h</text>
</a>
</g>
</g>
<!-- Node1&#45;&gt;Node8 -->
<g id="edge9_Node000001_Node000008" class="edge">
<title>Node1&#45;&gt;Node8</title>
<g id="a_edge9_Node000001_Node000008"><a xlink:title=" ">
<path fill="none" stroke="#63b8ff" d="M491.21,-120.87C484.35,-112.14 473.57,-98.43 465.05,-87.59"/>
<polygon fill="#63b8ff" stroke="#63b8ff" points="467.75,-85.36 458.82,-79.67 462.25,-89.69 467.75,-85.36"/>
</a>
</g>
</g>
<!-- Node9 -->
<g id="Node000009" class="node">
<title>Node9</title>
<g id="a_Node000009"><a xlink:title=" ">
<polygon fill="#e0e0e0" stroke="#999999" points="583.5,-79.5 506.5,-79.5 506.5,-60.5 583.5,-60.5 583.5,-79.5"/>
<text text-anchor="middle" x="545" y="-67.5" font-family="Helvetica,sans-Serif" font-size="10.00">BLEDevice.h</text>
</a>
</g>
</g>
<!-- Node1&#45;&gt;Node9 -->
<g id="edge10_Node000001_Node000009" class="edge">
<title>Node1&#45;&gt;Node9</title>
<g id="a_edge10_Node000001_Node000009"><a xlink:title=" ">
<path fill="none" stroke="#63b8ff" d="M504.94,-120.87C511.95,-112.14 522.96,-98.43 531.67,-87.59"/>
<polygon fill="#63b8ff" stroke="#63b8ff" points="534.5,-89.66 538.04,-79.67 529.04,-85.27 534.5,-89.66"/>
</a>
</g>
</g>
<!-- Node10 -->
<g id="Node000010" class="node">
<title>Node10</title>
<g id="a_Node000010"><a xlink:title=" ">
<polygon fill="#e0e0e0" stroke="#999999" points="668.5,-79.5 601.5,-79.5 601.5,-60.5 668.5,-60.5 668.5,-79.5"/>
<text text-anchor="middle" x="635" y="-67.5" font-family="Helvetica,sans-Serif" font-size="10.00">BLEScan.h</text>
</a>
</g>
</g>
<!-- Node1&#45;&gt;Node10 -->
<g id="edge11_Node000001_Node000010" class="edge">
<title>Node1&#45;&gt;Node10</title>
<g id="a_edge11_Node000001_Node000010"><a xlink:title=" ">
<path fill="none" stroke="#63b8ff" d="M517.92,-120.99C540.95,-111.16 579.08,-94.88 605.54,-83.58"/>
<polygon fill="#63b8ff" stroke="#63b8ff" points="607.23,-86.66 615.05,-79.52 604.48,-80.22 607.23,-86.66"/>
</a>
</g>
</g>
<!-- Node11 -->
<g id="Node000011" class="node">
<title>Node11</title>
<g id="a_Node000011"><a xlink:title=" ">
<polygon fill="#e0e0e0" stroke="#999999" points="753,-79.5 687,-79.5 687,-60.5 753,-60.5 753,-79.5"/>
<text text-anchor="middle" x="720" y="-67.5" font-family="Helvetica,sans-Serif" font-size="10.00">BLEUtils.h</text>
</a>
</g>
</g>
<!-- Node1&#45;&gt;Node11 -->
<g id="edge12_Node000001_Node000011" class="edge">
<title>Node1&#45;&gt;Node11</title>
<g id="a_edge12_Node000001_Node000011"><a xlink:title=" ">
<path fill="none" stroke="#63b8ff" d="M536.16,-120.99C572.75,-112.62 629.46,-99.07 678,-85 680.45,-84.29 682.98,-83.53 685.52,-82.74"/>
<polygon fill="#63b8ff" stroke="#63b8ff" points="686.78,-86.01 695.23,-79.62 684.64,-79.34 686.78,-86.01"/>
</a>
</g>
</g>
<!-- Node12 -->
<g id="Node000012" class="node">
<title>Node12</title>
<g id="a_Node000012"><a xlink:title=" ">
<polygon fill="#e0e0e0" stroke="#999999" points="818.5,-79.5 771.5,-79.5 771.5,-60.5 818.5,-60.5 818.5,-79.5"/>
<text text-anchor="middle" x="795" y="-67.5" font-family="Helvetica,sans-Serif" font-size="10.00">vector</text>
</a>
</g>
</g>
<!-- Node1&#45;&gt;Node12 -->
<g id="edge13_Node000001_Node000012" class="edge">
<title>Node1&#45;&gt;Node12</title>
<g id="a_edge13_Node000001_Node000012"><a xlink:title=" ">
<path fill="none" stroke="#63b8ff" d="M545,-124.94C598.38,-118.99 687.71,-106.69 762,-85 763.68,-84.51 765.4,-83.96 767.11,-83.36"/>
<polygon fill="#63b8ff" stroke="#63b8ff" points="768.71,-86.5 776.78,-79.63 766.19,-79.97 768.71,-86.5"/>
</a>
</g>
</g>
<!-- Node3 -->
<g id="Node000003" class="node">
<title>Node3</title>
<g id="a_Node000003"><a xlink:title=" ">
<polygon fill="#e0e0e0" stroke="#999999" points="219.5,-19 156.5,-19 156.5,0 219.5,0 219.5,-19"/>
<text text-anchor="middle" x="188" y="-7" font-family="Helvetica,sans-Serif" font-size="10.00">Arduino.h</text>
</a>
</g>
</g>
<!-- Node2&#45;&gt;Node3 -->
<g id="edge2_Node000002_Node000003" class="edge">
<title>Node2&#45;&gt;Node3</title>
<g id="a_edge2_Node000002_Node000003"><a xlink:title=" ">
<path fill="none" stroke="#63b8ff" d="M75.19,-60.49C97.39,-50.66 134.12,-34.38 159.62,-23.08"/>
<polygon fill="#63b8ff" stroke="#63b8ff" points="161.06,-26.27 168.78,-19.02 158.22,-19.87 161.06,-26.27"/>
</a>
</g>
</g>
<!-- Node4&#45;&gt;Node3 -->
<g id="edge4_Node000004_Node000003" class="edge">
<title>Node4&#45;&gt;Node3</title>
<g id="a_edge4_Node000004_Node000003"><a xlink:title=" ">
<path fill="none" stroke="#63b8ff" d="M188,-54.84C188,-47.21 188,-37.7 188,-29.45"/>
<polygon fill="#63b8ff" stroke="#63b8ff" points="191.5,-29.27 188,-19.27 184.5,-29.27 191.5,-29.27"/>
</a>
</g>
</g>
<!-- Node5&#45;&gt;Node3 -->
<g id="edge6_Node000005_Node000003" class="edge">
<title>Node5&#45;&gt;Node3</title>
<g id="a_edge6_Node000005_Node000003"><a xlink:title=" ">
<path fill="none" stroke="#63b8ff" d="M310.21,-60.49C286.06,-50.62 246.02,-34.23 218.38,-22.93"/>
<polygon fill="#63b8ff" stroke="#63b8ff" points="219.4,-19.56 208.82,-19.02 216.75,-26.04 219.4,-19.56"/>
</a>
</g>
</g>
<!-- Node6 -->
<g id="Node000006" class="node">
<title>Node6</title>
<g id="a_Node000006"><a xlink:title=" ">
<polygon fill="#e0e0e0" stroke="#999999" points="368.5,-19 255.5,-19 255.5,0 368.5,0 368.5,-19"/>
<text text-anchor="middle" x="312" y="-7" font-family="Helvetica,sans-Serif" font-size="10.00">freertos/FreeRTOS.h</text>
</a>
</g>
</g>
<!-- Node5&#45;&gt;Node6 -->
<g id="edge7_Node000005_Node000006" class="edge">
<title>Node5&#45;&gt;Node6</title>
<g id="a_edge7_Node000005_Node000006"><a xlink:title=" ">
<path fill="none" stroke="#63b8ff" d="M328.2,-60.37C325.5,-52.07 321.35,-39.28 317.92,-28.72"/>
<polygon fill="#63b8ff" stroke="#63b8ff" points="321.23,-27.6 314.82,-19.17 314.58,-29.76 321.23,-27.6"/>
</a>
</g>
</g>
<!-- Node7 -->
<g id="Node000007" class="node">
<title>Node7</title>
<g id="a_Node000007"><a xlink:title=" ">
<polygon fill="#e0e0e0" stroke="#999999" points="489.5,-19 386.5,-19 386.5,0 489.5,0 489.5,-19"/>
<text text-anchor="middle" x="438" y="-7" font-family="Helvetica,sans-Serif" font-size="10.00">freertos/semphr.h</text>
</a>
</g>
</g>
<!-- Node5&#45;&gt;Node7 -->
<g id="edge8_Node000005_Node000007" class="edge">
<title>Node5&#45;&gt;Node7</title>
<g id="a_edge8_Node000005_Node000007"><a xlink:title=" ">
<path fill="none" stroke="#63b8ff" d="M346.79,-60.37C364.33,-50.78 392.88,-35.17 413.37,-23.97"/>
<polygon fill="#63b8ff" stroke="#63b8ff" points="415.05,-27.04 422.15,-19.17 411.69,-20.89 415.05,-27.04"/>
</a>
</g>
</g>
</g>
</svg>
