<?xml version="1.0" encoding="UTF-8" standalone="no"?>
<!DOCTYPE svg PUBLIC "-//W3C//DTD SVG 1.1//EN"
 "http://www.w3.org/Graphics/SVG/1.1/DTD/svg11.dtd">
<!-- Generated by graphviz version 2.43.0 (0)
 -->
<!-- Title: notificationCallback Pages: 1 -->
<svg width="440pt" height="27pt"
 viewBox="0.00 0.00 440.00 27.00" xmlns="http://www.w3.org/2000/svg" xmlns:xlink="http://www.w3.org/1999/xlink">
<g id="graph0" class="graph" transform="scale(1 1) rotate(0) translate(4 23)">
<title>notificationCallback</title>
<!-- Node1 -->
<g id="Node000001" class="node">
<title>Node1</title>
<g id="a_Node000001"><a xlink:title="Callback for BLE characteristic notifications.">
<polygon fill="#999999" stroke="#666666" points="432,-19 319,-19 319,0 432,0 432,-19"/>
<text text-anchor="middle" x="375.5" y="-7" font-family="Helvetica,sans-Serif" font-size="10.00">notificationCallback</text>
</a>
</g>
</g>
<!-- Node2 -->
<g id="Node000002" class="node">
<title>Node2</title>
<g id="a_Node000002"><a xlink:href="broker__task_8cpp.html#a0d643c20fb0f3a978c62dd11ab50e526" target="_top" xlink:title="Connects to a BLE sensor and subscribes to its notifications.">
<polygon fill="white" stroke="#666666" points="283,-19 185,-19 185,0 283,0 283,-19"/>
<text text-anchor="middle" x="234" y="-7" font-family="Helvetica,sans-Serif" font-size="10.00">connectToSensor</text>
</a>
</g>
</g>
<!-- Node1&#45;&gt;Node2 -->
<g id="edge1_Node000001_Node000002" class="edge">
<title>Node1&#45;&gt;Node2</title>
<g id="a_edge1_Node000001_Node000002"><a xlink:title=" ">
<path fill="none" stroke="#63b8ff" d="M308.86,-9.5C300.19,-9.5 291.44,-9.5 283.14,-9.5"/>
<polygon fill="#63b8ff" stroke="#63b8ff" points="308.97,-13 318.97,-9.5 308.97,-6 308.97,-13"/>
</a>
</g>
</g>
<!-- Node3 -->
<g id="Node000003" class="node">
<title>Node3</title>
<g id="a_Node000003"><a xlink:href="broker__task_8cpp.html#a09e3fef213641fea826388bc4245dd09" target="_top" xlink:title="Broker task for discovering BLE sensors and handling notifications.">
<polygon fill="white" stroke="#666666" points="149,-19 80,-19 80,0 149,0 149,-19"/>
<text text-anchor="middle" x="114.5" y="-7" font-family="Helvetica,sans-Serif" font-size="10.00">brokerTask</text>
</a>
</g>
</g>
<!-- Node2&#45;&gt;Node3 -->
<g id="edge2_Node000002_Node000003" class="edge">
<title>Node2&#45;&gt;Node3</title>
<g id="a_edge2_Node000002_Node000003"><a xlink:title=" ">
<path fill="none" stroke="#63b8ff" d="M174.61,-9.5C165.83,-9.5 157.03,-9.5 149.01,-9.5"/>
<polygon fill="#63b8ff" stroke="#63b8ff" points="174.87,-13 184.87,-9.5 174.87,-6 174.87,-13"/>
</a>
</g>
</g>
<!-- Node4 -->
<g id="Node000004" class="node">
<title>Node4</title>
<g id="a_Node000004"><a xlink:href="src__broker__esp32_2src_2main_8cpp.html#a4fc01d736fe50cf5b977f755b675f11d" target="_top" xlink:title="Arduino setup function.">
<polygon fill="white" stroke="#666666" points="44,-19 0,-19 0,0 44,0 44,-19"/>
<text text-anchor="middle" x="22" y="-7" font-family="Helvetica,sans-Serif" font-size="10.00">setup</text>
</a>
</g>
</g>
<!-- Node3&#45;&gt;Node4 -->
<g id="edge3_Node000003_Node000004" class="edge">
<title>Node3&#45;&gt;Node4</title>
<g id="a_edge3_Node000003_Node000004"><a xlink:title=" ">
<path fill="none" stroke="#63b8ff" d="M69.52,-9.5C60.66,-9.5 51.74,-9.5 44.11,-9.5"/>
<polygon fill="#63b8ff" stroke="#63b8ff" points="69.8,-13 79.8,-9.5 69.8,-6 69.8,-13"/>
</a>
</g>
</g>
</g>
</svg>
