<?xml version="1.0" encoding="UTF-8" standalone="no"?>
<!DOCTYPE svg PUBLIC "-//W3C//DTD SVG 1.1//EN"
 "http://www.w3.org/Graphics/SVG/1.1/DTD/svg11.dtd">
<!-- Generated by graphviz version 2.43.0 (0)
 -->
<!-- Title: connectToSensor Pages: 1 -->
<svg width="355pt" height="46pt"
 viewBox="0.00 0.00 355.00 46.00" xmlns="http://www.w3.org/2000/svg" xmlns:xlink="http://www.w3.org/1999/xlink">
<g id="graph0" class="graph" transform="scale(1 1) rotate(0) translate(4 42)">
<title>connectToSensor</title>
<!-- Node1 -->
<g id="Node000001" class="node">
<title>Node1</title>
<g id="a_Node000001"><a xlink:title="Connects to a BLE sensor and subscribes to its notifications.">
<polygon fill="#999999" stroke="#666666" points="98,-19 0,-19 0,0 98,0 98,-19"/>
<text text-anchor="middle" x="49" y="-7" font-family="Helvetica,sans-Serif" font-size="10.00">connectToSensor</text>
</a>
</g>
</g>
<!-- Node2 -->
<g id="Node000002" class="node">
<title>Node2</title>
<g id="a_Node000002"><a xlink:href="broker__task_8cpp.html#a19260a63dfa833b5eca3339154a6ccbc" target="_top" xlink:title="Callback for BLE characteristic notifications.">
<polygon fill="white" stroke="#666666" points="247,-38 134,-38 134,-19 247,-19 247,-38"/>
<text text-anchor="middle" x="190.5" y="-26" font-family="Helvetica,sans-Serif" font-size="10.00">notificationCallback</text>
</a>
</g>
</g>
<!-- Node1&#45;&gt;Node2 -->
<g id="edge1_Node000001_Node000002" class="edge">
<title>Node1&#45;&gt;Node2</title>
<g id="a_edge1_Node000001_Node000002"><a xlink:title=" ">
<path fill="none" stroke="#63b8ff" d="M98.01,-16.04C106.28,-17.17 115,-18.35 123.65,-19.53"/>
<polygon fill="#63b8ff" stroke="#63b8ff" points="123.34,-23.02 133.72,-20.9 124.29,-16.09 123.34,-23.02"/>
</a>
</g>
</g>
<!-- Node3 -->
<g id="Node000003" class="node">
<title>Node3</title>
<g id="a_Node000003"><a xlink:href="threadsafe__serial_8cpp.html#a211c3f6179c90047a5c0c7666dcbadb1" target="_top" xlink:title="Thread&#45;safe printf&#45;style formatted print.">
<polygon fill="white" stroke="#666666" points="347,-19 283,-19 283,0 347,0 347,-19"/>
<text text-anchor="middle" x="315" y="-7" font-family="Helvetica,sans-Serif" font-size="10.00">safePrintf</text>
</a>
</g>
</g>
<!-- Node1&#45;&gt;Node3 -->
<g id="edge3_Node000001_Node000003" class="edge">
<title>Node1&#45;&gt;Node3</title>
<g id="a_edge3_Node000001_Node000003"><a xlink:title=" ">
<path fill="none" stroke="#63b8ff" d="M98.11,-9.5C148.03,-9.5 225.27,-9.5 272.56,-9.5"/>
<polygon fill="#63b8ff" stroke="#63b8ff" points="272.75,-13 282.75,-9.5 272.75,-6 272.75,-13"/>
</a>
</g>
</g>
<!-- Node2&#45;&gt;Node3 -->
<g id="edge2_Node000002_Node000003" class="edge">
<title>Node2&#45;&gt;Node3</title>
<g id="a_edge2_Node000002_Node000003"><a xlink:title=" ">
<path fill="none" stroke="#63b8ff" d="M247.02,-19.89C255.65,-18.55 264.44,-17.19 272.69,-15.91"/>
<polygon fill="#63b8ff" stroke="#63b8ff" points="273.45,-19.33 282.79,-14.34 272.37,-12.41 273.45,-19.33"/>
</a>
</g>
</g>
</g>
</svg>
