<?xml version="1.0" encoding="UTF-8" standalone="no"?>
<!DOCTYPE svg PUBLIC "-//W3C//DTD SVG 1.1//EN"
 "http://www.w3.org/Graphics/SVG/1.1/DTD/svg11.dtd">
<!-- Generated by graphviz version 2.43.0 (0)
 -->
<!-- Title: brokerTask Pages: 1 -->
<svg width="460pt" height="84pt"
 viewBox="0.00 0.00 460.00 84.00" xmlns="http://www.w3.org/2000/svg" xmlns:xlink="http://www.w3.org/1999/xlink">
<g id="graph0" class="graph" transform="scale(1 1) rotate(0) translate(4 80)">
<title>brokerTask</title>
<!-- Node1 -->
<g id="Node000001" class="node">
<title>Node1</title>
<g id="a_Node000001"><a xlink:title="Main broker task function.">
<polygon fill="#999999" stroke="#666666" points="69,-19 0,-19 0,0 69,0 69,-19"/>
<text text-anchor="middle" x="34.5" y="-7" font-family="Helvetica,sans-Serif" font-size="10.00">brokerTask</text>
</a>
</g>
</g>
<!-- Node2 -->
<g id="Node000002" class="node">
<title>Node2</title>
<g id="a_Node000002"><a xlink:href="broker__task_8cpp.html#a0d643c20fb0f3a978c62dd11ab50e526" target="_top" xlink:title="Connects to a BLE sensor and subscribes to its notifications.">
<polygon fill="white" stroke="#666666" points="203,-38 105,-38 105,-19 203,-19 203,-38"/>
<text text-anchor="middle" x="154" y="-26" font-family="Helvetica,sans-Serif" font-size="10.00">connectToSensor</text>
</a>
</g>
</g>
<!-- Node1&#45;&gt;Node2 -->
<g id="edge1_Node000001_Node000002" class="edge">
<title>Node1&#45;&gt;Node2</title>
<g id="a_edge1_Node000001_Node000002"><a xlink:title=" ">
<path fill="none" stroke="#63b8ff" d="M69.17,-14.94C77.25,-16.25 86.11,-17.68 94.95,-19.11"/>
<polygon fill="#63b8ff" stroke="#63b8ff" points="94.45,-22.58 104.88,-20.72 95.56,-15.67 94.45,-22.58"/>
</a>
</g>
</g>
<!-- Node4 -->
<g id="Node000004" class="node">
<title>Node4</title>
<g id="a_Node000004"><a xlink:href="threadsafe__serial_8cpp.html#a211c3f6179c90047a5c0c7666dcbadb1" target="_top" xlink:title="Thread&#45;safe printf&#45;style formatted print.">
<polygon fill="white" stroke="#666666" points="452,-38 388,-38 388,-19 452,-19 452,-38"/>
<text text-anchor="middle" x="420" y="-26" font-family="Helvetica,sans-Serif" font-size="10.00">safePrintf</text>
</a>
</g>
</g>
<!-- Node1&#45;&gt;Node4 -->
<g id="edge5_Node000001_Node000004" class="edge">
<title>Node1&#45;&gt;Node4</title>
<g id="a_edge5_Node000001_Node000004"><a xlink:title=" ">
<path fill="none" stroke="#63b8ff" d="M69.21,-8.63C103.04,-7.97 156.66,-7.47 203,-9.5 263.98,-12.18 334.35,-19.08 377.77,-23.79"/>
<polygon fill="#63b8ff" stroke="#63b8ff" points="377.61,-27.29 387.94,-24.9 378.38,-20.34 377.61,-27.29"/>
</a>
</g>
</g>
<!-- Node3 -->
<g id="Node000003" class="node">
<title>Node3</title>
<g id="a_Node000003"><a xlink:href="broker__task_8cpp.html#a19260a63dfa833b5eca3339154a6ccbc" target="_top" xlink:title="Callback for BLE characteristic notifications.">
<polygon fill="white" stroke="#666666" points="352,-76 239,-76 239,-57 352,-57 352,-76"/>
<text text-anchor="middle" x="295.5" y="-64" font-family="Helvetica,sans-Serif" font-size="10.00">notificationCallback</text>
</a>
</g>
</g>
<!-- Node2&#45;&gt;Node3 -->
<g id="edge2_Node000002_Node000003" class="edge">
<title>Node2&#45;&gt;Node3</title>
<g id="a_edge2_Node000002_Node000003"><a xlink:title=" ">
<path fill="none" stroke="#63b8ff" d="M190.2,-38.09C208.21,-42.99 230.33,-49.02 249.56,-54.26"/>
<polygon fill="#63b8ff" stroke="#63b8ff" points="248.74,-57.66 259.31,-56.91 250.58,-50.91 248.74,-57.66"/>
</a>
</g>
</g>
<!-- Node2&#45;&gt;Node4 -->
<g id="edge4_Node000002_Node000004" class="edge">
<title>Node2&#45;&gt;Node4</title>
<g id="a_edge4_Node000002_Node000004"><a xlink:title=" ">
<path fill="none" stroke="#63b8ff" d="M203.11,-28.5C253.03,-28.5 330.27,-28.5 377.56,-28.5"/>
<polygon fill="#63b8ff" stroke="#63b8ff" points="377.75,-32 387.75,-28.5 377.75,-25 377.75,-32"/>
</a>
</g>
</g>
<!-- Node3&#45;&gt;Node4 -->
<g id="edge3_Node000003_Node000004" class="edge">
<title>Node3&#45;&gt;Node4</title>
<g id="a_edge3_Node000003_Node000004"><a xlink:title=" ">
<path fill="none" stroke="#63b8ff" d="M327.41,-56.91C342.79,-52.14 361.58,-46.31 378.13,-41.18"/>
<polygon fill="#63b8ff" stroke="#63b8ff" points="379.58,-44.39 388.1,-38.09 377.51,-37.71 379.58,-44.39"/>
</a>
</g>
</g>
</g>
</svg>
