<?xml version="1.0" encoding="UTF-8" standalone="no"?>
<!DOCTYPE svg PUBLIC "-//W3C//DTD SVG 1.1//EN"
 "http://www.w3.org/Graphics/SVG/1.1/DTD/svg11.dtd">
<!-- Generated by graphviz version 2.43.0 (0)
 -->
<!-- Title: peekPacketFromBuffer Pages: 1 -->
<svg width="389pt" height="27pt"
 viewBox="0.00 0.00 389.00 27.00" xmlns="http://www.w3.org/2000/svg" xmlns:xlink="http://www.w3.org/1999/xlink">
<g id="graph0" class="graph" transform="scale(1 1) rotate(0) translate(4 23)">
<title>peekPacketFromBuffer</title>
<!-- Node1 -->
<g id="Node000001" class="node">
<title>Node1</title>
<g id="a_Node000001"><a xlink:title="Peek at the oldest packet without removing it.">
<polygon fill="#999999" stroke="#666666" points="381,-19 255,-19 255,0 381,0 381,-19"/>
<text text-anchor="middle" x="318" y="-7" font-family="Helvetica,sans-Serif" font-size="10.00">peekPacketFromBuffer</text>
</a>
</g>
</g>
<!-- Node2 -->
<g id="Node000002" class="node">
<title>Node2</title>
<g id="a_Node000002"><a xlink:href="sensor__state__manager_8cpp.html#a983a3afb91dcbfff50322233586c469c" target="_top" xlink:title="Transfer the next buffered packet via BLE notification.">
<polygon fill="white" stroke="#666666" points="219,-19 74,-19 74,0 219,0 219,-19"/>
<text text-anchor="middle" x="146.5" y="-7" font-family="Helvetica,sans-Serif" font-size="10.00">state_TransferPacketBatch</text>
</a>
</g>
</g>
<!-- Node1&#45;&gt;Node2 -->
<g id="edge1_Node000001_Node000002" class="edge">
<title>Node1&#45;&gt;Node2</title>
<g id="a_edge1_Node000001_Node000002"><a xlink:title=" ">
<path fill="none" stroke="#63b8ff" d="M244.64,-9.5C236.18,-9.5 227.56,-9.5 219.11,-9.5"/>
<polygon fill="#63b8ff" stroke="#63b8ff" points="244.85,-13 254.85,-9.5 244.85,-6 244.85,-13"/>
</a>
</g>
</g>
<!-- Node3 -->
<g id="Node000003" class="node">
<title>Node3</title>
<g id="a_Node000003"><a xlink:href="src__package__arduino_2src_2main_8cpp.html#afe461d27b9c48d5921c00d521181f12f" target="_top" xlink:title="Arduino main loop function.">
<polygon fill="white" stroke="#666666" points="38,-19 0,-19 0,0 38,0 38,-19"/>
<text text-anchor="middle" x="19" y="-7" font-family="Helvetica,sans-Serif" font-size="10.00">loop</text>
</a>
</g>
</g>
<!-- Node2&#45;&gt;Node3 -->
<g id="edge2_Node000002_Node000003" class="edge">
<title>Node2&#45;&gt;Node3</title>
<g id="a_edge2_Node000002_Node000003"><a xlink:title=" ">
<path fill="none" stroke="#63b8ff" d="M63.88,-9.5C54.4,-9.5 45.55,-9.5 38.32,-9.5"/>
<polygon fill="#63b8ff" stroke="#63b8ff" points="63.95,-13 73.95,-9.5 63.95,-6 63.95,-13"/>
</a>
</g>
</g>
</g>
</svg>
