<?xml version="1.0" encoding="UTF-8" standalone="no"?>
<!DOCTYPE svg PUBLIC "-//W3C//DTD SVG 1.1//EN"
 "http://www.w3.org/Graphics/SVG/1.1/DTD/svg11.dtd">
<!-- Generated by graphviz version 2.43.0 (0)
 -->
<!-- Title: buffer_manager.h Pages: 1 -->
<svg width="342pt" height="137pt"
 viewBox="0.00 0.00 342.00 137.00" xmlns="http://www.w3.org/2000/svg" xmlns:xlink="http://www.w3.org/1999/xlink">
<g id="graph0" class="graph" transform="scale(1 1) rotate(0) translate(4 133)">
<title>buffer_manager.h</title>
<!-- Node1 -->
<g id="Node000001" class="node">
<title>Node1</title>
<g id="a_Node000001"><a xlink:title="Circular buffer interface for storing SensorPacket data.">
<polygon fill="#999999" stroke="#666666" points="178.5,-129 76.5,-129 76.5,-110 178.5,-110 178.5,-129"/>
<text text-anchor="middle" x="127.5" y="-117" font-family="Helvetica,sans-Serif" font-size="10.00">buffer_manager.h</text>
</a>
</g>
</g>
<!-- Node2 -->
<g id="Node000002" class="node">
<title>Node2</title>
<g id="a_Node000002"><a xlink:href="buffer__manager_8cpp.html" target="_top" xlink:title="Circular buffer management for storing SensorPacket data.">
<polygon fill="white" stroke="#666666" points="113,-74 0,-74 0,-55 113,-55 113,-74"/>
<text text-anchor="middle" x="56.5" y="-62" font-family="Helvetica,sans-Serif" font-size="10.00">buffer_manager.cpp</text>
</a>
</g>
</g>
<!-- Node1&#45;&gt;Node2 -->
<g id="edge1_Node000001_Node000002" class="edge">
<title>Node1&#45;&gt;Node2</title>
<g id="a_edge1_Node000001_Node000002"><a xlink:title=" ">
<path fill="none" stroke="#63b8ff" d="M107.91,-103.88C95.13,-94.34 78.89,-82.21 68.11,-74.17"/>
<polygon fill="#63b8ff" stroke="#63b8ff" points="105.99,-106.81 116.09,-109.98 110.17,-101.2 105.99,-106.81"/>
</a>
</g>
</g>
<!-- Node3 -->
<g id="Node000003" class="node">
<title>Node3</title>
<g id="a_Node000003"><a xlink:href="sensor__state__manager_8h.html" target="_top" xlink:title="Sensor unit state machine API and documentation.">
<polygon fill="white" stroke="#666666" points="267.5,-74 131.5,-74 131.5,-55 267.5,-55 267.5,-74"/>
<text text-anchor="middle" x="199.5" y="-62" font-family="Helvetica,sans-Serif" font-size="10.00">sensor_state_manager.h</text>
</a>
</g>
</g>
<!-- Node1&#45;&gt;Node3 -->
<g id="edge2_Node000001_Node000003" class="edge">
<title>Node1&#45;&gt;Node3</title>
<g id="a_edge2_Node000001_Node000003"><a xlink:title=" ">
<path fill="none" stroke="#63b8ff" d="M147.37,-103.88C160.32,-94.34 176.8,-82.21 187.72,-74.17"/>
<polygon fill="#63b8ff" stroke="#63b8ff" points="145.05,-101.24 139.07,-109.98 149.2,-106.88 145.05,-101.24"/>
</a>
</g>
</g>
<!-- Node4 -->
<g id="Node000004" class="node">
<title>Node4</title>
<g id="a_Node000004"><a xlink:href="src__package__arduino_2src_2main_8cpp.html" target="_top" xlink:title="Main entry point for the sensor firmware.">
<polygon fill="white" stroke="#666666" points="168.5,-19 106.5,-19 106.5,0 168.5,0 168.5,-19"/>
<text text-anchor="middle" x="137.5" y="-7" font-family="Helvetica,sans-Serif" font-size="10.00">main.cpp</text>
</a>
</g>
</g>
<!-- Node3&#45;&gt;Node4 -->
<g id="edge3_Node000003_Node000004" class="edge">
<title>Node3&#45;&gt;Node4</title>
<g id="a_edge3_Node000003_Node000004"><a xlink:title=" ">
<path fill="none" stroke="#63b8ff" d="M181.75,-48.32C170.69,-38.87 156.87,-27.06 147.64,-19.17"/>
<polygon fill="#63b8ff" stroke="#63b8ff" points="179.66,-51.15 189.54,-54.98 184.21,-45.83 179.66,-51.15"/>
</a>
</g>
</g>
<!-- Node5 -->
<g id="Node000005" class="node">
<title>Node5</title>
<g id="a_Node000005"><a xlink:href="sensor__state__manager_8cpp.html" target="_top" xlink:title="Manages the state machine of the sensor unit for packet creation, buffering, and BLE transfer.">
<polygon fill="white" stroke="#666666" points="334,-19 187,-19 187,0 334,0 334,-19"/>
<text text-anchor="middle" x="260.5" y="-7" font-family="Helvetica,sans-Serif" font-size="10.00">sensor_state_manager.cpp</text>
</a>
</g>
</g>
<!-- Node3&#45;&gt;Node5 -->
<g id="edge4_Node000003_Node000005" class="edge">
<title>Node3&#45;&gt;Node5</title>
<g id="a_edge4_Node000003_Node000005"><a xlink:title=" ">
<path fill="none" stroke="#63b8ff" d="M216.97,-48.32C227.84,-38.87 241.44,-27.06 250.52,-19.17"/>
<polygon fill="#63b8ff" stroke="#63b8ff" points="214.55,-45.78 209.3,-54.98 219.15,-51.07 214.55,-45.78"/>
</a>
</g>
</g>
</g>
</svg>
