<?xml version="1.0" encoding="UTF-8" standalone="no"?>
<!DOCTYPE svg PUBLIC "-//W3C//DTD SVG 1.1//EN"
 "http://www.w3.org/Graphics/SVG/1.1/DTD/svg11.dtd">
<!-- Generated by graphviz version 2.43.0 (0)
 -->
<!-- Title: buffer_manager.cpp Pages: 1 -->
<svg width="193pt" height="192pt"
 viewBox="0.00 0.00 192.50 192.00" xmlns="http://www.w3.org/2000/svg" xmlns:xlink="http://www.w3.org/1999/xlink">
<g id="graph0" class="graph" transform="scale(1 1) rotate(0) translate(4 188)">
<title>buffer_manager.cpp</title>
<!-- Node1 -->
<g id="Node000001" class="node">
<title>Node1</title>
<g id="a_Node000001"><a xlink:title="Circular buffer management for storing SensorPacket data.">
<polygon fill="#999999" stroke="#666666" points="184.5,-184 71.5,-184 71.5,-165 184.5,-165 184.5,-184"/>
<text text-anchor="middle" x="128" y="-172" font-family="Helvetica,sans-Serif" font-size="10.00">buffer_manager.cpp</text>
</a>
</g>
</g>
<!-- Node2 -->
<g id="Node000002" class="node">
<title>Node2</title>
<g id="a_Node000002"><a xlink:href="buffer__manager_8h.html" target="_top" xlink:title="Circular buffer interface for storing SensorPacket data.">
<polygon fill="white" stroke="#666666" points="179,-129 77,-129 77,-110 179,-110 179,-129"/>
<text text-anchor="middle" x="128" y="-117" font-family="Helvetica,sans-Serif" font-size="10.00">buffer_manager.h</text>
</a>
</g>
</g>
<!-- Node1&#45;&gt;Node2 -->
<g id="edge1_Node000001_Node000002" class="edge">
<title>Node1&#45;&gt;Node2</title>
<g id="a_edge1_Node000001_Node000002"><a xlink:title=" ">
<path fill="none" stroke="#63b8ff" d="M128,-164.75C128,-157.8 128,-147.85 128,-139.13"/>
<polygon fill="#63b8ff" stroke="#63b8ff" points="131.5,-139.09 128,-129.09 124.5,-139.09 131.5,-139.09"/>
</a>
</g>
</g>
<!-- Node3 -->
<g id="Node000003" class="node">
<title>Node3</title>
<g id="a_Node000003"><a xlink:href="sensor__package__manager_8h.html" target="_top" xlink:title="Sensor packet layout and helpers for assembling SensorPacket structs.">
<polygon fill="white" stroke="#666666" points="152,-74 0,-74 0,-55 152,-55 152,-74"/>
<text text-anchor="middle" x="76" y="-62" font-family="Helvetica,sans-Serif" font-size="10.00">sensor_package_manager.h</text>
</a>
</g>
</g>
<!-- Node2&#45;&gt;Node3 -->
<g id="edge2_Node000002_Node000003" class="edge">
<title>Node2&#45;&gt;Node3</title>
<g id="a_edge2_Node000002_Node000003"><a xlink:title=" ">
<path fill="none" stroke="#63b8ff" d="M119.41,-109.75C111.84,-102.03 100.62,-90.6 91.49,-81.28"/>
<polygon fill="#63b8ff" stroke="#63b8ff" points="93.93,-78.78 84.43,-74.09 88.93,-83.68 93.93,-78.78"/>
</a>
</g>
</g>
<!-- Node4 -->
<g id="Node000004" class="node">
<title>Node4</title>
<g id="a_Node000004"><a xlink:title=" ">
<polygon fill="#e0e0e0" stroke="#999999" points="159.5,-19 96.5,-19 96.5,0 159.5,0 159.5,-19"/>
<text text-anchor="middle" x="128" y="-7" font-family="Helvetica,sans-Serif" font-size="10.00">Arduino.h</text>
</a>
</g>
</g>
<!-- Node2&#45;&gt;Node4 -->
<g id="edge4_Node000002_Node000004" class="edge">
<title>Node2&#45;&gt;Node4</title>
<g id="a_edge4_Node000002_Node000004"><a xlink:title=" ">
<path fill="none" stroke="#63b8ff" d="M137.02,-109.96C145.07,-101.66 156.29,-88.25 161,-74 166.63,-56.97 155.41,-38.95 144.56,-26.48"/>
<polygon fill="#63b8ff" stroke="#63b8ff" points="147.06,-24.03 137.66,-19.14 141.97,-28.83 147.06,-24.03"/>
</a>
</g>
</g>
<!-- Node3&#45;&gt;Node4 -->
<g id="edge3_Node000003_Node000004" class="edge">
<title>Node3&#45;&gt;Node4</title>
<g id="a_edge3_Node000003_Node000004"><a xlink:title=" ">
<path fill="none" stroke="#63b8ff" d="M84.59,-54.75C92.16,-47.03 103.38,-35.6 112.51,-26.28"/>
<polygon fill="#63b8ff" stroke="#63b8ff" points="115.07,-28.68 119.57,-19.09 110.07,-23.78 115.07,-28.68"/>
</a>
</g>
</g>
</g>
</svg>
