<?xml version="1.0" encoding="UTF-8" standalone="no"?>
<!DOCTYPE svg PUBLIC "-//W3C//DTD SVG 1.1//EN"
 "http://www.w3.org/Graphics/SVG/1.1/DTD/svg11.dtd">
<!-- Generated by graphviz version 2.43.0 (0)
 -->
<!-- Title: addPacketToBuffer Pages: 1 -->
<svg width="251pt" height="101pt"
 viewBox="0.00 0.00 251.00 101.00" xmlns="http://www.w3.org/2000/svg" xmlns:xlink="http://www.w3.org/1999/xlink">
<g id="graph0" class="graph" transform="scale(1 1) rotate(0) translate(4 97)">
<title>addPacketToBuffer</title>
<!-- Node1 -->
<g id="Node000001" class="node">
<title>Node1</title>
<g id="a_Node000001"><a xlink:title="Add a packet to the circular buffer.">
<polygon fill="#999999" stroke="#666666" points="106,-56 0,-56 0,-37 106,-37 106,-56"/>
<text text-anchor="middle" x="53" y="-44" font-family="Helvetica,sans-Serif" font-size="10.00">addPacketToBuffer</text>
</a>
</g>
</g>
<!-- Node2 -->
<g id="Node000002" class="node">
<title>Node2</title>
<g id="a_Node000002"><a xlink:href="buffer__manager_8cpp.html#a8b1ea34da4293c06ad58cf934128b3ea" target="_top" xlink:title="Drop the oldest packet from the circular buffer.">
<polygon fill="white" stroke="#666666" points="243,-93 142,-93 142,-74 243,-74 243,-93"/>
<text text-anchor="middle" x="192.5" y="-81" font-family="Helvetica,sans-Serif" font-size="10.00">dropOldestPacket</text>
</a>
</g>
</g>
<!-- Node1&#45;&gt;Node2 -->
<g id="edge1_Node000001_Node000002" class="edge">
<title>Node1&#45;&gt;Node2</title>
<g id="a_edge1_Node000001_Node000002"><a xlink:title=" ">
<path fill="none" stroke="#63b8ff" d="M89.41,-56.03C106.6,-60.65 127.45,-66.27 145.82,-71.21"/>
<polygon fill="#63b8ff" stroke="#63b8ff" points="145.17,-74.66 155.73,-73.88 146.99,-67.9 145.17,-74.66"/>
</a>
</g>
</g>
<!-- Node3 -->
<g id="Node000003" class="node">
<title>Node3</title>
<g id="a_Node000003"><a xlink:href="buffer__manager_8cpp.html#aa4be9e04bfc0423517ed15c1fc6f63db" target="_top" xlink:title="Clear the entire circular buffer.">
<polygon fill="white" stroke="#666666" points="227,-56 158,-56 158,-37 227,-37 227,-56"/>
<text text-anchor="middle" x="192.5" y="-44" font-family="Helvetica,sans-Serif" font-size="10.00">flushBuffer</text>
</a>
</g>
</g>
<!-- Node1&#45;&gt;Node3 -->
<g id="edge2_Node000001_Node000003" class="edge">
<title>Node1&#45;&gt;Node3</title>
<g id="a_edge2_Node000001_Node000003"><a xlink:title=" ">
<path fill="none" stroke="#63b8ff" d="M106.38,-46.5C120.03,-46.5 134.6,-46.5 147.75,-46.5"/>
<polygon fill="#63b8ff" stroke="#63b8ff" points="147.95,-50 157.95,-46.5 147.95,-43 147.95,-50"/>
</a>
</g>
</g>
<!-- Node4 -->
<g id="Node000004" class="node">
<title>Node4</title>
<g id="a_Node000004"><a xlink:href="buffer__manager_8cpp.html#af1a458a3d86b060eb32cd856911eb4db" target="_top" xlink:title="Validate the integrity of the buffer state.">
<polygon fill="white" stroke="#666666" points="231.5,-19 153.5,-19 153.5,0 231.5,0 231.5,-19"/>
<text text-anchor="middle" x="192.5" y="-7" font-family="Helvetica,sans-Serif" font-size="10.00">isBufferValid</text>
</a>
</g>
</g>
<!-- Node1&#45;&gt;Node4 -->
<g id="edge3_Node000001_Node000004" class="edge">
<title>Node1&#45;&gt;Node4</title>
<g id="a_edge3_Node000001_Node000004"><a xlink:title=" ">
<path fill="none" stroke="#63b8ff" d="M89.41,-36.97C106.6,-32.35 127.45,-26.73 145.82,-21.79"/>
<polygon fill="#63b8ff" stroke="#63b8ff" points="146.99,-25.1 155.73,-19.12 145.17,-18.34 146.99,-25.1"/>
</a>
</g>
</g>
</g>
</svg>
