<?xml version="1.0" encoding="UTF-8" standalone="no"?>
<!DOCTYPE svg PUBLIC "-//W3C//DTD SVG 1.1//EN"
 "http://www.w3.org/Graphics/SVG/1.1/DTD/svg11.dtd">
<!-- Generated by graphviz version 2.43.0 (0)
 -->
<!-- Title: DHT_handler.cpp Pages: 1 -->
<svg width="262pt" height="192pt"
 viewBox="0.00 0.00 262.00 192.00" xmlns="http://www.w3.org/2000/svg" xmlns:xlink="http://www.w3.org/1999/xlink">
<g id="graph0" class="graph" transform="scale(1 1) rotate(0) translate(4 188)">
<title>DHT_handler.cpp</title>
<!-- Node1 -->
<g id="Node000001" class="node">
<title>Node1</title>
<g id="a_Node000001"><a xlink:title="Handles reading temperature and humidity from a DHT sensor.">
<polygon fill="#999999" stroke="#666666" points="175.5,-184 76.5,-184 76.5,-165 175.5,-165 175.5,-184"/>
<text text-anchor="middle" x="126" y="-172" font-family="Helvetica,sans-Serif" font-size="10.00">DHT_handler.cpp</text>
</a>
</g>
</g>
<!-- Node2 -->
<g id="Node000002" class="node">
<title>Node2</title>
<g id="a_Node000002"><a xlink:href="DHT__handler_8h.html" target="_top" xlink:title="Header for DHT sensor handling on the sensor unit.">
<polygon fill="white" stroke="#666666" points="126,-129 38,-129 38,-110 126,-110 126,-129"/>
<text text-anchor="middle" x="82" y="-117" font-family="Helvetica,sans-Serif" font-size="10.00">DHT_handler.h</text>
</a>
</g>
</g>
<!-- Node1&#45;&gt;Node2 -->
<g id="edge1_Node000001_Node000002" class="edge">
<title>Node1&#45;&gt;Node2</title>
<g id="a_edge1_Node000001_Node000002"><a xlink:title=" ">
<path fill="none" stroke="#63b8ff" d="M118.73,-164.75C112.46,-157.18 103.21,-146.05 95.57,-136.84"/>
<polygon fill="#63b8ff" stroke="#63b8ff" points="98.21,-134.55 89.13,-129.09 92.83,-139.02 98.21,-134.55"/>
</a>
</g>
</g>
<!-- Node4 -->
<g id="Node000004" class="node">
<title>Node4</title>
<g id="a_Node000004"><a xlink:href="sensor__package__manager_8h.html" target="_top" xlink:title="Sensor packet layout and helpers for assembling SensorPacket structs.">
<polygon fill="white" stroke="#666666" points="254,-74 102,-74 102,-55 254,-55 254,-74"/>
<text text-anchor="middle" x="178" y="-62" font-family="Helvetica,sans-Serif" font-size="10.00">sensor_package_manager.h</text>
</a>
</g>
</g>
<!-- Node1&#45;&gt;Node4 -->
<g id="edge6_Node000001_Node000004" class="edge">
<title>Node1&#45;&gt;Node4</title>
<g id="a_edge6_Node000001_Node000004"><a xlink:title=" ">
<path fill="none" stroke="#63b8ff" d="M130.26,-164.66C138.79,-146.93 158.15,-106.73 169.42,-83.32"/>
<polygon fill="#63b8ff" stroke="#63b8ff" points="172.65,-84.69 173.83,-74.16 166.34,-81.65 172.65,-84.69"/>
</a>
</g>
</g>
<!-- Node3 -->
<g id="Node000003" class="node">
<title>Node3</title>
<g id="a_Node000003"><a xlink:title=" ">
<polygon fill="#e0e0e0" stroke="#999999" points="46,-74 0,-74 0,-55 46,-55 46,-74"/>
<text text-anchor="middle" x="23" y="-62" font-family="Helvetica,sans-Serif" font-size="10.00">DHT.h</text>
</a>
</g>
</g>
<!-- Node2&#45;&gt;Node3 -->
<g id="edge2_Node000002_Node000003" class="edge">
<title>Node2&#45;&gt;Node3</title>
<g id="a_edge2_Node000002_Node000003"><a xlink:title=" ">
<path fill="none" stroke="#63b8ff" d="M72.52,-109.98C63.8,-102.15 50.66,-90.34 40.1,-80.86"/>
<polygon fill="#63b8ff" stroke="#63b8ff" points="42.43,-78.25 32.65,-74.17 37.75,-83.46 42.43,-78.25"/>
</a>
</g>
</g>
<!-- Node2&#45;&gt;Node4 -->
<g id="edge3_Node000002_Node000004" class="edge">
<title>Node2&#45;&gt;Node4</title>
<g id="a_edge3_Node000002_Node000004"><a xlink:title=" ">
<path fill="none" stroke="#63b8ff" d="M97.42,-109.98C112.45,-101.69 135.54,-88.94 153.16,-79.22"/>
<polygon fill="#63b8ff" stroke="#63b8ff" points="155.23,-82.07 162.3,-74.17 151.85,-75.94 155.23,-82.07"/>
</a>
</g>
</g>
<!-- Node5 -->
<g id="Node000005" class="node">
<title>Node5</title>
<g id="a_Node000005"><a xlink:title=" ">
<polygon fill="#e0e0e0" stroke="#999999" points="157.5,-19 94.5,-19 94.5,0 157.5,0 157.5,-19"/>
<text text-anchor="middle" x="126" y="-7" font-family="Helvetica,sans-Serif" font-size="10.00">Arduino.h</text>
</a>
</g>
</g>
<!-- Node2&#45;&gt;Node5 -->
<g id="edge5_Node000002_Node000005" class="edge">
<title>Node2&#45;&gt;Node5</title>
<g id="a_edge5_Node000002_Node000005"><a xlink:title=" ">
<path fill="none" stroke="#63b8ff" d="M82.24,-109.93C82.85,-97.38 85.07,-73.51 93,-55 97.34,-44.87 104.4,-34.9 110.89,-26.97"/>
<polygon fill="#63b8ff" stroke="#63b8ff" points="113.66,-29.11 117.53,-19.25 108.35,-24.54 113.66,-29.11"/>
</a>
</g>
</g>
<!-- Node4&#45;&gt;Node5 -->
<g id="edge4_Node000004_Node000005" class="edge">
<title>Node4&#45;&gt;Node5</title>
<g id="a_edge4_Node000004_Node000005"><a xlink:title=" ">
<path fill="none" stroke="#63b8ff" d="M169.41,-54.75C161.84,-47.03 150.62,-35.6 141.49,-26.28"/>
<polygon fill="#63b8ff" stroke="#63b8ff" points="143.93,-23.78 134.43,-19.09 138.93,-28.68 143.93,-23.78"/>
</a>
</g>
</g>
</g>
</svg>
