<?xml version="1.0" encoding="UTF-8" standalone="no"?>
<!DOCTYPE svg PUBLIC "-//W3C//DTD SVG 1.1//EN"
 "http://www.w3.org/Graphics/SVG/1.1/DTD/svg11.dtd">
<!-- Generated by graphviz version 2.43.0 (0)
 -->
<!-- Title: DHT_handler.h Pages: 1 -->
<svg width="509pt" height="137pt"
 viewBox="0.00 0.00 509.00 137.00" xmlns="http://www.w3.org/2000/svg" xmlns:xlink="http://www.w3.org/1999/xlink">
<g id="graph0" class="graph" transform="scale(1 1) rotate(0) translate(4 133)">
<title>DHT_handler.h</title>
<!-- Node1 -->
<g id="Node000001" class="node">
<title>Node1</title>
<g id="a_Node000001"><a xlink:title="Header for DHT sensor handling on the sensor unit.">
<polygon fill="#999999" stroke="#666666" points="242.5,-129 154.5,-129 154.5,-110 242.5,-110 242.5,-129"/>
<text text-anchor="middle" x="198.5" y="-117" font-family="Helvetica,sans-Serif" font-size="10.00">DHT_handler.h</text>
</a>
</g>
</g>
<!-- Node2 -->
<g id="Node000002" class="node">
<title>Node2</title>
<g id="a_Node000002"><a xlink:href="DHT__handler_8cpp.html" target="_top" xlink:title="Handles reading temperature and humidity from a DHT sensor.">
<polygon fill="white" stroke="#666666" points="99,-74 0,-74 0,-55 99,-55 99,-74"/>
<text text-anchor="middle" x="49.5" y="-62" font-family="Helvetica,sans-Serif" font-size="10.00">DHT_handler.cpp</text>
</a>
</g>
</g>
<!-- Node1&#45;&gt;Node2 -->
<g id="edge1_Node000001_Node000002" class="edge">
<title>Node1&#45;&gt;Node2</title>
<g id="a_edge1_Node000001_Node000002"><a xlink:title=" ">
<path fill="none" stroke="#63b8ff" d="M164.91,-106.55C137.24,-96.71 98.66,-82.98 73.88,-74.17"/>
<polygon fill="#63b8ff" stroke="#63b8ff" points="163.97,-109.93 174.56,-109.98 166.31,-103.34 163.97,-109.93"/>
</a>
</g>
</g>
<!-- Node3 -->
<g id="Node000003" class="node">
<title>Node3</title>
<g id="a_Node000003"><a xlink:href="sensor__package__manager_8cpp.html" target="_top" xlink:title="Manages sensor data and assembly of SensorPacket structures.">
<polygon fill="white" stroke="#666666" points="280,-74 117,-74 117,-55 280,-55 280,-74"/>
<text text-anchor="middle" x="198.5" y="-62" font-family="Helvetica,sans-Serif" font-size="10.00">sensor_package_manager.cpp</text>
</a>
</g>
</g>
<!-- Node1&#45;&gt;Node3 -->
<g id="edge2_Node000001_Node000003" class="edge">
<title>Node1&#45;&gt;Node3</title>
<g id="a_edge2_Node000001_Node000003"><a xlink:title=" ">
<path fill="none" stroke="#63b8ff" d="M198.5,-99.66C198.5,-90.93 198.5,-80.99 198.5,-74.09"/>
<polygon fill="#63b8ff" stroke="#63b8ff" points="195,-99.75 198.5,-109.75 202,-99.75 195,-99.75"/>
</a>
</g>
</g>
<!-- Node4 -->
<g id="Node000004" class="node">
<title>Node4</title>
<g id="a_Node000004"><a xlink:href="sensor__state__manager_8h.html" target="_top" xlink:title="Sensor unit state machine API and documentation.">
<polygon fill="white" stroke="#666666" points="434.5,-74 298.5,-74 298.5,-55 434.5,-55 434.5,-74"/>
<text text-anchor="middle" x="366.5" y="-62" font-family="Helvetica,sans-Serif" font-size="10.00">sensor_state_manager.h</text>
</a>
</g>
</g>
<!-- Node1&#45;&gt;Node4 -->
<g id="edge3_Node000001_Node000004" class="edge">
<title>Node1&#45;&gt;Node4</title>
<g id="a_edge3_Node000001_Node000004"><a xlink:title=" ">
<path fill="none" stroke="#63b8ff" d="M235.18,-106.93C266.56,-97.03 311.01,-83.01 339.3,-74.08"/>
<polygon fill="#63b8ff" stroke="#63b8ff" points="233.98,-103.64 225.49,-109.98 236.08,-110.31 233.98,-103.64"/>
</a>
</g>
</g>
<!-- Node5 -->
<g id="Node000005" class="node">
<title>Node5</title>
<g id="a_Node000005"><a xlink:href="src__package__arduino_2src_2main_8cpp.html" target="_top" xlink:title="Main entry point for the sensor firmware.">
<polygon fill="white" stroke="#666666" points="335.5,-19 273.5,-19 273.5,0 335.5,0 335.5,-19"/>
<text text-anchor="middle" x="304.5" y="-7" font-family="Helvetica,sans-Serif" font-size="10.00">main.cpp</text>
</a>
</g>
</g>
<!-- Node4&#45;&gt;Node5 -->
<g id="edge4_Node000004_Node000005" class="edge">
<title>Node4&#45;&gt;Node5</title>
<g id="a_edge4_Node000004_Node000005"><a xlink:title=" ">
<path fill="none" stroke="#63b8ff" d="M348.75,-48.32C337.69,-38.87 323.87,-27.06 314.64,-19.17"/>
<polygon fill="#63b8ff" stroke="#63b8ff" points="346.66,-51.15 356.54,-54.98 351.21,-45.83 346.66,-51.15"/>
</a>
</g>
</g>
<!-- Node6 -->
<g id="Node000006" class="node">
<title>Node6</title>
<g id="a_Node000006"><a xlink:href="sensor__state__manager_8cpp.html" target="_top" xlink:title="Manages the state machine of the sensor unit for packet creation, buffering, and BLE transfer.">
<polygon fill="white" stroke="#666666" points="501,-19 354,-19 354,0 501,0 501,-19"/>
<text text-anchor="middle" x="427.5" y="-7" font-family="Helvetica,sans-Serif" font-size="10.00">sensor_state_manager.cpp</text>
</a>
</g>
</g>
<!-- Node4&#45;&gt;Node6 -->
<g id="edge5_Node000004_Node000006" class="edge">
<title>Node4&#45;&gt;Node6</title>
<g id="a_edge5_Node000004_Node000006"><a xlink:title=" ">
<path fill="none" stroke="#63b8ff" d="M383.97,-48.32C394.84,-38.87 408.44,-27.06 417.52,-19.17"/>
<polygon fill="#63b8ff" stroke="#63b8ff" points="381.55,-45.78 376.3,-54.98 386.15,-51.07 381.55,-45.78"/>
</a>
</g>
</g>
</g>
</svg>
