<?xml version="1.0" encoding="UTF-8" standalone="no"?>
<!DOCTYPE svg PUBLIC "-//W3C//DTD SVG 1.1//EN"
 "http://www.w3.org/Graphics/SVG/1.1/DTD/svg11.dtd">
<!-- Generated by graphviz version 2.43.0 (0)
 -->
<!-- Title: DHT_handler.h Pages: 1 -->
<svg width="236pt" height="137pt"
 viewBox="0.00 0.00 236.37 137.00" xmlns="http://www.w3.org/2000/svg" xmlns:xlink="http://www.w3.org/1999/xlink">
<g id="graph0" class="graph" transform="scale(1 1) rotate(0) translate(4 133)">
<title>DHT_handler.h</title>
<!-- Node1 -->
<g id="Node000001" class="node">
<title>Node1</title>
<g id="a_Node000001"><a xlink:title="Header for DHT sensor handling on the sensor unit.">
<polygon fill="#999999" stroke="#666666" points="184,-129 96,-129 96,-110 184,-110 184,-129"/>
<text text-anchor="middle" x="140" y="-117" font-family="Helvetica,sans-Serif" font-size="10.00">DHT_handler.h</text>
</a>
</g>
</g>
<!-- Node2 -->
<g id="Node000002" class="node">
<title>Node2</title>
<g id="a_Node000002"><a xlink:title=" ">
<polygon fill="#e0e0e0" stroke="#999999" points="46,-74 0,-74 0,-55 46,-55 46,-74"/>
<text text-anchor="middle" x="23" y="-62" font-family="Helvetica,sans-Serif" font-size="10.00">DHT.h</text>
</a>
</g>
</g>
<!-- Node1&#45;&gt;Node2 -->
<g id="edge1_Node000001_Node000002" class="edge">
<title>Node1&#45;&gt;Node2</title>
<g id="a_edge1_Node000001_Node000002"><a xlink:title=" ">
<path fill="none" stroke="#63b8ff" d="M121.2,-109.98C102.38,-101.46 73.18,-88.23 51.5,-78.41"/>
<polygon fill="#63b8ff" stroke="#63b8ff" points="52.69,-75.11 42.14,-74.17 49.8,-81.48 52.69,-75.11"/>
</a>
</g>
</g>
<!-- Node3 -->
<g id="Node000003" class="node">
<title>Node3</title>
<g id="a_Node000003"><a xlink:href="sensor__package__manager_8h.html" target="_top" xlink:title="Sensor packet layout and helpers for assembling SensorPacket structs.">
<polygon fill="white" stroke="#666666" points="216,-74 64,-74 64,-55 216,-55 216,-74"/>
<text text-anchor="middle" x="140" y="-62" font-family="Helvetica,sans-Serif" font-size="10.00">sensor_package_manager.h</text>
</a>
</g>
</g>
<!-- Node1&#45;&gt;Node3 -->
<g id="edge2_Node000001_Node000003" class="edge">
<title>Node1&#45;&gt;Node3</title>
<g id="a_edge2_Node000001_Node000003"><a xlink:title=" ">
<path fill="none" stroke="#63b8ff" d="M140,-109.75C140,-102.8 140,-92.85 140,-84.13"/>
<polygon fill="#63b8ff" stroke="#63b8ff" points="143.5,-84.09 140,-74.09 136.5,-84.09 143.5,-84.09"/>
</a>
</g>
</g>
<!-- Node4 -->
<g id="Node000004" class="node">
<title>Node4</title>
<g id="a_Node000004"><a xlink:title=" ">
<polygon fill="#e0e0e0" stroke="#999999" points="223.5,-19 160.5,-19 160.5,0 223.5,0 223.5,-19"/>
<text text-anchor="middle" x="192" y="-7" font-family="Helvetica,sans-Serif" font-size="10.00">Arduino.h</text>
</a>
</g>
</g>
<!-- Node1&#45;&gt;Node4 -->
<g id="edge4_Node000001_Node000004" class="edge">
<title>Node1&#45;&gt;Node4</title>
<g id="a_edge4_Node000001_Node000004"><a xlink:title=" ">
<path fill="none" stroke="#63b8ff" d="M174.22,-109.93C192.71,-103.37 213.96,-92.24 225,-74 234.48,-58.33 222.1,-39.65 209.9,-26.63"/>
<polygon fill="#63b8ff" stroke="#63b8ff" points="212.08,-23.87 202.51,-19.32 207.16,-28.84 212.08,-23.87"/>
</a>
</g>
</g>
<!-- Node3&#45;&gt;Node4 -->
<g id="edge3_Node000003_Node000004" class="edge">
<title>Node3&#45;&gt;Node4</title>
<g id="a_edge3_Node000003_Node000004"><a xlink:title=" ">
<path fill="none" stroke="#63b8ff" d="M148.59,-54.75C156.16,-47.03 167.38,-35.6 176.51,-26.28"/>
<polygon fill="#63b8ff" stroke="#63b8ff" points="179.07,-28.68 183.57,-19.09 174.07,-23.78 179.07,-28.68"/>
</a>
</g>
</g>
</g>
</svg>
