<?xml version="1.0" encoding="UTF-8" standalone="no"?>
<!DOCTYPE svg PUBLIC "-//W3C//DTD SVG 1.1//EN"
 "http://www.w3.org/Graphics/SVG/1.1/DTD/svg11.dtd">
<!-- Generated by graphviz version 2.43.0 (0)
 -->
<!-- Title: httptransmission_task.h Pages: 1 -->
<svg width="234pt" height="82pt"
 viewBox="0.00 0.00 234.00 82.00" xmlns="http://www.w3.org/2000/svg" xmlns:xlink="http://www.w3.org/1999/xlink">
<g id="graph0" class="graph" transform="scale(1 1) rotate(0) translate(4 78)">
<title>httptransmission_task.h</title>
<!-- Node1 -->
<g id="Node000001" class="node">
<title>Node1</title>
<g id="a_Node000001"><a xlink:title="Header for the HTTP transmission FreeRTOS task.">
<polygon fill="#999999" stroke="#666666" points="201,-74 67,-74 67,-55 201,-55 201,-74"/>
<text text-anchor="middle" x="134" y="-62" font-family="Helvetica,sans-Serif" font-size="10.00">httptransmission_task.h</text>
</a>
</g>
</g>
<!-- Node2 -->
<g id="Node000002" class="node">
<title>Node2</title>
<g id="a_Node000002"><a xlink:href="httptransmission__task_8cpp.html" target="_top" xlink:title="FreeRTOS task for transmitting aggregated sensor data to a backend server via HTTP/HTTPS.">
<polygon fill="white" stroke="#666666" points="146,-19 0,-19 0,0 146,0 146,-19"/>
<text text-anchor="middle" x="73" y="-7" font-family="Helvetica,sans-Serif" font-size="10.00">httptransmission_task.cpp</text>
</a>
</g>
</g>
<!-- Node1&#45;&gt;Node2 -->
<g id="edge1_Node000001_Node000002" class="edge">
<title>Node1&#45;&gt;Node2</title>
<g id="a_edge1_Node000001_Node000002"><a xlink:title=" ">
<path fill="none" stroke="#63b8ff" d="M116.53,-48.32C105.66,-38.87 92.06,-27.06 82.98,-19.17"/>
<polygon fill="#63b8ff" stroke="#63b8ff" points="114.35,-51.07 124.2,-54.98 118.95,-45.78 114.35,-51.07"/>
</a>
</g>
</g>
<!-- Node3 -->
<g id="Node000003" class="node">
<title>Node3</title>
<g id="a_Node000003"><a xlink:href="src__broker__esp32_2src_2main_8cpp.html" target="_top" xlink:title="Main entry point for the ESP32 sensor aggregation system.">
<polygon fill="white" stroke="#666666" points="226,-19 164,-19 164,0 226,0 226,-19"/>
<text text-anchor="middle" x="195" y="-7" font-family="Helvetica,sans-Serif" font-size="10.00">main.cpp</text>
</a>
</g>
</g>
<!-- Node1&#45;&gt;Node3 -->
<g id="edge2_Node000001_Node000003" class="edge">
<title>Node1&#45;&gt;Node3</title>
<g id="a_edge2_Node000001_Node000003"><a xlink:title=" ">
<path fill="none" stroke="#63b8ff" d="M151.47,-48.32C162.34,-38.87 175.94,-27.06 185.02,-19.17"/>
<polygon fill="#63b8ff" stroke="#63b8ff" points="149.05,-45.78 143.8,-54.98 153.65,-51.07 149.05,-45.78"/>
</a>
</g>
</g>
</g>
</svg>
