<?xml version="1.0" encoding="UTF-8" standalone="no"?>
<!DOCTYPE svg PUBLIC "-//W3C//DTD SVG 1.1//EN"
 "http://www.w3.org/Graphics/SVG/1.1/DTD/svg11.dtd">
<!-- Generated by graphviz version 2.43.0 (0)
 -->
<!-- Title: httptransmission_task.cpp Pages: 1 -->
<svg width="834pt" height="148pt"
 viewBox="0.00 0.00 834.00 148.00" xmlns="http://www.w3.org/2000/svg" xmlns:xlink="http://www.w3.org/1999/xlink">
<g id="graph0" class="graph" transform="scale(1 1) rotate(0) translate(4 144)">
<title>httptransmission_task.cpp</title>
<!-- Node1 -->
<g id="Node000001" class="node">
<title>Node1</title>
<g id="a_Node000001"><a xlink:title="FreeRTOS task for transmitting aggregated sensor data to a backend server via HTTP/HTTPS.">
<polygon fill="#999999" stroke="#666666" points="515,-140 369,-140 369,-121 515,-121 515,-140"/>
<text text-anchor="middle" x="442" y="-128" font-family="Helvetica,sans-Serif" font-size="10.00">httptransmission_task.cpp</text>
</a>
</g>
</g>
<!-- Node2 -->
<g id="Node000002" class="node">
<title>Node2</title>
<g id="a_Node000002"><a xlink:href="httptransmission__task_8h.html" target="_top" xlink:title="Header for the HTTP transmission FreeRTOS task.">
<polygon fill="white" stroke="#666666" points="128,-85 0,-85 0,-55 128,-55 128,-85"/>
<text text-anchor="start" x="8" y="-73" font-family="Helvetica,sans-Serif" font-size="10.00">tasks/httptransmission</text>
<text text-anchor="middle" x="64" y="-62" font-family="Helvetica,sans-Serif" font-size="10.00">_task.h</text>
</a>
</g>
</g>
<!-- Node1&#45;&gt;Node2 -->
<g id="edge1_Node000001_Node000002" class="edge">
<title>Node1&#45;&gt;Node2</title>
<g id="a_edge1_Node000001_Node000002"><a xlink:title=" ">
<path fill="none" stroke="#63b8ff" d="M377.9,-120.99C318.33,-112.9 226.88,-99.98 138.04,-85.13"/>
<polygon fill="#63b8ff" stroke="#63b8ff" points="138.51,-81.66 128.06,-83.45 137.35,-88.56 138.51,-81.66"/>
</a>
</g>
</g>
<!-- Node4 -->
<g id="Node000004" class="node">
<title>Node4</title>
<g id="a_Node000004"><a xlink:href="sensor__data_8h.html" target="_top" xlink:title="Header for parsing, validating, and logging sensor data from BLE devices.">
<polygon fill="white" stroke="#666666" points="231.5,-79.5 146.5,-79.5 146.5,-60.5 231.5,-60.5 231.5,-79.5"/>
<text text-anchor="middle" x="189" y="-67.5" font-family="Helvetica,sans-Serif" font-size="10.00">sensor_data.h</text>
</a>
</g>
</g>
<!-- Node1&#45;&gt;Node4 -->
<g id="edge3_Node000001_Node000004" class="edge">
<title>Node1&#45;&gt;Node4</title>
<g id="a_edge3_Node000001_Node000004"><a xlink:title=" ">
<path fill="none" stroke="#63b8ff" d="M400.68,-120.92C359.96,-112.33 296.02,-98.49 241,-85 237.33,-84.1 233.53,-83.14 229.72,-82.15"/>
<polygon fill="#63b8ff" stroke="#63b8ff" points="230.3,-78.68 219.74,-79.52 228.52,-85.45 230.3,-78.68"/>
</a>
</g>
</g>
<!-- Node5 -->
<g id="Node000005" class="node">
<title>Node5</title>
<g id="a_Node000005"><a xlink:href="threadsafe__serial_8h.html" target="_top" xlink:title="Thread&#45;safe Serial printing utilities for Arduino with FreeRTOS.">
<polygon fill="white" stroke="#666666" points="384,-79.5 250,-79.5 250,-60.5 384,-60.5 384,-79.5"/>
<text text-anchor="middle" x="317" y="-67.5" font-family="Helvetica,sans-Serif" font-size="10.00">utils/threadsafe_serial.h</text>
</a>
</g>
</g>
<!-- Node1&#45;&gt;Node5 -->
<g id="edge5_Node000001_Node000005" class="edge">
<title>Node1&#45;&gt;Node5</title>
<g id="a_edge5_Node000001_Node000005"><a xlink:title=" ">
<path fill="none" stroke="#63b8ff" d="M423.82,-120.99C402.99,-111.25 368.63,-95.16 344.52,-83.88"/>
<polygon fill="#63b8ff" stroke="#63b8ff" points="345.74,-80.59 335.2,-79.52 342.77,-86.93 345.74,-80.59"/>
</a>
</g>
</g>
<!-- Node8 -->
<g id="Node000008" class="node">
<title>Node8</title>
<g id="a_Node000008"><a xlink:title=" ">
<polygon fill="#e0e0e0" stroke="#999999" points="482,-79.5 402,-79.5 402,-60.5 482,-60.5 482,-79.5"/>
<text text-anchor="middle" x="442" y="-67.5" font-family="Helvetica,sans-Serif" font-size="10.00">HTTPClient.h</text>
</a>
</g>
</g>
<!-- Node1&#45;&gt;Node8 -->
<g id="edge9_Node000001_Node000008" class="edge">
<title>Node1&#45;&gt;Node8</title>
<g id="a_edge9_Node000001_Node000008"><a xlink:title=" ">
<path fill="none" stroke="#63b8ff" d="M442,-120.87C442,-112.75 442,-100.31 442,-89.89"/>
<polygon fill="#63b8ff" stroke="#63b8ff" points="445.5,-89.67 442,-79.67 438.5,-89.67 445.5,-89.67"/>
</a>
</g>
</g>
<!-- Node9 -->
<g id="Node000009" class="node">
<title>Node9</title>
<g id="a_Node000009"><a xlink:title=" ">
<polygon fill="#e0e0e0" stroke="#999999" points="547.5,-79.5 500.5,-79.5 500.5,-60.5 547.5,-60.5 547.5,-79.5"/>
<text text-anchor="middle" x="524" y="-67.5" font-family="Helvetica,sans-Serif" font-size="10.00">WiFi.h</text>
</a>
</g>
</g>
<!-- Node1&#45;&gt;Node9 -->
<g id="edge10_Node000001_Node000009" class="edge">
<title>Node1&#45;&gt;Node9</title>
<g id="a_edge10_Node000001_Node000009"><a xlink:title=" ">
<path fill="none" stroke="#63b8ff" d="M454.1,-120.87C467.06,-111.62 487.86,-96.78 503.4,-85.69"/>
<polygon fill="#63b8ff" stroke="#63b8ff" points="505.74,-88.32 511.85,-79.67 501.68,-82.63 505.74,-88.32"/>
</a>
</g>
</g>
<!-- Node10 -->
<g id="Node000010" class="node">
<title>Node10</title>
<g id="a_Node000010"><a xlink:title=" ">
<polygon fill="#e0e0e0" stroke="#999999" points="674,-79.5 566,-79.5 566,-60.5 674,-60.5 674,-79.5"/>
<text text-anchor="middle" x="620" y="-67.5" font-family="Helvetica,sans-Serif" font-size="10.00">WiFiClientSecure.h</text>
</a>
</g>
</g>
<!-- Node1&#45;&gt;Node10 -->
<g id="edge11_Node000001_Node000010" class="edge">
<title>Node1&#45;&gt;Node10</title>
<g id="a_edge11_Node000001_Node000010"><a xlink:title=" ">
<path fill="none" stroke="#63b8ff" d="M467.88,-120.99C498.6,-110.9 549.98,-94.01 584.42,-82.69"/>
<polygon fill="#63b8ff" stroke="#63b8ff" points="585.68,-85.96 594.09,-79.52 583.49,-79.31 585.68,-85.96"/>
</a>
</g>
</g>
<!-- Node11 -->
<g id="Node000011" class="node">
<title>Node11</title>
<g id="a_Node000011"><a xlink:href="backend__server__secrets__example_8h.html" target="_top" xlink:title="Example backend server configuration and API key placeholders.">
<polygon fill="white" stroke="#666666" points="826,-85 692,-85 692,-55 826,-55 826,-85"/>
<text text-anchor="start" x="700" y="-73" font-family="Helvetica,sans-Serif" font-size="10.00">backend_server_secrets</text>
<text text-anchor="middle" x="759" y="-62" font-family="Helvetica,sans-Serif" font-size="10.00">_example.h</text>
</a>
</g>
</g>
<!-- Node1&#45;&gt;Node11 -->
<g id="edge12_Node000001_Node000011" class="edge">
<title>Node1&#45;&gt;Node11</title>
<g id="a_edge12_Node000001_Node000011"><a xlink:title=" ">
<path fill="none" stroke="#63b8ff" d="M488.09,-120.99C538.84,-111.63 621.27,-96.42 681.9,-85.23"/>
<polygon fill="#63b8ff" stroke="#63b8ff" points="682.61,-88.66 691.81,-83.4 681.34,-81.77 682.61,-88.66"/>
</a>
</g>
</g>
<!-- Node3 -->
<g id="Node000003" class="node">
<title>Node3</title>
<g id="a_Node000003"><a xlink:title=" ">
<polygon fill="#e0e0e0" stroke="#999999" points="220.5,-19 157.5,-19 157.5,0 220.5,0 220.5,-19"/>
<text text-anchor="middle" x="189" y="-7" font-family="Helvetica,sans-Serif" font-size="10.00">Arduino.h</text>
</a>
</g>
</g>
<!-- Node2&#45;&gt;Node3 -->
<g id="edge2_Node000002_Node000003" class="edge">
<title>Node2&#45;&gt;Node3</title>
<g id="a_edge2_Node000002_Node000003"><a xlink:title=" ">
<path fill="none" stroke="#63b8ff" d="M93.94,-54.99C114.42,-45.4 141.38,-32.79 161.35,-23.44"/>
<polygon fill="#63b8ff" stroke="#63b8ff" points="162.97,-26.55 170.54,-19.14 160,-20.21 162.97,-26.55"/>
</a>
</g>
</g>
<!-- Node4&#45;&gt;Node3 -->
<g id="edge4_Node000004_Node000003" class="edge">
<title>Node4&#45;&gt;Node3</title>
<g id="a_edge4_Node000004_Node000003"><a xlink:title=" ">
<path fill="none" stroke="#63b8ff" d="M189,-60.37C189,-52.25 189,-39.81 189,-29.39"/>
<polygon fill="#63b8ff" stroke="#63b8ff" points="192.5,-29.17 189,-19.17 185.5,-29.17 192.5,-29.17"/>
</a>
</g>
</g>
<!-- Node5&#45;&gt;Node3 -->
<g id="edge6_Node000005_Node000003" class="edge">
<title>Node5&#45;&gt;Node3</title>
<g id="a_edge6_Node000005_Node000003"><a xlink:title=" ">
<path fill="none" stroke="#63b8ff" d="M298.39,-60.49C276.96,-50.7 241.56,-34.52 216.85,-23.23"/>
<polygon fill="#63b8ff" stroke="#63b8ff" points="218.18,-19.99 207.63,-19.02 215.28,-26.36 218.18,-19.99"/>
</a>
</g>
</g>
<!-- Node6 -->
<g id="Node000006" class="node">
<title>Node6</title>
<g id="a_Node000006"><a xlink:title=" ">
<polygon fill="#e0e0e0" stroke="#999999" points="362.5,-19 249.5,-19 249.5,0 362.5,0 362.5,-19"/>
<text text-anchor="middle" x="306" y="-7" font-family="Helvetica,sans-Serif" font-size="10.00">freertos/FreeRTOS.h</text>
</a>
</g>
</g>
<!-- Node5&#45;&gt;Node6 -->
<g id="edge7_Node000005_Node000006" class="edge">
<title>Node5&#45;&gt;Node6</title>
<g id="a_edge7_Node000005_Node000006"><a xlink:title=" ">
<path fill="none" stroke="#63b8ff" d="M315.38,-60.37C313.83,-52.16 311.46,-39.54 309.49,-29.05"/>
<polygon fill="#63b8ff" stroke="#63b8ff" points="312.92,-28.35 307.63,-19.17 306.04,-29.64 312.92,-28.35"/>
</a>
</g>
</g>
<!-- Node7 -->
<g id="Node000007" class="node">
<title>Node7</title>
<g id="a_Node000007"><a xlink:title=" ">
<polygon fill="#e0e0e0" stroke="#999999" points="483.5,-19 380.5,-19 380.5,0 483.5,0 483.5,-19"/>
<text text-anchor="middle" x="432" y="-7" font-family="Helvetica,sans-Serif" font-size="10.00">freertos/semphr.h</text>
</a>
</g>
</g>
<!-- Node5&#45;&gt;Node7 -->
<g id="edge8_Node000005_Node000007" class="edge">
<title>Node5&#45;&gt;Node7</title>
<g id="a_edge8_Node000005_Node000007"><a xlink:title=" ">
<path fill="none" stroke="#63b8ff" d="M333.97,-60.37C352.91,-50.73 383.79,-35.03 405.83,-23.81"/>
<polygon fill="#63b8ff" stroke="#63b8ff" points="407.64,-26.82 414.96,-19.17 404.46,-20.58 407.64,-26.82"/>
</a>
</g>
</g>
</g>
</svg>
