<?xml version="1.0" encoding="UTF-8" standalone="no"?>
<!DOCTYPE svg PUBLIC "-//W3C//DTD SVG 1.1//EN"
 "http://www.w3.org/Graphics/SVG/1.1/DTD/svg11.dtd">
<!-- Generated by graphviz version 2.43.0 (0)
 -->
<!-- Title: networkStatusTask Pages: 1 -->
<svg width="217pt" height="64pt"
 viewBox="0.00 0.00 217.00 64.00" xmlns="http://www.w3.org/2000/svg" xmlns:xlink="http://www.w3.org/1999/xlink">
<g id="graph0" class="graph" transform="scale(1 1) rotate(0) translate(4 60)">
<title>networkStatusTask</title>
<!-- Node1 -->
<g id="Node000001" class="node">
<title>Node1</title>
<g id="a_Node000001"><a xlink:title="Task for monitoring Wi&#45;Fi connection and updating network events.">
<polygon fill="#999999" stroke="#666666" points="109,-37 0,-37 0,-18 109,-18 109,-37"/>
<text text-anchor="middle" x="54.5" y="-25" font-family="Helvetica,sans-Serif" font-size="10.00">networkStatusTask</text>
</a>
</g>
</g>
<!-- Node2 -->
<g id="Node000002" class="node">
<title>Node2</title>
<g id="a_Node000002"><a xlink:href="threadsafe__serial_8cpp.html#a66e2a38eee16d6d428686bf55c6d3c5f" target="_top" xlink:title="Thread&#45;safe print for C&#45;style strings.">
<polygon fill="white" stroke="#666666" points="207,-56 147,-56 147,-37 207,-37 207,-56"/>
<text text-anchor="middle" x="177" y="-44" font-family="Helvetica,sans-Serif" font-size="10.00">safePrint</text>
</a>
</g>
</g>
<!-- Node1&#45;&gt;Node2 -->
<g id="edge1_Node000001_Node000002" class="edge">
<title>Node1&#45;&gt;Node2</title>
<g id="a_edge1_Node000001_Node000002"><a xlink:title=" ">
<path fill="none" stroke="#63b8ff" d="M109.05,-35.94C118.36,-37.41 127.88,-38.91 136.72,-40.31"/>
<polygon fill="#63b8ff" stroke="#63b8ff" points="136.3,-43.78 146.72,-41.88 137.39,-36.87 136.3,-43.78"/>
</a>
</g>
</g>
<!-- Node3 -->
<g id="Node000003" class="node">
<title>Node3</title>
<g id="a_Node000003"><a xlink:href="threadsafe__serial_8cpp.html#a211c3f6179c90047a5c0c7666dcbadb1" target="_top" xlink:title="Thread&#45;safe printf&#45;style formatted print.">
<polygon fill="white" stroke="#666666" points="209,-19 145,-19 145,0 209,0 209,-19"/>
<text text-anchor="middle" x="177" y="-7" font-family="Helvetica,sans-Serif" font-size="10.00">safePrintf</text>
</a>
</g>
</g>
<!-- Node1&#45;&gt;Node3 -->
<g id="edge2_Node000001_Node000003" class="edge">
<title>Node1&#45;&gt;Node3</title>
<g id="a_edge2_Node000001_Node000003"><a xlink:title=" ">
<path fill="none" stroke="#63b8ff" d="M109.05,-19.5C117.63,-18.22 126.39,-16.91 134.62,-15.68"/>
<polygon fill="#63b8ff" stroke="#63b8ff" points="135.34,-19.11 144.72,-14.17 134.31,-12.19 135.34,-19.11"/>
</a>
</g>
</g>
</g>
</svg>
