<?xml version="1.0" encoding="UTF-8" standalone="no"?>
<!DOCTYPE svg PUBLIC "-//W3C//DTD SVG 1.1//EN"
 "http://www.w3.org/Graphics/SVG/1.1/DTD/svg11.dtd">
<!-- Generated by graphviz version 2.43.0 (0)
 -->
<!-- Title: networkstatus_task.h Pages: 1 -->
<svg width="222pt" height="82pt"
 viewBox="0.00 0.00 221.50 82.00" xmlns="http://www.w3.org/2000/svg" xmlns:xlink="http://www.w3.org/1999/xlink">
<g id="graph0" class="graph" transform="scale(1 1) rotate(0) translate(4 78)">
<title>networkstatus_task.h</title>
<!-- Node1 -->
<g id="Node000001" class="node">
<title>Node1</title>
<g id="a_Node000001"><a xlink:title="Header for the network status FreeRTOS task.">
<polygon fill="#999999" stroke="#666666" points="150,-74 28,-74 28,-55 150,-55 150,-74"/>
<text text-anchor="middle" x="89" y="-62" font-family="Helvetica,sans-Serif" font-size="10.00">networkstatus_task.h</text>
</a>
</g>
</g>
<!-- Node2 -->
<g id="Node000002" class="node">
<title>Node2</title>
<g id="a_Node000002"><a xlink:href="src__broker__esp32_2src_2main_8cpp.html" target="_top" xlink:title="Main entry point for the ESP32 sensor aggregation system.">
<polygon fill="white" stroke="#666666" points="62,-19 0,-19 0,0 62,0 62,-19"/>
<text text-anchor="middle" x="31" y="-7" font-family="Helvetica,sans-Serif" font-size="10.00">main.cpp</text>
</a>
</g>
</g>
<!-- Node1&#45;&gt;Node2 -->
<g id="edge1_Node000001_Node000002" class="edge">
<title>Node1&#45;&gt;Node2</title>
<g id="a_edge1_Node000001_Node000002"><a xlink:title=" ">
<path fill="none" stroke="#63b8ff" d="M72.09,-48.04C61.8,-38.64 49.03,-26.98 40.49,-19.17"/>
<polygon fill="#63b8ff" stroke="#63b8ff" points="69.94,-50.82 79.68,-54.98 74.66,-45.66 69.94,-50.82"/>
</a>
</g>
</g>
<!-- Node3 -->
<g id="Node000003" class="node">
<title>Node3</title>
<g id="a_Node000003"><a xlink:href="networkstatus__task_8cpp.html" target="_top" xlink:title="Task for monitoring Wi&#45;Fi connection status and managing network events.">
<polygon fill="white" stroke="#666666" points="213.5,-19 80.5,-19 80.5,0 213.5,0 213.5,-19"/>
<text text-anchor="middle" x="147" y="-7" font-family="Helvetica,sans-Serif" font-size="10.00">networkstatus_task.cpp</text>
</a>
</g>
</g>
<!-- Node1&#45;&gt;Node3 -->
<g id="edge2_Node000001_Node000003" class="edge">
<title>Node1&#45;&gt;Node3</title>
<g id="a_edge2_Node000001_Node000003"><a xlink:title=" ">
<path fill="none" stroke="#63b8ff" d="M105.91,-48.04C116.2,-38.64 128.97,-26.98 137.51,-19.17"/>
<polygon fill="#63b8ff" stroke="#63b8ff" points="103.34,-45.66 98.32,-54.98 108.06,-50.82 103.34,-45.66"/>
</a>
</g>
</g>
</g>
</svg>
