<?xml version="1.0" encoding="UTF-8" standalone="no"?>
<!DOCTYPE svg PUBLIC "-//W3C//DTD SVG 1.1//EN"
 "http://www.w3.org/Graphics/SVG/1.1/DTD/svg11.dtd">
<!-- Generated by graphviz version 2.43.0 (0)
 -->
<!-- Title: networkstatus_task.cpp Pages: 1 -->
<svg width="533pt" height="148pt"
 viewBox="0.00 0.00 532.50 148.00" xmlns="http://www.w3.org/2000/svg" xmlns:xlink="http://www.w3.org/1999/xlink">
<g id="graph0" class="graph" transform="scale(1 1) rotate(0) translate(4 144)">
<title>networkstatus_task.cpp</title>
<!-- Node1 -->
<g id="Node000001" class="node">
<title>Node1</title>
<g id="a_Node000001"><a xlink:title="Task for monitoring Wi&#45;Fi connection status and managing network events.">
<polygon fill="#999999" stroke="#666666" points="305.5,-140 172.5,-140 172.5,-121 305.5,-121 305.5,-140"/>
<text text-anchor="middle" x="239" y="-128" font-family="Helvetica,sans-Serif" font-size="10.00">networkstatus_task.cpp</text>
</a>
</g>
</g>
<!-- Node2 -->
<g id="Node000002" class="node">
<title>Node2</title>
<g id="a_Node000002"><a xlink:href="networkstatus__task_8h.html" target="_top" xlink:title="Header for the network status FreeRTOS task.">
<polygon fill="white" stroke="#666666" points="116,-85 0,-85 0,-55 116,-55 116,-85"/>
<text text-anchor="start" x="8" y="-73" font-family="Helvetica,sans-Serif" font-size="10.00">tasks/networkstatus</text>
<text text-anchor="middle" x="58" y="-62" font-family="Helvetica,sans-Serif" font-size="10.00">_task.h</text>
</a>
</g>
</g>
<!-- Node1&#45;&gt;Node2 -->
<g id="edge1_Node000001_Node000002" class="edge">
<title>Node1&#45;&gt;Node2</title>
<g id="a_edge1_Node000001_Node000002"><a xlink:title=" ">
<path fill="none" stroke="#63b8ff" d="M212.68,-120.99C186.18,-112.43 144.54,-98.97 111.14,-88.18"/>
<polygon fill="#63b8ff" stroke="#63b8ff" points="112.11,-84.81 101.52,-85.06 109.95,-91.47 112.11,-84.81"/>
</a>
</g>
</g>
<!-- Node3 -->
<g id="Node000003" class="node">
<title>Node3</title>
<g id="a_Node000003"><a xlink:title=" ">
<polygon fill="#e0e0e0" stroke="#999999" points="164.5,-19 101.5,-19 101.5,0 164.5,0 164.5,-19"/>
<text text-anchor="middle" x="133" y="-7" font-family="Helvetica,sans-Serif" font-size="10.00">Arduino.h</text>
</a>
</g>
</g>
<!-- Node1&#45;&gt;Node3 -->
<g id="edge7_Node000001_Node000003" class="edge">
<title>Node1&#45;&gt;Node3</title>
<g id="a_edge7_Node000001_Node000003"><a xlink:title=" ">
<path fill="none" stroke="#63b8ff" d="M216.35,-120.97C199.63,-113.67 177.38,-101.67 163,-85 149.09,-68.88 141.1,-45.47 136.91,-29.21"/>
<polygon fill="#63b8ff" stroke="#63b8ff" points="140.28,-28.22 134.6,-19.28 133.46,-29.81 140.28,-28.22"/>
</a>
</g>
</g>
<!-- Node4 -->
<g id="Node000004" class="node">
<title>Node4</title>
<g id="a_Node000004"><a xlink:href="threadsafe__serial_8h.html" target="_top" xlink:title="Thread&#45;safe Serial printing utilities for Arduino with FreeRTOS.">
<polygon fill="white" stroke="#666666" points="306,-79.5 172,-79.5 172,-60.5 306,-60.5 306,-79.5"/>
<text text-anchor="middle" x="239" y="-67.5" font-family="Helvetica,sans-Serif" font-size="10.00">utils/threadsafe_serial.h</text>
</a>
</g>
</g>
<!-- Node1&#45;&gt;Node4 -->
<g id="edge3_Node000001_Node000004" class="edge">
<title>Node1&#45;&gt;Node4</title>
<g id="a_edge3_Node000001_Node000004"><a xlink:title=" ">
<path fill="none" stroke="#63b8ff" d="M239,-120.87C239,-112.75 239,-100.31 239,-89.89"/>
<polygon fill="#63b8ff" stroke="#63b8ff" points="242.5,-89.67 239,-79.67 235.5,-89.67 242.5,-89.67"/>
</a>
</g>
</g>
<!-- Node7 -->
<g id="Node000007" class="node">
<title>Node7</title>
<g id="a_Node000007"><a xlink:title=" ">
<polygon fill="#e0e0e0" stroke="#999999" points="371.5,-79.5 324.5,-79.5 324.5,-60.5 371.5,-60.5 371.5,-79.5"/>
<text text-anchor="middle" x="348" y="-67.5" font-family="Helvetica,sans-Serif" font-size="10.00">WiFi.h</text>
</a>
</g>
</g>
<!-- Node1&#45;&gt;Node7 -->
<g id="edge8_Node000001_Node000007" class="edge">
<title>Node1&#45;&gt;Node7</title>
<g id="a_edge8_Node000001_Node000007"><a xlink:title=" ">
<path fill="none" stroke="#63b8ff" d="M255.08,-120.87C272.95,-111.28 302.04,-95.67 322.91,-84.47"/>
<polygon fill="#63b8ff" stroke="#63b8ff" points="324.69,-87.48 331.85,-79.67 321.38,-81.31 324.69,-87.48"/>
</a>
</g>
</g>
<!-- Node8 -->
<g id="Node000008" class="node">
<title>Node8</title>
<g id="a_Node000008"><a xlink:href="WiFi__secrets__example_8h.html" target="_top" xlink:title="Example Wi&#45;Fi credentials for ESP32 projects.">
<polygon fill="white" stroke="#666666" points="524.5,-79.5 389.5,-79.5 389.5,-60.5 524.5,-60.5 524.5,-79.5"/>
<text text-anchor="middle" x="457" y="-67.5" font-family="Helvetica,sans-Serif" font-size="10.00">WiFi_secrets_example.h</text>
</a>
</g>
</g>
<!-- Node1&#45;&gt;Node8 -->
<g id="edge9_Node000001_Node000008" class="edge">
<title>Node1&#45;&gt;Node8</title>
<g id="a_edge9_Node000001_Node000008"><a xlink:title=" ">
<path fill="none" stroke="#63b8ff" d="M270.7,-120.99C308.96,-110.73 373.41,-93.43 415.58,-82.12"/>
<polygon fill="#63b8ff" stroke="#63b8ff" points="416.51,-85.49 425.26,-79.52 414.7,-78.73 416.51,-85.49"/>
</a>
</g>
</g>
<!-- Node2&#45;&gt;Node3 -->
<g id="edge2_Node000002_Node000003" class="edge">
<title>Node2&#45;&gt;Node3</title>
<g id="a_edge2_Node000002_Node000003"><a xlink:title=" ">
<path fill="none" stroke="#63b8ff" d="M76.16,-54.84C87.49,-46 102.06,-34.63 113.62,-25.62"/>
<polygon fill="#63b8ff" stroke="#63b8ff" points="116.03,-28.18 121.76,-19.27 111.72,-22.66 116.03,-28.18"/>
</a>
</g>
</g>
<!-- Node4&#45;&gt;Node3 -->
<g id="edge4_Node000004_Node000003" class="edge">
<title>Node4&#45;&gt;Node3</title>
<g id="a_edge4_Node000004_Node000003"><a xlink:title=" ">
<path fill="none" stroke="#63b8ff" d="M223.36,-60.37C206.06,-50.82 177.95,-35.31 157.67,-24.12"/>
<polygon fill="#63b8ff" stroke="#63b8ff" points="159.15,-20.93 148.7,-19.17 155.77,-27.06 159.15,-20.93"/>
</a>
</g>
</g>
<!-- Node5 -->
<g id="Node000005" class="node">
<title>Node5</title>
<g id="a_Node000005"><a xlink:title=" ">
<polygon fill="#e0e0e0" stroke="#999999" points="295.5,-19 182.5,-19 182.5,0 295.5,0 295.5,-19"/>
<text text-anchor="middle" x="239" y="-7" font-family="Helvetica,sans-Serif" font-size="10.00">freertos/FreeRTOS.h</text>
</a>
</g>
</g>
<!-- Node4&#45;&gt;Node5 -->
<g id="edge5_Node000004_Node000005" class="edge">
<title>Node4&#45;&gt;Node5</title>
<g id="a_edge5_Node000004_Node000005"><a xlink:title=" ">
<path fill="none" stroke="#63b8ff" d="M239,-60.37C239,-52.25 239,-39.81 239,-29.39"/>
<polygon fill="#63b8ff" stroke="#63b8ff" points="242.5,-29.17 239,-19.17 235.5,-29.17 242.5,-29.17"/>
</a>
</g>
</g>
<!-- Node6 -->
<g id="Node000006" class="node">
<title>Node6</title>
<g id="a_Node000006"><a xlink:title=" ">
<polygon fill="#e0e0e0" stroke="#999999" points="416.5,-19 313.5,-19 313.5,0 416.5,0 416.5,-19"/>
<text text-anchor="middle" x="365" y="-7" font-family="Helvetica,sans-Serif" font-size="10.00">freertos/semphr.h</text>
</a>
</g>
</g>
<!-- Node4&#45;&gt;Node6 -->
<g id="edge6_Node000004_Node000006" class="edge">
<title>Node4&#45;&gt;Node6</title>
<g id="a_edge6_Node000004_Node000006"><a xlink:title=" ">
<path fill="none" stroke="#63b8ff" d="M257.32,-60.49C278.41,-50.7 313.26,-34.52 337.58,-23.23"/>
<polygon fill="#63b8ff" stroke="#63b8ff" points="339.06,-26.4 346.66,-19.02 336.11,-20.05 339.06,-26.4"/>
</a>
</g>
</g>
</g>
</svg>
