<?xml version="1.0" encoding="UTF-8" standalone="no"?>
<!DOCTYPE svg PUBLIC "-//W3C//DTD SVG 1.1//EN"
 "http://www.w3.org/Graphics/SVG/1.1/DTD/svg11.dtd">
<!-- Generated by graphviz version 2.43.0 (0)
 -->
<!-- Title: sensor_state_manager.h Pages: 1 -->
<svg width="236pt" height="82pt"
 viewBox="0.00 0.00 235.50 82.00" xmlns="http://www.w3.org/2000/svg" xmlns:xlink="http://www.w3.org/1999/xlink">
<g id="graph0" class="graph" transform="scale(1 1) rotate(0) translate(4 78)">
<title>sensor_state_manager.h</title>
<!-- Node1 -->
<g id="Node000001" class="node">
<title>Node1</title>
<g id="a_Node000001"><a xlink:title="Sensor unit state machine API and documentation.">
<polygon fill="#999999" stroke="#666666" points="160,-74 24,-74 24,-55 160,-55 160,-74"/>
<text text-anchor="middle" x="92" y="-62" font-family="Helvetica,sans-Serif" font-size="10.00">sensor_state_manager.h</text>
</a>
</g>
</g>
<!-- Node2 -->
<g id="Node000002" class="node">
<title>Node2</title>
<g id="a_Node000002"><a xlink:href="src__package__arduino_2src_2main_8cpp.html" target="_top" xlink:title="Main entry point for the sensor firmware.">
<polygon fill="white" stroke="#666666" points="62,-19 0,-19 0,0 62,0 62,-19"/>
<text text-anchor="middle" x="31" y="-7" font-family="Helvetica,sans-Serif" font-size="10.00">main.cpp</text>
</a>
</g>
</g>
<!-- Node1&#45;&gt;Node2 -->
<g id="edge1_Node000001_Node000002" class="edge">
<title>Node1&#45;&gt;Node2</title>
<g id="a_edge1_Node000001_Node000002"><a xlink:title=" ">
<path fill="none" stroke="#63b8ff" d="M74.53,-48.32C63.66,-38.87 50.06,-27.06 40.98,-19.17"/>
<polygon fill="#63b8ff" stroke="#63b8ff" points="72.35,-51.07 82.2,-54.98 76.95,-45.78 72.35,-51.07"/>
</a>
</g>
</g>
<!-- Node3 -->
<g id="Node000003" class="node">
<title>Node3</title>
<g id="a_Node000003"><a xlink:href="sensor__state__manager_8cpp.html" target="_top" xlink:title="Manages the state machine of the sensor unit for packet creation, buffering, and BLE transfer.">
<polygon fill="white" stroke="#666666" points="227.5,-19 80.5,-19 80.5,0 227.5,0 227.5,-19"/>
<text text-anchor="middle" x="154" y="-7" font-family="Helvetica,sans-Serif" font-size="10.00">sensor_state_manager.cpp</text>
</a>
</g>
</g>
<!-- Node1&#45;&gt;Node3 -->
<g id="edge2_Node000001_Node000003" class="edge">
<title>Node1&#45;&gt;Node3</title>
<g id="a_edge2_Node000001_Node000003"><a xlink:title=" ">
<path fill="none" stroke="#63b8ff" d="M109.75,-48.32C120.81,-38.87 134.63,-27.06 143.86,-19.17"/>
<polygon fill="#63b8ff" stroke="#63b8ff" points="107.29,-45.83 101.96,-54.98 111.84,-51.15 107.29,-45.83"/>
</a>
</g>
</g>
</g>
</svg>
