<?xml version="1.0" encoding="UTF-8" standalone="no"?>
<!DOCTYPE svg PUBLIC "-//W3C//DTD SVG 1.1//EN"
 "http://www.w3.org/Graphics/SVG/1.1/DTD/svg11.dtd">
<!-- Generated by graphviz version 2.43.0 (0)
 -->
<!-- Title: sensor_packet_from_sensor.h Pages: 1 -->
<svg width="304pt" height="93pt"
 viewBox="0.00 0.00 304.00 93.00" xmlns="http://www.w3.org/2000/svg" xmlns:xlink="http://www.w3.org/1999/xlink">
<g id="graph0" class="graph" transform="scale(1 1) rotate(0) translate(4 89)">
<title>sensor_packet_from_sensor.h</title>
<!-- Node1 -->
<g id="Node000001" class="node">
<title>Node1</title>
<g id="a_Node000001"><a xlink:title="Defines the data structure for sensor packets received from Arduino sensors.">
<polygon fill="#999999" stroke="#666666" points="226.5,-85 111.5,-85 111.5,-55 226.5,-55 226.5,-85"/>
<text text-anchor="start" x="119.5" y="-73" font-family="Helvetica,sans-Serif" font-size="10.00">sensor_packet_from</text>
<text text-anchor="middle" x="169" y="-62" font-family="Helvetica,sans-Serif" font-size="10.00">_sensor.h</text>
</a>
</g>
</g>
<!-- Node2 -->
<g id="Node000002" class="node">
<title>Node2</title>
<g id="a_Node000002"><a xlink:href="backend__task_8cpp.html" target="_top" xlink:title="Backend processing task for sensor data.">
<polygon fill="white" stroke="#666666" points="104,-19 0,-19 0,0 104,0 104,-19"/>
<text text-anchor="middle" x="52" y="-7" font-family="Helvetica,sans-Serif" font-size="10.00">backend_task.cpp</text>
</a>
</g>
</g>
<!-- Node1&#45;&gt;Node2 -->
<g id="edge1_Node000001_Node000002" class="edge">
<title>Node1&#45;&gt;Node2</title>
<g id="a_edge1_Node000001_Node000002"><a xlink:title=" ">
<path fill="none" stroke="#63b8ff" d="M131.98,-50.49C110.99,-40 85.72,-27.36 69.28,-19.14"/>
<polygon fill="#63b8ff" stroke="#63b8ff" points="130.47,-53.65 140.98,-54.99 133.6,-47.39 130.47,-53.65"/>
</a>
</g>
</g>
<!-- Node3 -->
<g id="Node000003" class="node">
<title>Node3</title>
<g id="a_Node000003"><a xlink:href="broker__task_8cpp.html" target="_top" xlink:title="Broker task for discovering BLE sensors and forwarding their data.">
<polygon fill="white" stroke="#666666" points="216,-19 122,-19 122,0 216,0 216,-19"/>
<text text-anchor="middle" x="169" y="-7" font-family="Helvetica,sans-Serif" font-size="10.00">broker_task.cpp</text>
</a>
</g>
</g>
<!-- Node1&#45;&gt;Node3 -->
<g id="edge2_Node000001_Node000003" class="edge">
<title>Node1&#45;&gt;Node3</title>
<g id="a_edge2_Node000001_Node000003"><a xlink:title=" ">
<path fill="none" stroke="#63b8ff" d="M169,-44.75C169,-35.72 169,-26.03 169,-19.27"/>
<polygon fill="#63b8ff" stroke="#63b8ff" points="165.5,-44.84 169,-54.84 172.5,-44.84 165.5,-44.84"/>
</a>
</g>
</g>
<!-- Node4 -->
<g id="Node000004" class="node">
<title>Node4</title>
<g id="a_Node000004"><a xlink:href="src__broker__esp32_2src_2main_8cpp.html" target="_top" xlink:title="Main entry point for the ESP32 sensor aggregation system.">
<polygon fill="white" stroke="#666666" points="296,-19 234,-19 234,0 296,0 296,-19"/>
<text text-anchor="middle" x="265" y="-7" font-family="Helvetica,sans-Serif" font-size="10.00">main.cpp</text>
</a>
</g>
</g>
<!-- Node1&#45;&gt;Node4 -->
<g id="edge3_Node000001_Node000004" class="edge">
<title>Node1&#45;&gt;Node4</title>
<g id="a_edge3_Node000001_Node000004"><a xlink:title=" ">
<path fill="none" stroke="#63b8ff" d="M200.78,-49.64C217.74,-39.3 237.77,-27.09 250.9,-19.09"/>
<polygon fill="#63b8ff" stroke="#63b8ff" points="198.96,-46.65 192.24,-54.84 202.6,-52.62 198.96,-46.65"/>
</a>
</g>
</g>
</g>
</svg>
