<?xml version="1.0" encoding="UTF-8" standalone="no"?>
<!DOCTYPE svg PUBLIC "-//W3C//DTD SVG 1.1//EN"
 "http://www.w3.org/Graphics/SVG/1.1/DTD/svg11.dtd">
<!-- Generated by graphviz version 2.43.0 (0)
 -->
<!-- Title: state_BLEManagement Pages: 1 -->
<svg width="416pt" height="101pt"
 viewBox="0.00 0.00 416.00 101.00" xmlns="http://www.w3.org/2000/svg" xmlns:xlink="http://www.w3.org/1999/xlink">
<g id="graph0" class="graph" transform="scale(1 1) rotate(0) translate(4 97)">
<title>state_BLEManagement</title>
<!-- Node1 -->
<g id="Node000001" class="node">
<title>Node1</title>
<g id="a_Node000001"><a xlink:title="Ensure BLE is in the expected lifecycle state (advertising/connected).">
<polygon fill="#999999" stroke="#666666" points="129,-56 0,-56 0,-37 129,-37 129,-56"/>
<text text-anchor="middle" x="64.5" y="-44" font-family="Helvetica,sans-Serif" font-size="10.00">state_BLEManagement</text>
</a>
</g>
</g>
<!-- Node2 -->
<g id="Node000002" class="node">
<title>Node2</title>
<g id="a_Node000002"><a xlink:href="bluetooth__manager_8cpp.html#a8cd7266cec47e6f6bbe935416c076514" target="_top" xlink:title="Check if a BLE central device is currently connected.">
<polygon fill="white" stroke="#666666" points="282,-93 170,-93 170,-74 282,-74 282,-93"/>
<text text-anchor="middle" x="226" y="-81" font-family="Helvetica,sans-Serif" font-size="10.00">isCentralConnected</text>
</a>
</g>
</g>
<!-- Node1&#45;&gt;Node2 -->
<g id="edge1_Node000001_Node000002" class="edge">
<title>Node1&#45;&gt;Node2</title>
<g id="a_edge1_Node000001_Node000002"><a xlink:title=" ">
<path fill="none" stroke="#63b8ff" d="M106.58,-56.03C127.15,-60.8 152.25,-66.62 174.04,-71.68"/>
<polygon fill="#63b8ff" stroke="#63b8ff" points="173.25,-75.09 183.79,-73.94 174.84,-68.27 173.25,-75.09"/>
</a>
</g>
</g>
<!-- Node3 -->
<g id="Node000003" class="node">
<title>Node3</title>
<g id="a_Node000003"><a xlink:href="bluetooth__manager_8cpp.html#acdb4283f066b8733e235c63fe52d9553" target="_top" xlink:title="Initialize the BLE peripheral for the sensor.">
<polygon fill="white" stroke="#666666" points="271.5,-56 180.5,-56 180.5,-37 271.5,-37 271.5,-56"/>
<text text-anchor="middle" x="226" y="-44" font-family="Helvetica,sans-Serif" font-size="10.00">setupBluetooth</text>
</a>
</g>
</g>
<!-- Node1&#45;&gt;Node3 -->
<g id="edge2_Node000001_Node000003" class="edge">
<title>Node1&#45;&gt;Node3</title>
<g id="a_edge2_Node000001_Node000003"><a xlink:title=" ">
<path fill="none" stroke="#63b8ff" d="M129.46,-46.5C142.86,-46.5 156.88,-46.5 169.93,-46.5"/>
<polygon fill="#63b8ff" stroke="#63b8ff" points="170.15,-50 180.15,-46.5 170.15,-43 170.15,-50"/>
</a>
</g>
</g>
<!-- Node6 -->
<g id="Node000006" class="node">
<title>Node6</title>
<g id="a_Node000006"><a xlink:href="sensor__state__manager_8cpp.html#a74cf98913506cad562c2540860db68f3" target="_top" xlink:title="Enter the ERROR_STATE and capture context for diagnostics.">
<polygon fill="white" stroke="#666666" points="287,-19 165,-19 165,0 287,0 287,-19"/>
<text text-anchor="middle" x="226" y="-7" font-family="Helvetica,sans-Serif" font-size="10.00">transitionToErrorState</text>
</a>
</g>
</g>
<!-- Node1&#45;&gt;Node6 -->
<g id="edge5_Node000001_Node000006" class="edge">
<title>Node1&#45;&gt;Node6</title>
<g id="a_edge5_Node000001_Node000006"><a xlink:title=" ">
<path fill="none" stroke="#63b8ff" d="M106.58,-36.97C127.15,-32.2 152.25,-26.38 174.04,-21.32"/>
<polygon fill="#63b8ff" stroke="#63b8ff" points="174.84,-24.73 183.79,-19.06 173.25,-17.91 174.84,-24.73"/>
</a>
</g>
</g>
<!-- Node4 -->
<g id="Node000004" class="node">
<title>Node4</title>
<g id="a_Node000004"><a xlink:href="bluetooth__manager_8cpp.html#a2b744d5d335a0af515c9958567d5f8bc" target="_top" xlink:title=" ">
<polygon fill="white" stroke="#666666" points="401,-74 330,-74 330,-55 401,-55 401,-74"/>
<text text-anchor="middle" x="365.5" y="-62" font-family="Helvetica,sans-Serif" font-size="10.00">sensorChar</text>
</a>
</g>
</g>
<!-- Node3&#45;&gt;Node4 -->
<g id="edge3_Node000003_Node000004" class="edge">
<title>Node3&#45;&gt;Node4</title>
<g id="a_edge3_Node000003_Node000004"><a xlink:title=" ">
<path fill="none" stroke="#63b8ff" d="M271.64,-52.34C286.93,-54.35 304.05,-56.59 319.38,-58.59"/>
<polygon fill="#63b8ff" stroke="#63b8ff" points="319.29,-62.11 329.66,-59.94 320.2,-55.17 319.29,-62.11"/>
</a>
</g>
</g>
<!-- Node5 -->
<g id="Node000005" class="node">
<title>Node5</title>
<g id="a_Node000005"><a xlink:href="bluetooth__manager_8cpp.html#a83aaf49454fe892c91182596227f13ed" target="_top" xlink:title=" ">
<polygon fill="white" stroke="#666666" points="408,-37 323,-37 323,-18 408,-18 408,-37"/>
<text text-anchor="middle" x="365.5" y="-25" font-family="Helvetica,sans-Serif" font-size="10.00">sensorService</text>
</a>
</g>
</g>
<!-- Node3&#45;&gt;Node5 -->
<g id="edge4_Node000003_Node000005" class="edge">
<title>Node3&#45;&gt;Node5</title>
<g id="a_edge4_Node000003_Node000005"><a xlink:title=" ">
<path fill="none" stroke="#63b8ff" d="M271.64,-40.33C284.76,-38.52 299.23,-36.52 312.76,-34.65"/>
<polygon fill="#63b8ff" stroke="#63b8ff" points="313.45,-38.09 322.88,-33.25 312.49,-31.15 313.45,-38.09"/>
</a>
</g>
</g>
</g>
</svg>
