<?xml version="1.0" encoding="UTF-8" standalone="no"?>
<!DOCTYPE svg PUBLIC "-//W3C//DTD SVG 1.1//EN"
 "http://www.w3.org/Graphics/SVG/1.1/DTD/svg11.dtd">
<!-- Generated by graphviz version 2.43.0 (0)
 -->
<!-- Title: sensor_state_manager.h Pages: 1 -->
<svg width="457pt" height="192pt"
 viewBox="0.00 0.00 457.49 192.00" xmlns="http://www.w3.org/2000/svg" xmlns:xlink="http://www.w3.org/1999/xlink">
<g id="graph0" class="graph" transform="scale(1 1) rotate(0) translate(4 188)">
<title>sensor_state_manager.h</title>
<!-- Node1 -->
<g id="Node000001" class="node">
<title>Node1</title>
<g id="a_Node000001"><a xlink:title="Sensor unit state machine API and documentation.">
<polygon fill="#999999" stroke="#666666" points="218.99,-184 82.99,-184 82.99,-165 218.99,-165 218.99,-184"/>
<text text-anchor="middle" x="150.99" y="-172" font-family="Helvetica,sans-Serif" font-size="10.00">sensor_state_manager.h</text>
</a>
</g>
</g>
<!-- Node2 -->
<g id="Node000002" class="node">
<title>Node2</title>
<g id="a_Node000002"><a xlink:href="DHT__handler_8h.html" target="_top" xlink:title="Header for DHT sensor handling on the sensor unit.">
<polygon fill="white" stroke="#666666" points="122.99,-129 34.99,-129 34.99,-110 122.99,-110 122.99,-129"/>
<text text-anchor="middle" x="78.99" y="-117" font-family="Helvetica,sans-Serif" font-size="10.00">DHT_handler.h</text>
</a>
</g>
</g>
<!-- Node1&#45;&gt;Node2 -->
<g id="edge1_Node000001_Node000002" class="edge">
<title>Node1&#45;&gt;Node2</title>
<g id="a_edge1_Node000001_Node000002"><a xlink:title=" ">
<path fill="none" stroke="#63b8ff" d="M139.42,-164.98C128.57,-157 112.11,-144.88 99.11,-135.31"/>
<polygon fill="#63b8ff" stroke="#63b8ff" points="100.9,-132.28 90.77,-129.17 96.75,-137.92 100.9,-132.28"/>
</a>
</g>
</g>
<!-- Node4 -->
<g id="Node000004" class="node">
<title>Node4</title>
<g id="a_Node000004"><a xlink:href="sensor__package__manager_8h.html" target="_top" xlink:title="Sensor packet layout and helpers for assembling SensorPacket structs.">
<polygon fill="white" stroke="#666666" points="273.99,-74 121.99,-74 121.99,-55 273.99,-55 273.99,-74"/>
<text text-anchor="middle" x="197.99" y="-62" font-family="Helvetica,sans-Serif" font-size="10.00">sensor_package_manager.h</text>
</a>
</g>
</g>
<!-- Node1&#45;&gt;Node4 -->
<g id="edge13_Node000001_Node000004" class="edge">
<title>Node1&#45;&gt;Node4</title>
<g id="a_edge13_Node000001_Node000004"><a xlink:title=" ">
<path fill="none" stroke="#63b8ff" d="M152.85,-164.6C155.65,-152.06 161.52,-128.65 169.99,-110 174.28,-100.56 180.27,-90.74 185.61,-82.73"/>
<polygon fill="#63b8ff" stroke="#63b8ff" points="188.64,-84.51 191.44,-74.3 182.88,-80.53 188.64,-84.51"/>
</a>
</g>
</g>
<!-- Node5 -->
<g id="Node000005" class="node">
<title>Node5</title>
<g id="a_Node000005"><a xlink:title=" ">
<polygon fill="#e0e0e0" stroke="#999999" points="229.49,-19 166.49,-19 166.49,0 229.49,0 229.49,-19"/>
<text text-anchor="middle" x="197.99" y="-7" font-family="Helvetica,sans-Serif" font-size="10.00">Arduino.h</text>
</a>
</g>
</g>
<!-- Node1&#45;&gt;Node5 -->
<g id="edge14_Node000001_Node000005" class="edge">
<title>Node1&#45;&gt;Node5</title>
<g id="a_edge14_Node000001_Node000005"><a xlink:title=" ">
<path fill="none" stroke="#63b8ff" d="M93.16,-164.98C69.42,-158.71 43.45,-147.84 25.99,-129 3.18,-104.39 -9.81,-81.33 10.99,-55 28.76,-32.51 106.88,-20.16 156.36,-14.48"/>
<polygon fill="#63b8ff" stroke="#63b8ff" points="156.9,-17.94 166.45,-13.36 156.13,-10.98 156.9,-17.94"/>
</a>
</g>
</g>
<!-- Node6 -->
<g id="Node000006" class="node">
<title>Node6</title>
<g id="a_Node000006"><a xlink:href="bluetooth__manager_8h.html" target="_top" xlink:title="BLE peripheral management for sensor units.">
<polygon fill="white" stroke="#666666" points="418.99,-129 298.99,-129 298.99,-110 418.99,-110 418.99,-129"/>
<text text-anchor="middle" x="358.99" y="-117" font-family="Helvetica,sans-Serif" font-size="10.00">bluetooth_manager.h</text>
</a>
</g>
</g>
<!-- Node1&#45;&gt;Node6 -->
<g id="edge6_Node000001_Node000006" class="edge">
<title>Node1&#45;&gt;Node6</title>
<g id="a_edge6_Node000001_Node000006"><a xlink:title=" ">
<path fill="none" stroke="#63b8ff" d="M184.41,-164.98C219.94,-155.93 276.27,-141.58 315.29,-131.64"/>
<polygon fill="#63b8ff" stroke="#63b8ff" points="316.48,-134.94 325.31,-129.08 314.76,-128.16 316.48,-134.94"/>
</a>
</g>
</g>
<!-- Node8 -->
<g id="Node000008" class="node">
<title>Node8</title>
<g id="a_Node000008"><a xlink:href="buffer__manager_8h.html" target="_top" xlink:title="Circular buffer interface for storing SensorPacket data.">
<polygon fill="white" stroke="#666666" points="280.99,-129 178.99,-129 178.99,-110 280.99,-110 280.99,-129"/>
<text text-anchor="middle" x="229.99" y="-117" font-family="Helvetica,sans-Serif" font-size="10.00">buffer_manager.h</text>
</a>
</g>
</g>
<!-- Node1&#45;&gt;Node8 -->
<g id="edge10_Node000001_Node000008" class="edge">
<title>Node1&#45;&gt;Node8</title>
<g id="a_edge10_Node000001_Node000008"><a xlink:title=" ">
<path fill="none" stroke="#63b8ff" d="M163.68,-164.98C175.82,-156.84 194.35,-144.41 208.74,-134.76"/>
<polygon fill="#63b8ff" stroke="#63b8ff" points="210.71,-137.65 217.07,-129.17 206.81,-131.84 210.71,-137.65"/>
</a>
</g>
</g>
<!-- Node3 -->
<g id="Node000003" class="node">
<title>Node3</title>
<g id="a_Node000003"><a xlink:title=" ">
<polygon fill="#e0e0e0" stroke="#999999" points="65.99,-74 19.99,-74 19.99,-55 65.99,-55 65.99,-74"/>
<text text-anchor="middle" x="42.99" y="-62" font-family="Helvetica,sans-Serif" font-size="10.00">DHT.h</text>
</a>
</g>
</g>
<!-- Node2&#45;&gt;Node3 -->
<g id="edge2_Node000002_Node000003" class="edge">
<title>Node2&#45;&gt;Node3</title>
<g id="a_edge2_Node000002_Node000003"><a xlink:title=" ">
<path fill="none" stroke="#63b8ff" d="M73.05,-109.75C68.01,-102.34 60.65,-91.5 54.48,-82.41"/>
<polygon fill="#63b8ff" stroke="#63b8ff" points="57.34,-80.39 48.83,-74.09 51.55,-84.33 57.34,-80.39"/>
</a>
</g>
</g>
<!-- Node2&#45;&gt;Node4 -->
<g id="edge3_Node000002_Node000004" class="edge">
<title>Node2&#45;&gt;Node4</title>
<g id="a_edge3_Node000002_Node000004"><a xlink:title=" ">
<path fill="none" stroke="#63b8ff" d="M98.11,-109.98C117.34,-101.42 147.22,-88.11 169.3,-78.28"/>
<polygon fill="#63b8ff" stroke="#63b8ff" points="170.81,-81.44 178.52,-74.17 167.96,-75.04 170.81,-81.44"/>
</a>
</g>
</g>
<!-- Node2&#45;&gt;Node5 -->
<g id="edge5_Node000002_Node000005" class="edge">
<title>Node2&#45;&gt;Node5</title>
<g id="a_edge5_Node000002_Node000005"><a xlink:title=" ">
<path fill="none" stroke="#63b8ff" d="M81.82,-109.67C86.46,-96.36 96.82,-71.02 112.99,-55 127.14,-40.99 146.6,-30.36 163.34,-23.01"/>
<polygon fill="#63b8ff" stroke="#63b8ff" points="164.93,-26.13 172.82,-19.06 162.24,-19.67 164.93,-26.13"/>
</a>
</g>
</g>
<!-- Node4&#45;&gt;Node5 -->
<g id="edge4_Node000004_Node000005" class="edge">
<title>Node4&#45;&gt;Node5</title>
<g id="a_edge4_Node000004_Node000005"><a xlink:title=" ">
<path fill="none" stroke="#63b8ff" d="M197.99,-54.75C197.99,-47.8 197.99,-37.85 197.99,-29.13"/>
<polygon fill="#63b8ff" stroke="#63b8ff" points="201.49,-29.09 197.99,-19.09 194.49,-29.09 201.49,-29.09"/>
</a>
</g>
</g>
<!-- Node6&#45;&gt;Node4 -->
<g id="edge7_Node000006_Node000004" class="edge">
<title>Node6&#45;&gt;Node4</title>
<g id="a_edge7_Node000006_Node000004"><a xlink:title=" ">
<path fill="none" stroke="#63b8ff" d="M333.12,-109.98C306.21,-101.13 263.87,-87.19 233.76,-77.28"/>
<polygon fill="#63b8ff" stroke="#63b8ff" points="234.65,-73.88 224.06,-74.08 232.47,-80.53 234.65,-73.88"/>
</a>
</g>
</g>
<!-- Node6&#45;&gt;Node5 -->
<g id="edge8_Node000006_Node000005" class="edge">
<title>Node6&#45;&gt;Node5</title>
<g id="a_edge8_Node000006_Node000005"><a xlink:title=" ">
<path fill="none" stroke="#63b8ff" d="M352.36,-109.66C341.99,-96.34 320.76,-70.99 297.99,-55 278.43,-41.27 253.96,-30.29 234.12,-22.67"/>
<polygon fill="#63b8ff" stroke="#63b8ff" points="235.1,-19.3 224.51,-19.1 232.66,-25.87 235.1,-19.3"/>
</a>
</g>
</g>
<!-- Node7 -->
<g id="Node000007" class="node">
<title>Node7</title>
<g id="a_Node000007"><a xlink:title=" ">
<polygon fill="#e0e0e0" stroke="#999999" points="449.49,-74 368.49,-74 368.49,-55 449.49,-55 449.49,-74"/>
<text text-anchor="middle" x="408.99" y="-62" font-family="Helvetica,sans-Serif" font-size="10.00">ArduinoBLE.h</text>
</a>
</g>
</g>
<!-- Node6&#45;&gt;Node7 -->
<g id="edge9_Node000006_Node000007" class="edge">
<title>Node6&#45;&gt;Node7</title>
<g id="a_edge9_Node000006_Node000007"><a xlink:title=" ">
<path fill="none" stroke="#63b8ff" d="M367.25,-109.75C374.46,-102.11 385.1,-90.82 393.84,-81.56"/>
<polygon fill="#63b8ff" stroke="#63b8ff" points="396.57,-83.76 400.89,-74.09 391.48,-78.96 396.57,-83.76"/>
</a>
</g>
</g>
<!-- Node8&#45;&gt;Node4 -->
<g id="edge11_Node000008_Node000004" class="edge">
<title>Node8&#45;&gt;Node4</title>
<g id="a_edge11_Node000008_Node000004"><a xlink:title=" ">
<path fill="none" stroke="#63b8ff" d="M224.71,-109.75C220.28,-102.42 213.83,-91.73 208.37,-82.7"/>
<polygon fill="#63b8ff" stroke="#63b8ff" points="211.34,-80.84 203.18,-74.09 205.35,-84.46 211.34,-80.84"/>
</a>
</g>
</g>
<!-- Node8&#45;&gt;Node5 -->
<g id="edge12_Node000008_Node000005" class="edge">
<title>Node8&#45;&gt;Node5</title>
<g id="a_edge12_Node000008_Node000005"><a xlink:title=" ">
<path fill="none" stroke="#63b8ff" d="M246.46,-109.91C266.46,-98.28 296,-76.5 282.99,-55 273.33,-39.04 255.85,-28.52 239.24,-21.75"/>
<polygon fill="#63b8ff" stroke="#63b8ff" points="240.22,-18.38 229.63,-18.18 237.79,-24.94 240.22,-18.38"/>
</a>
</g>
</g>
</g>
</svg>
