<?xml version="1.0" encoding="UTF-8" standalone="no"?>
<!DOCTYPE svg PUBLIC "-//W3C//DTD SVG 1.1//EN"
 "http://www.w3.org/Graphics/SVG/1.1/DTD/svg11.dtd">
<!-- Generated by graphviz version 2.43.0 (0)
 -->
<!-- Title: sensor_package_manager.cpp Pages: 1 -->
<svg width="262pt" height="192pt"
 viewBox="0.00 0.00 262.00 192.00" xmlns="http://www.w3.org/2000/svg" xmlns:xlink="http://www.w3.org/1999/xlink">
<g id="graph0" class="graph" transform="scale(1 1) rotate(0) translate(4 188)">
<title>sensor_package_manager.cpp</title>
<!-- Node1 -->
<g id="Node000001" class="node">
<title>Node1</title>
<g id="a_Node000001"><a xlink:title="Manages sensor data and assembly of SensorPacket structures.">
<polygon fill="#999999" stroke="#666666" points="209.5,-184 46.5,-184 46.5,-165 209.5,-165 209.5,-184"/>
<text text-anchor="middle" x="128" y="-172" font-family="Helvetica,sans-Serif" font-size="10.00">sensor_package_manager.cpp</text>
</a>
</g>
</g>
<!-- Node2 -->
<g id="Node000002" class="node">
<title>Node2</title>
<g id="a_Node000002"><a xlink:href="sensor__package__manager_8h.html" target="_top" xlink:title="Sensor packet layout and helpers for assembling SensorPacket structs.">
<polygon fill="white" stroke="#666666" points="152,-74 0,-74 0,-55 152,-55 152,-74"/>
<text text-anchor="middle" x="76" y="-62" font-family="Helvetica,sans-Serif" font-size="10.00">sensor_package_manager.h</text>
</a>
</g>
</g>
<!-- Node1&#45;&gt;Node2 -->
<g id="edge1_Node000001_Node000002" class="edge">
<title>Node1&#45;&gt;Node2</title>
<g id="a_edge1_Node000001_Node000002"><a xlink:title=" ">
<path fill="none" stroke="#63b8ff" d="M123.74,-164.66C115.21,-146.93 95.85,-106.73 84.58,-83.32"/>
<polygon fill="#63b8ff" stroke="#63b8ff" points="87.66,-81.65 80.17,-74.16 81.35,-84.69 87.66,-81.65"/>
</a>
</g>
</g>
<!-- Node4 -->
<g id="Node000004" class="node">
<title>Node4</title>
<g id="a_Node000004"><a xlink:href="DHT__handler_8h.html" target="_top" xlink:title="Header for DHT sensor handling on the sensor unit.">
<polygon fill="white" stroke="#666666" points="216,-129 128,-129 128,-110 216,-110 216,-129"/>
<text text-anchor="middle" x="172" y="-117" font-family="Helvetica,sans-Serif" font-size="10.00">DHT_handler.h</text>
</a>
</g>
</g>
<!-- Node1&#45;&gt;Node4 -->
<g id="edge3_Node000001_Node000004" class="edge">
<title>Node1&#45;&gt;Node4</title>
<g id="a_edge3_Node000001_Node000004"><a xlink:title=" ">
<path fill="none" stroke="#63b8ff" d="M135.27,-164.75C141.54,-157.18 150.79,-146.05 158.43,-136.84"/>
<polygon fill="#63b8ff" stroke="#63b8ff" points="161.17,-139.02 164.87,-129.09 155.79,-134.55 161.17,-139.02"/>
</a>
</g>
</g>
<!-- Node3 -->
<g id="Node000003" class="node">
<title>Node3</title>
<g id="a_Node000003"><a xlink:title=" ">
<polygon fill="#e0e0e0" stroke="#999999" points="159.5,-19 96.5,-19 96.5,0 159.5,0 159.5,-19"/>
<text text-anchor="middle" x="128" y="-7" font-family="Helvetica,sans-Serif" font-size="10.00">Arduino.h</text>
</a>
</g>
</g>
<!-- Node2&#45;&gt;Node3 -->
<g id="edge2_Node000002_Node000003" class="edge">
<title>Node2&#45;&gt;Node3</title>
<g id="a_edge2_Node000002_Node000003"><a xlink:title=" ">
<path fill="none" stroke="#63b8ff" d="M84.59,-54.75C92.16,-47.03 103.38,-35.6 112.51,-26.28"/>
<polygon fill="#63b8ff" stroke="#63b8ff" points="115.07,-28.68 119.57,-19.09 110.07,-23.78 115.07,-28.68"/>
</a>
</g>
</g>
<!-- Node4&#45;&gt;Node2 -->
<g id="edge5_Node000004_Node000002" class="edge">
<title>Node4&#45;&gt;Node2</title>
<g id="a_edge5_Node000004_Node000002"><a xlink:title=" ">
<path fill="none" stroke="#63b8ff" d="M156.58,-109.98C141.55,-101.69 118.46,-88.94 100.84,-79.22"/>
<polygon fill="#63b8ff" stroke="#63b8ff" points="102.15,-75.94 91.7,-74.17 98.77,-82.07 102.15,-75.94"/>
</a>
</g>
</g>
<!-- Node4&#45;&gt;Node3 -->
<g id="edge6_Node000004_Node000003" class="edge">
<title>Node4&#45;&gt;Node3</title>
<g id="a_edge6_Node000004_Node000003"><a xlink:title=" ">
<path fill="none" stroke="#63b8ff" d="M171.76,-109.93C171.15,-97.38 168.93,-73.51 161,-55 156.66,-44.87 149.6,-34.9 143.11,-26.97"/>
<polygon fill="#63b8ff" stroke="#63b8ff" points="145.65,-24.54 136.47,-19.25 140.34,-29.11 145.65,-24.54"/>
</a>
</g>
</g>
<!-- Node5 -->
<g id="Node000005" class="node">
<title>Node5</title>
<g id="a_Node000005"><a xlink:title=" ">
<polygon fill="#e0e0e0" stroke="#999999" points="254,-74 208,-74 208,-55 254,-55 254,-74"/>
<text text-anchor="middle" x="231" y="-62" font-family="Helvetica,sans-Serif" font-size="10.00">DHT.h</text>
</a>
</g>
</g>
<!-- Node4&#45;&gt;Node5 -->
<g id="edge4_Node000004_Node000005" class="edge">
<title>Node4&#45;&gt;Node5</title>
<g id="a_edge4_Node000004_Node000005"><a xlink:title=" ">
<path fill="none" stroke="#63b8ff" d="M181.48,-109.98C190.2,-102.15 203.34,-90.34 213.9,-80.86"/>
<polygon fill="#63b8ff" stroke="#63b8ff" points="216.25,-83.46 221.35,-74.17 211.57,-78.25 216.25,-83.46"/>
</a>
</g>
</g>
</g>
</svg>
