<?xml version="1.0" encoding="UTF-8" standalone="no"?>
<!DOCTYPE svg PUBLIC "-//W3C//DTD SVG 1.1//EN"
 "http://www.w3.org/Graphics/SVG/1.1/DTD/svg11.dtd">
<!-- Generated by graphviz version 2.43.0 (0)
 -->
<!-- Title: logSensorReading Pages: 1 -->
<svg width="217pt" height="64pt"
 viewBox="0.00 0.00 217.00 64.00" xmlns="http://www.w3.org/2000/svg" xmlns:xlink="http://www.w3.org/1999/xlink">
<g id="graph0" class="graph" transform="scale(1 1) rotate(0) translate(4 60)">
<title>logSensorReading</title>
<!-- Node1 -->
<g id="Node000001" class="node">
<title>Node1</title>
<g id="a_Node000001"><a xlink:title="Log a sensor reading to thread&#45;safe Serial.">
<polygon fill="#999999" stroke="#666666" points="104,-37 0,-37 0,-18 104,-18 104,-37"/>
<text text-anchor="middle" x="52" y="-25" font-family="Helvetica,sans-Serif" font-size="10.00">logSensorReading</text>
</a>
</g>
</g>
<!-- Node2 -->
<g id="Node000002" class="node">
<title>Node2</title>
<g id="a_Node000002"><a xlink:href="threadsafe__serial_8cpp.html#a211c3f6179c90047a5c0c7666dcbadb1" target="_top" xlink:title="Thread&#45;safe printf&#45;style formatted print.">
<polygon fill="white" stroke="#666666" points="206.5,-56 142.5,-56 142.5,-37 206.5,-37 206.5,-56"/>
<text text-anchor="middle" x="174.5" y="-44" font-family="Helvetica,sans-Serif" font-size="10.00">safePrintf</text>
</a>
</g>
</g>
<!-- Node1&#45;&gt;Node2 -->
<g id="edge1_Node000001_Node000002" class="edge">
<title>Node1&#45;&gt;Node2</title>
<g id="a_edge1_Node000001_Node000002"><a xlink:title=" ">
<path fill="none" stroke="#63b8ff" d="M104.1,-35.56C113.52,-37.04 123.24,-38.57 132.31,-40.01"/>
<polygon fill="#63b8ff" stroke="#63b8ff" points="131.81,-43.47 142.24,-41.57 132.9,-36.56 131.81,-43.47"/>
</a>
</g>
</g>
<!-- Node3 -->
<g id="Node000003" class="node">
<title>Node3</title>
<g id="a_Node000003"><a xlink:href="threadsafe__serial_8cpp.html#aa2a33e2abc21c32573829bde657382a6" target="_top" xlink:title="Thread&#45;safe println for C&#45;style strings.">
<polygon fill="white" stroke="#666666" points="209,-19 140,-19 140,0 209,0 209,-19"/>
<text text-anchor="middle" x="174.5" y="-7" font-family="Helvetica,sans-Serif" font-size="10.00">safePrintln</text>
</a>
</g>
</g>
<!-- Node1&#45;&gt;Node3 -->
<g id="edge2_Node000001_Node000003" class="edge">
<title>Node1&#45;&gt;Node3</title>
<g id="a_edge2_Node000001_Node000003"><a xlink:title=" ">
<path fill="none" stroke="#63b8ff" d="M104.1,-19.87C112.68,-18.59 121.5,-17.27 129.87,-16.02"/>
<polygon fill="#63b8ff" stroke="#63b8ff" points="130.42,-19.47 139.79,-14.54 129.38,-12.55 130.42,-19.47"/>
</a>
</g>
</g>
</g>
</svg>
