<?xml version="1.0" encoding="UTF-8" standalone="no"?>
<!DOCTYPE svg PUBLIC "-//W3C//DTD SVG 1.1//EN"
 "http://www.w3.org/Graphics/SVG/1.1/DTD/svg11.dtd">
<!-- Generated by graphviz version 2.43.0 (0)
 -->
<!-- Title: sensor_package_manager.h Pages: 1 -->
<svg width="723pt" height="192pt"
 viewBox="0.00 0.00 723.00 192.00" xmlns="http://www.w3.org/2000/svg" xmlns:xlink="http://www.w3.org/1999/xlink">
<g id="graph0" class="graph" transform="scale(1 1) rotate(0) translate(4 188)">
<title>sensor_package_manager.h</title>
<!-- Node1 -->
<g id="Node000001" class="node">
<title>Node1</title>
<g id="a_Node000001"><a xlink:title="Sensor packet layout and helpers for assembling SensorPacket structs.">
<polygon fill="#999999" stroke="#666666" points="350.5,-184 198.5,-184 198.5,-165 350.5,-165 350.5,-184"/>
<text text-anchor="middle" x="274.5" y="-172" font-family="Helvetica,sans-Serif" font-size="10.00">sensor_package_manager.h</text>
</a>
</g>
</g>
<!-- Node2 -->
<g id="Node000002" class="node">
<title>Node2</title>
<g id="a_Node000002"><a xlink:href="DHT__handler_8cpp.html" target="_top" xlink:title="Handles reading temperature and humidity from a DHT sensor.">
<polygon fill="white" stroke="#666666" points="99,-74 0,-74 0,-55 99,-55 99,-74"/>
<text text-anchor="middle" x="49.5" y="-62" font-family="Helvetica,sans-Serif" font-size="10.00">DHT_handler.cpp</text>
</a>
</g>
</g>
<!-- Node1&#45;&gt;Node2 -->
<g id="edge1_Node000001_Node000002" class="edge">
<title>Node1&#45;&gt;Node2</title>
<g id="a_edge1_Node000001_Node000002"><a xlink:title=" ">
<path fill="none" stroke="#63b8ff" d="M223.5,-162.58C195.12,-155.33 159.74,-144.31 130.5,-129 101.37,-113.75 72.27,-87.62 58.21,-74.12"/>
<polygon fill="#63b8ff" stroke="#63b8ff" points="222.67,-165.98 233.22,-164.99 224.35,-159.19 222.67,-165.98"/>
</a>
</g>
</g>
<!-- Node3 -->
<g id="Node000003" class="node">
<title>Node3</title>
<g id="a_Node000003"><a xlink:href="DHT__handler_8h.html" target="_top" xlink:title="Header for DHT sensor handling on the sensor unit.">
<polygon fill="white" stroke="#666666" points="227.5,-129 139.5,-129 139.5,-110 227.5,-110 227.5,-129"/>
<text text-anchor="middle" x="183.5" y="-117" font-family="Helvetica,sans-Serif" font-size="10.00">DHT_handler.h</text>
</a>
</g>
</g>
<!-- Node1&#45;&gt;Node3 -->
<g id="edge2_Node000001_Node000003" class="edge">
<title>Node1&#45;&gt;Node3</title>
<g id="a_edge2_Node000001_Node000003"><a xlink:title=" ">
<path fill="none" stroke="#63b8ff" d="M250.8,-159.7C234.22,-150.04 212.59,-137.44 198.39,-129.17"/>
<polygon fill="#63b8ff" stroke="#63b8ff" points="249.48,-162.98 259.88,-164.98 253,-156.93 249.48,-162.98"/>
</a>
</g>
</g>
<!-- Node4 -->
<g id="Node000004" class="node">
<title>Node4</title>
<g id="a_Node000004"><a xlink:href="sensor__package__manager_8cpp.html" target="_top" xlink:title="Manages sensor data and assembly of SensorPacket structures.">
<polygon fill="white" stroke="#666666" points="280,-74 117,-74 117,-55 280,-55 280,-74"/>
<text text-anchor="middle" x="198.5" y="-62" font-family="Helvetica,sans-Serif" font-size="10.00">sensor_package_manager.cpp</text>
</a>
</g>
</g>
<!-- Node1&#45;&gt;Node4 -->
<g id="edge14_Node000001_Node000004" class="edge">
<title>Node1&#45;&gt;Node4</title>
<g id="a_edge14_Node000001_Node000004"><a xlink:title=" ">
<path fill="none" stroke="#63b8ff" d="M265.16,-156.15C257.89,-143.1 247.25,-124.97 236.5,-110 227.02,-96.8 214.54,-82.72 206.52,-74.01"/>
<polygon fill="#63b8ff" stroke="#63b8ff" points="262.13,-157.91 270.01,-165 268.27,-154.55 262.13,-157.91"/>
</a>
</g>
</g>
<!-- Node5 -->
<g id="Node000005" class="node">
<title>Node5</title>
<g id="a_Node000005"><a xlink:href="sensor__state__manager_8h.html" target="_top" xlink:title="Sensor unit state machine API and documentation.">
<polygon fill="white" stroke="#666666" points="434.5,-74 298.5,-74 298.5,-55 434.5,-55 434.5,-74"/>
<text text-anchor="middle" x="366.5" y="-62" font-family="Helvetica,sans-Serif" font-size="10.00">sensor_state_manager.h</text>
</a>
</g>
</g>
<!-- Node1&#45;&gt;Node5 -->
<g id="edge15_Node000001_Node000005" class="edge">
<title>Node1&#45;&gt;Node5</title>
<g id="a_edge15_Node000001_Node000005"><a xlink:title=" ">
<path fill="none" stroke="#63b8ff" d="M283.11,-155.57C290,-142.22 300.48,-123.97 312.5,-110 324.7,-95.82 341.76,-82.59 353.42,-74.31"/>
<polygon fill="#63b8ff" stroke="#63b8ff" points="279.9,-154.16 278.57,-164.67 286.17,-157.28 279.9,-154.16"/>
</a>
</g>
</g>
<!-- Node8 -->
<g id="Node000008" class="node">
<title>Node8</title>
<g id="a_Node000008"><a xlink:href="bluetooth__manager_8h.html" target="_top" xlink:title="BLE peripheral management for sensor units.">
<polygon fill="white" stroke="#666666" points="441.5,-129 321.5,-129 321.5,-110 441.5,-110 441.5,-129"/>
<text text-anchor="middle" x="381.5" y="-117" font-family="Helvetica,sans-Serif" font-size="10.00">bluetooth_manager.h</text>
</a>
</g>
</g>
<!-- Node1&#45;&gt;Node8 -->
<g id="edge8_Node000001_Node000008" class="edge">
<title>Node1&#45;&gt;Node8</title>
<g id="a_edge8_Node000001_Node000008"><a xlink:title=" ">
<path fill="none" stroke="#63b8ff" d="M300.74,-160.5C320.43,-150.75 346.82,-137.68 364,-129.17"/>
<polygon fill="#63b8ff" stroke="#63b8ff" points="299.1,-157.41 291.69,-164.98 302.21,-163.68 299.1,-157.41"/>
</a>
</g>
</g>
<!-- Node10 -->
<g id="Node000010" class="node">
<title>Node10</title>
<g id="a_Node000010"><a xlink:href="buffer__manager_8h.html" target="_top" xlink:title="Circular buffer interface for storing SensorPacket data.">
<polygon fill="white" stroke="#666666" points="561.5,-129 459.5,-129 459.5,-110 561.5,-110 561.5,-129"/>
<text text-anchor="middle" x="510.5" y="-117" font-family="Helvetica,sans-Serif" font-size="10.00">buffer_manager.h</text>
</a>
</g>
</g>
<!-- Node1&#45;&gt;Node10 -->
<g id="edge11_Node000001_Node000010" class="edge">
<title>Node1&#45;&gt;Node10</title>
<g id="a_edge11_Node000001_Node000010"><a xlink:title=" ">
<path fill="none" stroke="#63b8ff" d="M322.35,-162.75C366.58,-152.82 431.43,-138.26 472.29,-129.08"/>
<polygon fill="#63b8ff" stroke="#63b8ff" points="321.41,-159.38 312.42,-164.98 322.94,-166.21 321.41,-159.38"/>
</a>
</g>
</g>
<!-- Node3&#45;&gt;Node2 -->
<g id="edge3_Node000003_Node000002" class="edge">
<title>Node3&#45;&gt;Node2</title>
<g id="a_edge3_Node000003_Node000002"><a xlink:title=" ">
<path fill="none" stroke="#63b8ff" d="M152.63,-106.29C127.8,-96.47 93.51,-82.91 71.42,-74.17"/>
<polygon fill="#63b8ff" stroke="#63b8ff" points="151.38,-109.56 161.97,-109.98 153.96,-103.05 151.38,-109.56"/>
</a>
</g>
</g>
<!-- Node3&#45;&gt;Node4 -->
<g id="edge4_Node000003_Node000004" class="edge">
<title>Node3&#45;&gt;Node4</title>
<g id="a_edge4_Node000003_Node000004"><a xlink:title=" ">
<path fill="none" stroke="#63b8ff" d="M188.75,-99.95C191.24,-91.15 194.1,-81.06 196.07,-74.09"/>
<polygon fill="#63b8ff" stroke="#63b8ff" points="185.33,-99.17 185.98,-109.75 192.07,-101.08 185.33,-99.17"/>
</a>
</g>
</g>
<!-- Node3&#45;&gt;Node5 -->
<g id="edge5_Node000003_Node000005" class="edge">
<title>Node3&#45;&gt;Node5</title>
<g id="a_edge5_Node000003_Node000005"><a xlink:title=" ">
<path fill="none" stroke="#63b8ff" d="M222.57,-107.18C256.8,-97.27 305.79,-83.08 336.87,-74.08"/>
<polygon fill="#63b8ff" stroke="#63b8ff" points="221.53,-103.84 212.9,-109.98 223.48,-110.56 221.53,-103.84"/>
</a>
</g>
</g>
<!-- Node6 -->
<g id="Node000006" class="node">
<title>Node6</title>
<g id="a_Node000006"><a xlink:href="src__package__arduino_2src_2main_8cpp.html" target="_top" xlink:title="Main entry point for the sensor firmware.">
<polygon fill="white" stroke="#666666" points="335.5,-19 273.5,-19 273.5,0 335.5,0 335.5,-19"/>
<text text-anchor="middle" x="304.5" y="-7" font-family="Helvetica,sans-Serif" font-size="10.00">main.cpp</text>
</a>
</g>
</g>
<!-- Node5&#45;&gt;Node6 -->
<g id="edge6_Node000005_Node000006" class="edge">
<title>Node5&#45;&gt;Node6</title>
<g id="a_edge6_Node000005_Node000006"><a xlink:title=" ">
<path fill="none" stroke="#63b8ff" d="M348.75,-48.32C337.69,-38.87 323.87,-27.06 314.64,-19.17"/>
<polygon fill="#63b8ff" stroke="#63b8ff" points="346.66,-51.15 356.54,-54.98 351.21,-45.83 346.66,-51.15"/>
</a>
</g>
</g>
<!-- Node7 -->
<g id="Node000007" class="node">
<title>Node7</title>
<g id="a_Node000007"><a xlink:href="sensor__state__manager_8cpp.html" target="_top" xlink:title="Manages the state machine of the sensor unit for packet creation, buffering, and BLE transfer.">
<polygon fill="white" stroke="#666666" points="501,-19 354,-19 354,0 501,0 501,-19"/>
<text text-anchor="middle" x="427.5" y="-7" font-family="Helvetica,sans-Serif" font-size="10.00">sensor_state_manager.cpp</text>
</a>
</g>
</g>
<!-- Node5&#45;&gt;Node7 -->
<g id="edge7_Node000005_Node000007" class="edge">
<title>Node5&#45;&gt;Node7</title>
<g id="a_edge7_Node000005_Node000007"><a xlink:title=" ">
<path fill="none" stroke="#63b8ff" d="M383.97,-48.32C394.84,-38.87 408.44,-27.06 417.52,-19.17"/>
<polygon fill="#63b8ff" stroke="#63b8ff" points="381.55,-45.78 376.3,-54.98 386.15,-51.07 381.55,-45.78"/>
</a>
</g>
</g>
<!-- Node8&#45;&gt;Node5 -->
<g id="edge10_Node000008_Node000005" class="edge">
<title>Node8&#45;&gt;Node5</title>
<g id="a_edge10_Node000008_Node000005"><a xlink:title=" ">
<path fill="none" stroke="#63b8ff" d="M376.25,-99.95C373.76,-91.15 370.9,-81.06 368.93,-74.09"/>
<polygon fill="#63b8ff" stroke="#63b8ff" points="372.93,-101.08 379.02,-109.75 379.67,-99.17 372.93,-101.08"/>
</a>
</g>
</g>
<!-- Node9 -->
<g id="Node000009" class="node">
<title>Node9</title>
<g id="a_Node000009"><a xlink:href="bluetooth__manager_8cpp.html" target="_top" xlink:title="BLE peripheral setup and management for sensor units.">
<polygon fill="white" stroke="#666666" points="584,-74 453,-74 453,-55 584,-55 584,-74"/>
<text text-anchor="middle" x="518.5" y="-62" font-family="Helvetica,sans-Serif" font-size="10.00">bluetooth_manager.cpp</text>
</a>
</g>
</g>
<!-- Node8&#45;&gt;Node9 -->
<g id="edge9_Node000008_Node000009" class="edge">
<title>Node8&#45;&gt;Node9</title>
<g id="a_edge9_Node000008_Node000009"><a xlink:title=" ">
<path fill="none" stroke="#63b8ff" d="M413.06,-106.29C438.45,-96.47 473.5,-82.91 496.09,-74.17"/>
<polygon fill="#63b8ff" stroke="#63b8ff" points="411.58,-103.11 403.51,-109.98 414.1,-109.64 411.58,-103.11"/>
</a>
</g>
</g>
<!-- Node10&#45;&gt;Node5 -->
<g id="edge13_Node000010_Node000005" class="edge">
<title>Node10&#45;&gt;Node5</title>
<g id="a_edge13_Node000010_Node000005"><a xlink:title=" ">
<path fill="none" stroke="#63b8ff" d="M477.68,-106.42C450.97,-96.59 413.9,-82.95 390.06,-74.17"/>
<polygon fill="#63b8ff" stroke="#63b8ff" points="476.77,-109.82 487.36,-109.98 479.19,-103.25 476.77,-109.82"/>
</a>
</g>
</g>
<!-- Node11 -->
<g id="Node000011" class="node">
<title>Node11</title>
<g id="a_Node000011"><a xlink:href="buffer__manager_8cpp.html" target="_top" xlink:title="Circular buffer management for storing SensorPacket data.">
<polygon fill="white" stroke="#666666" points="715,-74 602,-74 602,-55 715,-55 715,-74"/>
<text text-anchor="middle" x="658.5" y="-62" font-family="Helvetica,sans-Serif" font-size="10.00">buffer_manager.cpp</text>
</a>
</g>
</g>
<!-- Node10&#45;&gt;Node11 -->
<g id="edge12_Node000010_Node000011" class="edge">
<title>Node10&#45;&gt;Node11</title>
<g id="a_edge12_Node000010_Node000011"><a xlink:title=" ">
<path fill="none" stroke="#63b8ff" d="M543.87,-106.55C571.35,-96.71 609.67,-82.98 634.29,-74.17"/>
<polygon fill="#63b8ff" stroke="#63b8ff" points="542.51,-103.32 534.28,-109.98 544.87,-109.91 542.51,-103.32"/>
</a>
</g>
</g>
</g>
</svg>
