<?xml version="1.0" encoding="UTF-8" standalone="no"?>
<!DOCTYPE svg PUBLIC "-//W3C//DTD SVG 1.1//EN"
 "http://www.w3.org/Graphics/SVG/1.1/DTD/svg11.dtd">
<!-- Generated by graphviz version 2.43.0 (0)
 -->
<!-- Title: sensor_data.cpp Pages: 1 -->
<svg width="394pt" height="137pt"
 viewBox="0.00 0.00 394.00 137.00" xmlns="http://www.w3.org/2000/svg" xmlns:xlink="http://www.w3.org/1999/xlink">
<g id="graph0" class="graph" transform="scale(1 1) rotate(0) translate(4 133)">
<title>sensor_data.cpp</title>
<!-- Node1 -->
<g id="Node000001" class="node">
<title>Node1</title>
<g id="a_Node000001"><a xlink:title="Functions for parsing, validating, and logging sensor data from BLE devices.">
<polygon fill="#999999" stroke="#666666" points="161.5,-129 65.5,-129 65.5,-110 161.5,-110 161.5,-129"/>
<text text-anchor="middle" x="113.5" y="-117" font-family="Helvetica,sans-Serif" font-size="10.00">sensor_data.cpp</text>
</a>
</g>
</g>
<!-- Node2 -->
<g id="Node000002" class="node">
<title>Node2</title>
<g id="a_Node000002"><a xlink:href="sensor__data_8h.html" target="_top" xlink:title="Header for parsing, validating, and logging sensor data from BLE devices.">
<polygon fill="white" stroke="#666666" points="85,-74 0,-74 0,-55 85,-55 85,-74"/>
<text text-anchor="middle" x="42.5" y="-62" font-family="Helvetica,sans-Serif" font-size="10.00">sensor_data.h</text>
</a>
</g>
</g>
<!-- Node1&#45;&gt;Node2 -->
<g id="edge1_Node000001_Node000002" class="edge">
<title>Node1&#45;&gt;Node2</title>
<g id="a_edge1_Node000001_Node000002"><a xlink:title=" ">
<path fill="none" stroke="#63b8ff" d="M102.09,-109.98C91.39,-102 75.16,-89.88 62.34,-80.31"/>
<polygon fill="#63b8ff" stroke="#63b8ff" points="64.22,-77.35 54.11,-74.17 60.03,-82.96 64.22,-77.35"/>
</a>
</g>
</g>
<!-- Node3 -->
<g id="Node000003" class="node">
<title>Node3</title>
<g id="a_Node000003"><a xlink:title=" ">
<polygon fill="#e0e0e0" stroke="#999999" points="134,-19 71,-19 71,0 134,0 134,-19"/>
<text text-anchor="middle" x="102.5" y="-7" font-family="Helvetica,sans-Serif" font-size="10.00">Arduino.h</text>
</a>
</g>
</g>
<!-- Node1&#45;&gt;Node3 -->
<g id="edge7_Node000001_Node000003" class="edge">
<title>Node1&#45;&gt;Node3</title>
<g id="a_edge7_Node000001_Node000003"><a xlink:title=" ">
<path fill="none" stroke="#63b8ff" d="M112.6,-109.66C110.82,-92.17 106.81,-52.8 104.41,-29.27"/>
<polygon fill="#63b8ff" stroke="#63b8ff" points="107.88,-28.75 103.38,-19.16 100.91,-29.46 107.88,-28.75"/>
</a>
</g>
</g>
<!-- Node4 -->
<g id="Node000004" class="node">
<title>Node4</title>
<g id="a_Node000004"><a xlink:href="threadsafe__serial_8h.html" target="_top" xlink:title="Thread&#45;safe Serial printing utilities for Arduino with FreeRTOS.">
<polygon fill="white" stroke="#666666" points="275.5,-74 141.5,-74 141.5,-55 275.5,-55 275.5,-74"/>
<text text-anchor="middle" x="208.5" y="-62" font-family="Helvetica,sans-Serif" font-size="10.00">utils/threadsafe_serial.h</text>
</a>
</g>
</g>
<!-- Node1&#45;&gt;Node4 -->
<g id="edge3_Node000001_Node000004" class="edge">
<title>Node1&#45;&gt;Node4</title>
<g id="a_edge3_Node000001_Node000004"><a xlink:title=" ">
<path fill="none" stroke="#63b8ff" d="M128.76,-109.98C143.63,-101.69 166.48,-88.94 183.92,-79.22"/>
<polygon fill="#63b8ff" stroke="#63b8ff" points="185.93,-82.1 192.96,-74.17 182.52,-75.99 185.93,-82.1"/>
</a>
</g>
</g>
<!-- Node2&#45;&gt;Node3 -->
<g id="edge2_Node000002_Node000003" class="edge">
<title>Node2&#45;&gt;Node3</title>
<g id="a_edge2_Node000002_Node000003"><a xlink:title=" ">
<path fill="none" stroke="#63b8ff" d="M52.14,-54.98C61.01,-47.15 74.37,-35.34 85.11,-25.86"/>
<polygon fill="#63b8ff" stroke="#63b8ff" points="87.51,-28.41 92.68,-19.17 82.87,-23.17 87.51,-28.41"/>
</a>
</g>
</g>
<!-- Node4&#45;&gt;Node3 -->
<g id="edge4_Node000004_Node000003" class="edge">
<title>Node4&#45;&gt;Node3</title>
<g id="a_edge4_Node000004_Node000003"><a xlink:title=" ">
<path fill="none" stroke="#63b8ff" d="M191.47,-54.98C174.57,-46.54 148.44,-33.47 128.86,-23.68"/>
<polygon fill="#63b8ff" stroke="#63b8ff" points="130.35,-20.51 119.84,-19.17 127.22,-26.77 130.35,-20.51"/>
</a>
</g>
</g>
<!-- Node5 -->
<g id="Node000005" class="node">
<title>Node5</title>
<g id="a_Node000005"><a xlink:title=" ">
<polygon fill="#e0e0e0" stroke="#999999" points="265,-19 152,-19 152,0 265,0 265,-19"/>
<text text-anchor="middle" x="208.5" y="-7" font-family="Helvetica,sans-Serif" font-size="10.00">freertos/FreeRTOS.h</text>
</a>
</g>
</g>
<!-- Node4&#45;&gt;Node5 -->
<g id="edge5_Node000004_Node000005" class="edge">
<title>Node4&#45;&gt;Node5</title>
<g id="a_edge5_Node000004_Node000005"><a xlink:title=" ">
<path fill="none" stroke="#63b8ff" d="M208.5,-54.75C208.5,-47.8 208.5,-37.85 208.5,-29.13"/>
<polygon fill="#63b8ff" stroke="#63b8ff" points="212,-29.09 208.5,-19.09 205,-29.09 212,-29.09"/>
</a>
</g>
</g>
<!-- Node6 -->
<g id="Node000006" class="node">
<title>Node6</title>
<g id="a_Node000006"><a xlink:title=" ">
<polygon fill="#e0e0e0" stroke="#999999" points="386,-19 283,-19 283,0 386,0 386,-19"/>
<text text-anchor="middle" x="334.5" y="-7" font-family="Helvetica,sans-Serif" font-size="10.00">freertos/semphr.h</text>
</a>
</g>
</g>
<!-- Node4&#45;&gt;Node6 -->
<g id="edge6_Node000004_Node000006" class="edge">
<title>Node4&#45;&gt;Node6</title>
<g id="a_edge6_Node000004_Node000006"><a xlink:title=" ">
<path fill="none" stroke="#63b8ff" d="M228.74,-54.98C249.2,-46.38 281.03,-32.99 304.43,-23.15"/>
<polygon fill="#63b8ff" stroke="#63b8ff" points="306.03,-26.27 313.89,-19.17 303.31,-19.82 306.03,-26.27"/>
</a>
</g>
</g>
</g>
</svg>
