<?xml version="1.0" encoding="UTF-8" standalone="no"?>
<!DOCTYPE svg PUBLIC "-//W3C//DTD SVG 1.1//EN"
 "http://www.w3.org/Graphics/SVG/1.1/DTD/svg11.dtd">
<!-- Generated by graphviz version 2.43.0 (0)
 -->
<!-- Title: state_CreateAndBufferPacket Pages: 1 -->
<svg width="467pt" height="165pt"
 viewBox="0.00 0.00 467.00 165.00" xmlns="http://www.w3.org/2000/svg" xmlns:xlink="http://www.w3.org/1999/xlink">
<g id="graph0" class="graph" transform="scale(1 1) rotate(0) translate(4 161)">
<title>state_CreateAndBufferPacket</title>
<!-- Node1 -->
<g id="Node000001" class="node">
<title>Node1</title>
<g id="a_Node000001"><a xlink:title="Try sampling sensors and enqueue a new SensorPacket.">
<polygon fill="#999999" stroke="#666666" points="158,-56 0,-56 0,-37 158,-37 158,-56"/>
<text text-anchor="middle" x="79" y="-44" font-family="Helvetica,sans-Serif" font-size="10.00">state_CreateAndBufferPacket</text>
</a>
</g>
</g>
<!-- Node2 -->
<g id="Node000002" class="node">
<title>Node2</title>
<g id="a_Node000002"><a xlink:href="buffer__manager_8cpp.html#a1e2e65d62c21f27267142571c0afb23e" target="_top" xlink:title="Add a packet to the circular buffer.">
<polygon fill="white" stroke="#666666" points="311,-102 205,-102 205,-83 311,-83 311,-102"/>
<text text-anchor="middle" x="258" y="-90" font-family="Helvetica,sans-Serif" font-size="10.00">addPacketToBuffer</text>
</a>
</g>
</g>
<!-- Node1&#45;&gt;Node2 -->
<g id="edge1_Node000001_Node000002" class="edge">
<title>Node1&#45;&gt;Node2</title>
<g id="a_edge1_Node000001_Node000002"><a xlink:title=" ">
<path fill="none" stroke="#63b8ff" d="M116.67,-56.03C143.85,-63.09 181.09,-72.77 210.37,-80.38"/>
<polygon fill="#63b8ff" stroke="#63b8ff" points="209.81,-83.85 220.37,-82.98 211.57,-77.08 209.81,-83.85"/>
</a>
</g>
</g>
<!-- Node6 -->
<g id="Node000006" class="node">
<title>Node6</title>
<g id="a_Node000006"><a xlink:href="sensor__package__manager_8cpp.html#ad8fe0b7c67a2a79fa83a0736dffc2d4e" target="_top" xlink:title="Assemble a SensorPacket using the most recent sensor readings.">
<polygon fill="white" stroke="#666666" points="322,-56 194,-56 194,-37 322,-37 322,-56"/>
<text text-anchor="middle" x="258" y="-44" font-family="Helvetica,sans-Serif" font-size="10.00">assembleSensorPacket</text>
</a>
</g>
</g>
<!-- Node1&#45;&gt;Node6 -->
<g id="edge5_Node000001_Node000006" class="edge">
<title>Node1&#45;&gt;Node6</title>
<g id="a_edge5_Node000001_Node000006"><a xlink:title=" ">
<path fill="none" stroke="#63b8ff" d="M158.15,-46.5C166.64,-46.5 175.27,-46.5 183.7,-46.5"/>
<polygon fill="#63b8ff" stroke="#63b8ff" points="183.87,-50 193.87,-46.5 183.87,-43 183.87,-50"/>
</a>
</g>
</g>
<!-- Node8 -->
<g id="Node000008" class="node">
<title>Node8</title>
<g id="a_Node000008"><a xlink:href="sensor__state__manager_8cpp.html#a74cf98913506cad562c2540860db68f3" target="_top" xlink:title="Enter the ERROR_STATE and capture context for diagnostics.">
<polygon fill="white" stroke="#666666" points="319,-19 197,-19 197,0 319,0 319,-19"/>
<text text-anchor="middle" x="258" y="-7" font-family="Helvetica,sans-Serif" font-size="10.00">transitionToErrorState</text>
</a>
</g>
</g>
<!-- Node1&#45;&gt;Node8 -->
<g id="edge7_Node000001_Node000008" class="edge">
<title>Node1&#45;&gt;Node8</title>
<g id="a_edge7_Node000001_Node000008"><a xlink:title=" ">
<path fill="none" stroke="#63b8ff" d="M125.58,-36.97C148.72,-32.14 177.02,-26.22 201.42,-21.12"/>
<polygon fill="#63b8ff" stroke="#63b8ff" points="202.19,-24.53 211.27,-19.06 200.76,-17.68 202.19,-24.53"/>
</a>
</g>
</g>
<!-- Node3 -->
<g id="Node000003" class="node">
<title>Node3</title>
<g id="a_Node000003"><a xlink:href="buffer__manager_8cpp.html#a8b1ea34da4293c06ad58cf934128b3ea" target="_top" xlink:title="Drop the oldest packet from the circular buffer.">
<polygon fill="white" stroke="#666666" points="459,-157 358,-157 358,-138 459,-138 459,-157"/>
<text text-anchor="middle" x="408.5" y="-145" font-family="Helvetica,sans-Serif" font-size="10.00">dropOldestPacket</text>
</a>
</g>
</g>
<!-- Node2&#45;&gt;Node3 -->
<g id="edge2_Node000002_Node000003" class="edge">
<title>Node2&#45;&gt;Node3</title>
<g id="a_edge2_Node000002_Node000003"><a xlink:title=" ">
<path fill="none" stroke="#63b8ff" d="M284.62,-102.15C304.59,-109.65 333.04,-120.3 358,-129.5 362.32,-131.09 366.85,-132.75 371.34,-134.39"/>
<polygon fill="#63b8ff" stroke="#63b8ff" points="370.43,-137.79 381.02,-137.92 372.83,-131.21 370.43,-137.79"/>
</a>
</g>
</g>
<!-- Node4 -->
<g id="Node000004" class="node">
<title>Node4</title>
<g id="a_Node000004"><a xlink:href="buffer__manager_8cpp.html#aa4be9e04bfc0423517ed15c1fc6f63db" target="_top" xlink:title="Clear the entire circular buffer.">
<polygon fill="white" stroke="#666666" points="443,-120 374,-120 374,-101 443,-101 443,-120"/>
<text text-anchor="middle" x="408.5" y="-108" font-family="Helvetica,sans-Serif" font-size="10.00">flushBuffer</text>
</a>
</g>
</g>
<!-- Node2&#45;&gt;Node4 -->
<g id="edge3_Node000002_Node000004" class="edge">
<title>Node2&#45;&gt;Node4</title>
<g id="a_edge3_Node000002_Node000004"><a xlink:title=" ">
<path fill="none" stroke="#63b8ff" d="M311.36,-98.85C328.34,-100.91 347.01,-103.17 363.34,-105.15"/>
<polygon fill="#63b8ff" stroke="#63b8ff" points="363.34,-108.67 373.69,-106.4 364.19,-101.72 363.34,-108.67"/>
</a>
</g>
</g>
<!-- Node5 -->
<g id="Node000005" class="node">
<title>Node5</title>
<g id="a_Node000005"><a xlink:href="buffer__manager_8cpp.html#af1a458a3d86b060eb32cd856911eb4db" target="_top" xlink:title="Validate the integrity of the buffer state.">
<polygon fill="white" stroke="#666666" points="447.5,-83 369.5,-83 369.5,-64 447.5,-64 447.5,-83"/>
<text text-anchor="middle" x="408.5" y="-71" font-family="Helvetica,sans-Serif" font-size="10.00">isBufferValid</text>
</a>
</g>
</g>
<!-- Node2&#45;&gt;Node5 -->
<g id="edge4_Node000002_Node000005" class="edge">
<title>Node2&#45;&gt;Node5</title>
<g id="a_edge4_Node000002_Node000005"><a xlink:title=" ">
<path fill="none" stroke="#63b8ff" d="M311.36,-85.8C326.82,-83.82 343.69,-81.66 358.91,-79.72"/>
<polygon fill="#63b8ff" stroke="#63b8ff" points="359.67,-83.15 369.15,-78.41 358.78,-76.2 359.67,-83.15"/>
</a>
</g>
</g>
<!-- Node7 -->
<g id="Node000007" class="node">
<title>Node7</title>
<g id="a_Node000007"><a xlink:href="DHT__handler_8cpp.html#a414d4bcc044c508d8701d17893ff3263" target="_top" xlink:title="Read temperature and humidity from the DHT sensor and store in a packet.">
<polygon fill="white" stroke="#666666" points="438,-46 379,-46 379,-27 438,-27 438,-46"/>
<text text-anchor="middle" x="408.5" y="-34" font-family="Helvetica,sans-Serif" font-size="10.00">readDHT</text>
</a>
</g>
</g>
<!-- Node6&#45;&gt;Node7 -->
<g id="edge6_Node000006_Node000007" class="edge">
<title>Node6&#45;&gt;Node7</title>
<g id="a_edge6_Node000006_Node000007"><a xlink:title=" ">
<path fill="none" stroke="#63b8ff" d="M322.41,-42.23C338.11,-41.17 354.48,-40.07 368.61,-39.12"/>
<polygon fill="#63b8ff" stroke="#63b8ff" points="369.2,-42.59 378.94,-38.42 368.73,-35.6 369.2,-42.59"/>
</a>
</g>
</g>
</g>
</svg>
