<?xml version="1.0" encoding="UTF-8" standalone="no"?>
<!DOCTYPE svg PUBLIC "-//W3C//DTD SVG 1.1//EN"
 "http://www.w3.org/Graphics/SVG/1.1/DTD/svg11.dtd">
<!-- Generated by graphviz version 2.43.0 (0)
 -->
<!-- Title: sensor_data.h Pages: 1 -->
<svg width="470pt" height="82pt"
 viewBox="0.00 0.00 470.00 82.00" xmlns="http://www.w3.org/2000/svg" xmlns:xlink="http://www.w3.org/1999/xlink">
<g id="graph0" class="graph" transform="scale(1 1) rotate(0) translate(4 78)">
<title>sensor_data.h</title>
<!-- Node1 -->
<g id="Node000001" class="node">
<title>Node1</title>
<g id="a_Node000001"><a xlink:title="Header for parsing, validating, and logging sensor data from BLE devices.">
<polygon fill="#999999" stroke="#666666" points="298.5,-74 213.5,-74 213.5,-55 298.5,-55 298.5,-74"/>
<text text-anchor="middle" x="256" y="-62" font-family="Helvetica,sans-Serif" font-size="10.00">sensor_data.h</text>
</a>
</g>
</g>
<!-- Node2 -->
<g id="Node000002" class="node">
<title>Node2</title>
<g id="a_Node000002"><a xlink:href="backend__task_8cpp.html" target="_top" xlink:title="Backend processing task for sensor data.">
<polygon fill="white" stroke="#666666" points="104,-19 0,-19 0,0 104,0 104,-19"/>
<text text-anchor="middle" x="52" y="-7" font-family="Helvetica,sans-Serif" font-size="10.00">backend_task.cpp</text>
</a>
</g>
</g>
<!-- Node1&#45;&gt;Node2 -->
<g id="edge1_Node000001_Node000002" class="edge">
<title>Node1&#45;&gt;Node2</title>
<g id="a_edge1_Node000001_Node000002"><a xlink:title=" ">
<path fill="none" stroke="#63b8ff" d="M213.42,-52.44C175.23,-42.52 119.98,-28.16 85.03,-19.08"/>
<polygon fill="#63b8ff" stroke="#63b8ff" points="212.67,-55.86 223.22,-54.98 214.43,-49.08 212.67,-55.86"/>
</a>
</g>
</g>
<!-- Node3 -->
<g id="Node000003" class="node">
<title>Node3</title>
<g id="a_Node000003"><a xlink:href="httptransmission__task_8cpp.html" target="_top" xlink:title="FreeRTOS task for transmitting aggregated sensor data to a backend server via HTTP/HTTPS.">
<polygon fill="white" stroke="#666666" points="268,-19 122,-19 122,0 268,0 268,-19"/>
<text text-anchor="middle" x="195" y="-7" font-family="Helvetica,sans-Serif" font-size="10.00">httptransmission_task.cpp</text>
</a>
</g>
</g>
<!-- Node1&#45;&gt;Node3 -->
<g id="edge2_Node000001_Node000003" class="edge">
<title>Node1&#45;&gt;Node3</title>
<g id="a_edge2_Node000001_Node000003"><a xlink:title=" ">
<path fill="none" stroke="#63b8ff" d="M238.53,-48.32C227.66,-38.87 214.06,-27.06 204.98,-19.17"/>
<polygon fill="#63b8ff" stroke="#63b8ff" points="236.35,-51.07 246.2,-54.98 240.95,-45.78 236.35,-51.07"/>
</a>
</g>
</g>
<!-- Node4 -->
<g id="Node000004" class="node">
<title>Node4</title>
<g id="a_Node000004"><a xlink:href="src__broker__esp32_2src_2main_8cpp.html" target="_top" xlink:title="Main entry point for the ESP32 sensor aggregation system.">
<polygon fill="white" stroke="#666666" points="348,-19 286,-19 286,0 348,0 348,-19"/>
<text text-anchor="middle" x="317" y="-7" font-family="Helvetica,sans-Serif" font-size="10.00">main.cpp</text>
</a>
</g>
</g>
<!-- Node1&#45;&gt;Node4 -->
<g id="edge3_Node000001_Node000004" class="edge">
<title>Node1&#45;&gt;Node4</title>
<g id="a_edge3_Node000001_Node000004"><a xlink:title=" ">
<path fill="none" stroke="#63b8ff" d="M273.47,-48.32C284.34,-38.87 297.94,-27.06 307.02,-19.17"/>
<polygon fill="#63b8ff" stroke="#63b8ff" points="271.05,-45.78 265.8,-54.98 275.65,-51.07 271.05,-45.78"/>
</a>
</g>
</g>
<!-- Node5 -->
<g id="Node000005" class="node">
<title>Node5</title>
<g id="a_Node000005"><a xlink:href="sensor__data_8cpp.html" target="_top" xlink:title="Functions for parsing, validating, and logging sensor data from BLE devices.">
<polygon fill="white" stroke="#666666" points="462,-19 366,-19 366,0 462,0 462,-19"/>
<text text-anchor="middle" x="414" y="-7" font-family="Helvetica,sans-Serif" font-size="10.00">sensor_data.cpp</text>
</a>
</g>
</g>
<!-- Node1&#45;&gt;Node5 -->
<g id="edge4_Node000001_Node000005" class="edge">
<title>Node1&#45;&gt;Node5</title>
<g id="a_edge4_Node000001_Node000005"><a xlink:title=" ">
<path fill="none" stroke="#63b8ff" d="M290.88,-51.8C320.37,-41.91 361.93,-27.97 388.42,-19.08"/>
<polygon fill="#63b8ff" stroke="#63b8ff" points="289.75,-48.49 281.39,-54.98 291.98,-55.12 289.75,-48.49"/>
</a>
</g>
</g>
</g>
</svg>
