<?xml version="1.0" encoding="UTF-8" standalone="no"?>
<!DOCTYPE svg PUBLIC "-//W3C//DTD SVG 1.1//EN"
 "http://www.w3.org/Graphics/SVG/1.1/DTD/svg11.dtd">
<!-- Generated by graphviz version 2.43.0 (0)
 -->
<!-- Title: state_TransferPacketBatch Pages: 1 -->
<svg width="429pt" height="175pt"
 viewBox="0.00 0.00 429.00 175.00" xmlns="http://www.w3.org/2000/svg" xmlns:xlink="http://www.w3.org/1999/xlink">
<g id="graph0" class="graph" transform="scale(1 1) rotate(0) translate(4 171)">
<title>state_TransferPacketBatch</title>
<!-- Node1 -->
<g id="Node000001" class="node">
<title>Node1</title>
<g id="a_Node000001"><a xlink:title="Attempt to transmit the next buffered packet over BLE.">
<polygon fill="#999999" stroke="#666666" points="145,-93 0,-93 0,-74 145,-74 145,-93"/>
<text text-anchor="middle" x="72.5" y="-81" font-family="Helvetica,sans-Serif" font-size="10.00">state_TransferPacketBatch</text>
</a>
</g>
</g>
<!-- Node2 -->
<g id="Node000002" class="node">
<title>Node2</title>
<g id="a_Node000002"><a xlink:href="buffer__manager_8cpp.html#aa88f90c7b96583dc985ba442bf487555" target="_top" xlink:title="Commit the removal of the last peeked packet.">
<polygon fill="white" stroke="#666666" points="312,-167 183,-167 183,-148 312,-148 312,-167"/>
<text text-anchor="middle" x="247.5" y="-155" font-family="Helvetica,sans-Serif" font-size="10.00">commitPacketRemoval</text>
</a>
</g>
</g>
<!-- Node1&#45;&gt;Node2 -->
<g id="edge1_Node000001_Node000002" class="edge">
<title>Node1&#45;&gt;Node2</title>
<g id="a_edge1_Node000001_Node000002"><a xlink:title=" ">
<path fill="none" stroke="#63b8ff" d="M89.39,-93.15C109.93,-105.3 147.11,-126.19 181,-139.5 186.08,-141.49 191.46,-143.35 196.87,-145.07"/>
<polygon fill="#63b8ff" stroke="#63b8ff" points="195.99,-148.46 206.57,-147.98 198,-141.75 195.99,-148.46"/>
</a>
</g>
</g>
<!-- Node3 -->
<g id="Node000003" class="node">
<title>Node3</title>
<g id="a_Node000003"><a xlink:href="bluetooth__manager_8cpp.html#a46761ce1ac4ac80065b22d3889b44c4b" target="_top" xlink:title="Get a reference to the sensor BLE characteristic.">
<polygon fill="white" stroke="#666666" points="314,-130 181,-130 181,-111 314,-111 314,-130"/>
<text text-anchor="middle" x="247.5" y="-118" font-family="Helvetica,sans-Serif" font-size="10.00">getSensorCharacteristic</text>
</a>
</g>
</g>
<!-- Node1&#45;&gt;Node3 -->
<g id="edge2_Node000001_Node000003" class="edge">
<title>Node1&#45;&gt;Node3</title>
<g id="a_edge2_Node000001_Node000003"><a xlink:title=" ">
<path fill="none" stroke="#63b8ff" d="M118.05,-93.03C140.57,-97.84 168.08,-103.73 191.86,-108.81"/>
<polygon fill="#63b8ff" stroke="#63b8ff" points="191.29,-112.27 201.8,-110.94 192.75,-105.43 191.29,-112.27"/>
</a>
</g>
</g>
<!-- Node5 -->
<g id="Node000005" class="node">
<title>Node5</title>
<g id="a_Node000005"><a xlink:href="bluetooth__manager_8cpp.html#a8cd7266cec47e6f6bbe935416c076514" target="_top" xlink:title="Check if a BLE central device is currently connected.">
<polygon fill="white" stroke="#666666" points="303.5,-93 191.5,-93 191.5,-74 303.5,-74 303.5,-93"/>
<text text-anchor="middle" x="247.5" y="-81" font-family="Helvetica,sans-Serif" font-size="10.00">isCentralConnected</text>
</a>
</g>
</g>
<!-- Node1&#45;&gt;Node5 -->
<g id="edge4_Node000001_Node000005" class="edge">
<title>Node1&#45;&gt;Node5</title>
<g id="a_edge4_Node000001_Node000005"><a xlink:title=" ">
<path fill="none" stroke="#63b8ff" d="M145.11,-83.5C157.05,-83.5 169.37,-83.5 181.14,-83.5"/>
<polygon fill="#63b8ff" stroke="#63b8ff" points="181.32,-87 191.32,-83.5 181.32,-80 181.32,-87"/>
</a>
</g>
</g>
<!-- Node6 -->
<g id="Node000006" class="node">
<title>Node6</title>
<g id="a_Node000006"><a xlink:href="buffer__manager_8cpp.html#a8c120aa09fe6f1048e88204783a652ae" target="_top" xlink:title="Peek at the oldest packet without removing it.">
<polygon fill="white" stroke="#666666" points="310.5,-56 184.5,-56 184.5,-37 310.5,-37 310.5,-56"/>
<text text-anchor="middle" x="247.5" y="-44" font-family="Helvetica,sans-Serif" font-size="10.00">peekPacketFromBuffer</text>
</a>
</g>
</g>
<!-- Node1&#45;&gt;Node6 -->
<g id="edge5_Node000001_Node000006" class="edge">
<title>Node1&#45;&gt;Node6</title>
<g id="a_edge5_Node000001_Node000006"><a xlink:title=" ">
<path fill="none" stroke="#63b8ff" d="M118.05,-73.97C140.57,-69.16 168.08,-63.27 191.86,-58.19"/>
<polygon fill="#63b8ff" stroke="#63b8ff" points="192.75,-61.57 201.8,-56.06 191.29,-54.73 192.75,-61.57"/>
</a>
</g>
</g>
<!-- Node7 -->
<g id="Node000007" class="node">
<title>Node7</title>
<g id="a_Node000007"><a xlink:href="sensor__state__manager_8cpp.html#a74cf98913506cad562c2540860db68f3" target="_top" xlink:title="Enter the ERROR_STATE and capture context for diagnostics.">
<polygon fill="white" stroke="#666666" points="308.5,-19 186.5,-19 186.5,0 308.5,0 308.5,-19"/>
<text text-anchor="middle" x="247.5" y="-7" font-family="Helvetica,sans-Serif" font-size="10.00">transitionToErrorState</text>
</a>
</g>
</g>
<!-- Node1&#45;&gt;Node7 -->
<g id="edge6_Node000001_Node000007" class="edge">
<title>Node1&#45;&gt;Node7</title>
<g id="a_edge6_Node000001_Node000007"><a xlink:title=" ">
<path fill="none" stroke="#63b8ff" d="M89.8,-73.92C110.48,-62.05 147.48,-41.79 181,-28.5 186.85,-26.18 193.1,-24 199.32,-22.01"/>
<polygon fill="#63b8ff" stroke="#63b8ff" points="200.48,-25.32 209.02,-19.04 198.43,-18.62 200.48,-25.32"/>
</a>
</g>
</g>
<!-- Node4 -->
<g id="Node000004" class="node">
<title>Node4</title>
<g id="a_Node000004"><a xlink:href="bluetooth__manager_8cpp.html#a2b744d5d335a0af515c9958567d5f8bc" target="_top" xlink:title=" ">
<polygon fill="white" stroke="#666666" points="421,-130 350,-130 350,-111 421,-111 421,-130"/>
<text text-anchor="middle" x="385.5" y="-118" font-family="Helvetica,sans-Serif" font-size="10.00">sensorChar</text>
</a>
</g>
</g>
<!-- Node3&#45;&gt;Node4 -->
<g id="edge3_Node000003_Node000004" class="edge">
<title>Node3&#45;&gt;Node4</title>
<g id="a_edge3_Node000003_Node000004"><a xlink:title=" ">
<path fill="none" stroke="#63b8ff" d="M314.11,-120.5C322.8,-120.5 331.55,-120.5 339.77,-120.5"/>
<polygon fill="#63b8ff" stroke="#63b8ff" points="339.88,-124 349.88,-120.5 339.88,-117 339.88,-124"/>
</a>
</g>
</g>
</g>
</svg>
