<?xml version="1.0" encoding="UTF-8" standalone="no"?>
<!DOCTYPE svg PUBLIC "-//W3C//DTD SVG 1.1//EN"
 "http://www.w3.org/Graphics/SVG/1.1/DTD/svg11.dtd">
<!-- Generated by graphviz version 2.43.0 (0)
 -->
<!-- Title: transitionToErrorState Pages: 1 -->
<svg width="398pt" height="101pt"
 viewBox="0.00 0.00 398.00 101.00" xmlns="http://www.w3.org/2000/svg" xmlns:xlink="http://www.w3.org/1999/xlink">
<g id="graph0" class="graph" transform="scale(1 1) rotate(0) translate(4 97)">
<title>transitionToErrorState</title>
<!-- Node1 -->
<g id="Node000001" class="node">
<title>Node1</title>
<g id="a_Node000001"><a xlink:title="Enter the ERROR_STATE.">
<polygon fill="#999999" stroke="#666666" points="390,-56 268,-56 268,-37 390,-37 390,-56"/>
<text text-anchor="middle" x="329" y="-44" font-family="Helvetica,sans-Serif" font-size="10.00">transitionToErrorState</text>
</a>
</g>
</g>
<!-- Node2 -->
<g id="Node000002" class="node">
<title>Node2</title>
<g id="a_Node000002"><a xlink:href="sensor__state__manager_8cpp.html#aa4f73ee3dd8e6bab72fab72bbf882a16" target="_top" xlink:title="Ensure BLE is in the expected lifecycle state (advertising/connected).">
<polygon fill="white" stroke="#666666" points="217.5,-93 88.5,-93 88.5,-74 217.5,-74 217.5,-93"/>
<text text-anchor="middle" x="153" y="-81" font-family="Helvetica,sans-Serif" font-size="10.00">state_BLEManagement</text>
</a>
</g>
</g>
<!-- Node1&#45;&gt;Node2 -->
<g id="edge1_Node000001_Node000002" class="edge">
<title>Node1&#45;&gt;Node2</title>
<g id="a_edge1_Node000001_Node000002"><a xlink:title=" ">
<path fill="none" stroke="#63b8ff" d="M273.2,-58.15C249.3,-63.23 221.63,-69.12 198.96,-73.94"/>
<polygon fill="#63b8ff" stroke="#63b8ff" points="274.14,-61.53 283.19,-56.03 272.68,-54.68 274.14,-61.53"/>
</a>
</g>
</g>
<!-- Node4 -->
<g id="Node000004" class="node">
<title>Node4</title>
<g id="a_Node000004"><a xlink:href="sensor__state__manager_8cpp.html#a202113f795d7196fdb2f2e154573062e" target="_top" xlink:title="Try sampling sensors and enqueue a new SensorPacket.">
<polygon fill="white" stroke="#666666" points="232,-56 74,-56 74,-37 232,-37 232,-56"/>
<text text-anchor="middle" x="153" y="-44" font-family="Helvetica,sans-Serif" font-size="10.00">state_CreateAndBufferPacket</text>
</a>
</g>
</g>
<!-- Node1&#45;&gt;Node4 -->
<g id="edge3_Node000001_Node000004" class="edge">
<title>Node1&#45;&gt;Node4</title>
<g id="a_edge3_Node000001_Node000004"><a xlink:title=" ">
<path fill="none" stroke="#63b8ff" d="M257.52,-46.5C249.13,-46.5 240.53,-46.5 232.04,-46.5"/>
<polygon fill="#63b8ff" stroke="#63b8ff" points="257.63,-50 267.63,-46.5 257.63,-43 257.63,-50"/>
</a>
</g>
</g>
<!-- Node5 -->
<g id="Node000005" class="node">
<title>Node5</title>
<g id="a_Node000005"><a xlink:href="sensor__state__manager_8cpp.html#a983a3afb91dcbfff50322233586c469c" target="_top" xlink:title="Transfer the next buffered packet via BLE notification.">
<polygon fill="white" stroke="#666666" points="225.5,-19 80.5,-19 80.5,0 225.5,0 225.5,-19"/>
<text text-anchor="middle" x="153" y="-7" font-family="Helvetica,sans-Serif" font-size="10.00">state_TransferPacketBatch</text>
</a>
</g>
</g>
<!-- Node1&#45;&gt;Node5 -->
<g id="edge5_Node000001_Node000005" class="edge">
<title>Node1&#45;&gt;Node5</title>
<g id="a_edge5_Node000001_Node000005"><a xlink:title=" ">
<path fill="none" stroke="#63b8ff" d="M273.2,-34.85C249.3,-29.77 221.63,-23.88 198.96,-19.06"/>
<polygon fill="#63b8ff" stroke="#63b8ff" points="272.68,-38.32 283.19,-36.97 274.14,-31.47 272.68,-38.32"/>
</a>
</g>
</g>
<!-- Node3 -->
<g id="Node000003" class="node">
<title>Node3</title>
<g id="a_Node000003"><a xlink:href="src__package__arduino_2src_2main_8cpp.html#afe461d27b9c48d5921c00d521181f12f" target="_top" xlink:title="Arduino main loop function.">
<polygon fill="white" stroke="#666666" points="38,-56 0,-56 0,-37 38,-37 38,-56"/>
<text text-anchor="middle" x="19" y="-44" font-family="Helvetica,sans-Serif" font-size="10.00">loop</text>
</a>
</g>
</g>
<!-- Node2&#45;&gt;Node3 -->
<g id="edge2_Node000002_Node000003" class="edge">
<title>Node2&#45;&gt;Node3</title>
<g id="a_edge2_Node000002_Node000003"><a xlink:title=" ">
<path fill="none" stroke="#63b8ff" d="M97.06,-71.63C89.28,-69.72 81.41,-67.65 74,-65.5 61.97,-62.01 48.7,-57.35 38.33,-53.52"/>
<polygon fill="#63b8ff" stroke="#63b8ff" points="96.28,-75.05 106.82,-73.97 97.91,-68.24 96.28,-75.05"/>
</a>
</g>
</g>
<!-- Node4&#45;&gt;Node3 -->
<g id="edge4_Node000004_Node000003" class="edge">
<title>Node4&#45;&gt;Node3</title>
<g id="a_edge4_Node000004_Node000003"><a xlink:title=" ">
<path fill="none" stroke="#63b8ff" d="M63.56,-46.5C54.05,-46.5 45.25,-46.5 38.08,-46.5"/>
<polygon fill="#63b8ff" stroke="#63b8ff" points="63.69,-50 73.69,-46.5 63.69,-43 63.69,-50"/>
</a>
</g>
</g>
<!-- Node5&#45;&gt;Node3 -->
<g id="edge6_Node000005_Node000003" class="edge">
<title>Node5&#45;&gt;Node3</title>
<g id="a_edge6_Node000005_Node000003"><a xlink:title=" ">
<path fill="none" stroke="#63b8ff" d="M100.32,-21.45C91.51,-23.67 82.47,-26.06 74,-28.5 62.03,-31.95 48.77,-36.36 38.38,-39.95"/>
<polygon fill="#63b8ff" stroke="#63b8ff" points="101.27,-24.82 110.14,-19.02 99.59,-18.03 101.27,-24.82"/>
</a>
</g>
</g>
</g>
</svg>
