<?xml version="1.0" encoding="UTF-8" standalone="no"?>
<!DOCTYPE svg PUBLIC "-//W3C//DTD SVG 1.1//EN"
 "http://www.w3.org/Graphics/SVG/1.1/DTD/svg11.dtd">
<!-- Generated by graphviz version 2.43.0 (0)
 -->
<!-- Title: main Pages: 1 -->
<svg width="208pt" height="138pt"
 viewBox="0.00 0.00 208.00 138.00" xmlns="http://www.w3.org/2000/svg" xmlns:xlink="http://www.w3.org/1999/xlink">
<g id="graph0" class="graph" transform="scale(1 1) rotate(0) translate(4 134)">
<title>main</title>
<!-- Node1 -->
<g id="Node000001" class="node">
<title>Node1</title>
<g id="a_Node000001"><a xlink:title=" ">
<polygon fill="#999999" stroke="#666666" points="41,-74 0,-74 0,-55 41,-55 41,-74"/>
<text text-anchor="middle" x="20.5" y="-62" font-family="Helvetica,sans-Serif" font-size="10.00">main</text>
</a>
</g>
</g>
<!-- Node2 -->
<g id="Node000002" class="node">
<title>Node2</title>
<g id="a_Node000002"><a xlink:href="sensor__test_8cpp.html#a3233df6f439071993464795f1bd6bca0" target="_top" xlink:title=" ">
<polygon fill="white" stroke="#666666" points="196,-130 81,-130 81,-111 196,-111 196,-130"/>
<text text-anchor="middle" x="138.5" y="-118" font-family="Helvetica,sans-Serif" font-size="10.00">test_dynamicValues</text>
</a>
</g>
</g>
<!-- Node1&#45;&gt;Node2 -->
<g id="edge1_Node000001_Node000002" class="edge">
<title>Node1&#45;&gt;Node2</title>
<g id="a_edge1_Node000001_Node000002"><a xlink:title=" ">
<path fill="none" stroke="#63b8ff" d="M33.18,-74.11C43.98,-82.58 60.77,-94.76 77,-102.5 80.84,-104.33 84.91,-106.02 89.04,-107.57"/>
<polygon fill="#63b8ff" stroke="#63b8ff" points="88.15,-110.96 98.74,-110.93 90.44,-104.35 88.15,-110.96"/>
</a>
</g>
</g>
<!-- Node3 -->
<g id="Node000003" class="node">
<title>Node3</title>
<g id="a_Node000003"><a xlink:href="sensor__test_8cpp.html#a261748871ed1cd7804e9676192b7e201" target="_top" xlink:title=" ">
<polygon fill="white" stroke="#666666" points="186,-93 91,-93 91,-74 186,-74 186,-93"/>
<text text-anchor="middle" x="138.5" y="-81" font-family="Helvetica,sans-Serif" font-size="10.00">test_maxValues</text>
</a>
</g>
</g>
<!-- Node1&#45;&gt;Node3 -->
<g id="edge2_Node000001_Node000003" class="edge">
<title>Node1&#45;&gt;Node3</title>
<g id="a_edge2_Node000001_Node000003"><a xlink:title=" ">
<path fill="none" stroke="#63b8ff" d="M41.18,-67.72C52.1,-69.51 66.31,-71.84 80.44,-74.15"/>
<polygon fill="#63b8ff" stroke="#63b8ff" points="80.23,-77.67 90.67,-75.83 81.36,-70.76 80.23,-77.67"/>
</a>
</g>
</g>
<!-- Node4 -->
<g id="Node000004" class="node">
<title>Node4</title>
<g id="a_Node000004"><a xlink:href="sensor__test_8cpp.html#aa70991e113df3f50edfb239b7e116f3c" target="_top" xlink:title=" ">
<polygon fill="white" stroke="#666666" points="184.5,-56 92.5,-56 92.5,-37 184.5,-37 184.5,-56"/>
<text text-anchor="middle" x="138.5" y="-44" font-family="Helvetica,sans-Serif" font-size="10.00">test_minValues</text>
</a>
</g>
</g>
<!-- Node1&#45;&gt;Node4 -->
<g id="edge3_Node000001_Node000004" class="edge">
<title>Node1&#45;&gt;Node4</title>
<g id="a_edge3_Node000001_Node000004"><a xlink:title=" ">
<path fill="none" stroke="#63b8ff" d="M41.18,-61.45C52.52,-59.69 67.41,-57.38 82.07,-55.1"/>
<polygon fill="#63b8ff" stroke="#63b8ff" points="82.8,-58.53 92.14,-53.54 81.72,-51.61 82.8,-58.53"/>
</a>
</g>
</g>
<!-- Node5 -->
<g id="Node000005" class="node">
<title>Node5</title>
<g id="a_Node000005"><a xlink:href="sensor__test_8cpp.html#adfc362a9076b3fc462cc54d9bbab4c3f" target="_top" xlink:title=" ">
<polygon fill="white" stroke="#666666" points="200,-19 77,-19 77,0 200,0 200,-19"/>
<text text-anchor="middle" x="138.5" y="-7" font-family="Helvetica,sans-Serif" font-size="10.00">test_standardReading</text>
</a>
</g>
</g>
<!-- Node1&#45;&gt;Node5 -->
<g id="edge4_Node000001_Node000005" class="edge">
<title>Node1&#45;&gt;Node5</title>
<g id="a_edge4_Node000001_Node000005"><a xlink:title=" ">
<path fill="none" stroke="#63b8ff" d="M34.15,-54.87C45.04,-46.93 61.41,-35.84 77,-28.5 81.67,-26.3 86.67,-24.27 91.71,-22.42"/>
<polygon fill="#63b8ff" stroke="#63b8ff" points="93.06,-25.65 101.38,-19.08 90.78,-19.03 93.06,-25.65"/>
</a>
</g>
</g>
</g>
</svg>
