<?xml version="1.0" encoding="UTF-8" standalone="no"?>
<!DOCTYPE svg PUBLIC "-//W3C//DTD SVG 1.1//EN"
 "http://www.w3.org/Graphics/SVG/1.1/DTD/svg11.dtd">
<!-- Generated by graphviz version 2.43.0 (0)
 -->
<!-- Title: main.cpp Pages: 1 -->
<svg width="436pt" height="247pt"
 viewBox="0.00 0.00 436.09 247.00" xmlns="http://www.w3.org/2000/svg" xmlns:xlink="http://www.w3.org/1999/xlink">
<g id="graph0" class="graph" transform="scale(1 1) rotate(0) translate(4 243)">
<title>main.cpp</title>
<!-- Node1 -->
<g id="Node000001" class="node">
<title>Node1</title>
<g id="a_Node000001"><a xlink:title="Main entry point for the sensor firmware.">
<polygon fill="#999999" stroke="#666666" points="84.48,-239 22.48,-239 22.48,-220 84.48,-220 84.48,-239"/>
<text text-anchor="middle" x="53.48" y="-227" font-family="Helvetica,sans-Serif" font-size="10.00">main.cpp</text>
</a>
</g>
</g>
<!-- Node2 -->
<g id="Node000002" class="node">
<title>Node2</title>
<g id="a_Node000002"><a xlink:href="sensor__state__manager_8h.html" target="_top" xlink:title="Sensor unit state machine API and documentation.">
<polygon fill="white" stroke="#666666" points="246.48,-184 110.48,-184 110.48,-165 246.48,-165 246.48,-184"/>
<text text-anchor="middle" x="178.48" y="-172" font-family="Helvetica,sans-Serif" font-size="10.00">sensor_state_manager.h</text>
</a>
</g>
</g>
<!-- Node1&#45;&gt;Node2 -->
<g id="edge1_Node000001_Node000002" class="edge">
<title>Node1&#45;&gt;Node2</title>
<g id="a_edge1_Node000001_Node000002"><a xlink:title=" ">
<path fill="none" stroke="#63b8ff" d="M73.56,-219.98C93.85,-211.38 125.43,-197.99 148.65,-188.15"/>
<polygon fill="#63b8ff" stroke="#63b8ff" points="150.19,-191.3 158.03,-184.17 147.46,-184.85 150.19,-191.3"/>
</a>
</g>
</g>
<!-- Node6 -->
<g id="Node000006" class="node">
<title>Node6</title>
<g id="a_Node000006"><a xlink:title=" ">
<polygon fill="#e0e0e0" stroke="#999999" points="257.98,-19 194.98,-19 194.98,0 257.98,0 257.98,-19"/>
<text text-anchor="middle" x="226.48" y="-7" font-family="Helvetica,sans-Serif" font-size="10.00">Arduino.h</text>
</a>
</g>
</g>
<!-- Node1&#45;&gt;Node6 -->
<g id="edge16_Node000001_Node000006" class="edge">
<title>Node1&#45;&gt;Node6</title>
<g id="a_edge16_Node000001_Node000006"><a xlink:title=" ">
<path fill="none" stroke="#63b8ff" d="M47.25,-219.9C27.87,-192.01 -27.53,-103.05 17.48,-55 39.81,-31.15 130.36,-19.06 184.68,-13.83"/>
<polygon fill="#63b8ff" stroke="#63b8ff" points="185.06,-17.31 194.7,-12.9 184.42,-10.34 185.06,-17.31"/>
</a>
</g>
</g>
<!-- Node3 -->
<g id="Node000003" class="node">
<title>Node3</title>
<g id="a_Node000003"><a xlink:href="DHT__handler_8h.html" target="_top" xlink:title="Header for DHT sensor handling on the sensor unit.">
<polygon fill="white" stroke="#666666" points="106.48,-129 18.48,-129 18.48,-110 106.48,-110 106.48,-129"/>
<text text-anchor="middle" x="62.48" y="-117" font-family="Helvetica,sans-Serif" font-size="10.00">DHT_handler.h</text>
</a>
</g>
</g>
<!-- Node2&#45;&gt;Node3 -->
<g id="edge2_Node000002_Node000003" class="edge">
<title>Node2&#45;&gt;Node3</title>
<g id="a_edge2_Node000002_Node000003"><a xlink:title=" ">
<path fill="none" stroke="#63b8ff" d="M159.84,-164.98C141.18,-156.46 112.22,-143.23 90.74,-133.41"/>
<polygon fill="#63b8ff" stroke="#63b8ff" points="92,-130.14 81.45,-129.17 89.09,-136.51 92,-130.14"/>
</a>
</g>
</g>
<!-- Node5 -->
<g id="Node000005" class="node">
<title>Node5</title>
<g id="a_Node000005"><a xlink:href="sensor__package__manager_8h.html" target="_top" xlink:title="Sensor packet layout and helpers for assembling SensorPacket structs.">
<polygon fill="white" stroke="#666666" points="250.48,-74 98.48,-74 98.48,-55 250.48,-55 250.48,-74"/>
<text text-anchor="middle" x="174.48" y="-62" font-family="Helvetica,sans-Serif" font-size="10.00">sensor_package_manager.h</text>
</a>
</g>
</g>
<!-- Node2&#45;&gt;Node5 -->
<g id="edge14_Node000002_Node000005" class="edge">
<title>Node2&#45;&gt;Node5</title>
<g id="a_edge14_Node000002_Node000005"><a xlink:title=" ">
<path fill="none" stroke="#63b8ff" d="M173.16,-164.68C168.24,-155.97 161.28,-142.09 158.48,-129 155.16,-113.54 160.17,-96.14 165.44,-83.47"/>
<polygon fill="#63b8ff" stroke="#63b8ff" points="168.75,-84.63 169.74,-74.08 162.39,-81.71 168.75,-84.63"/>
</a>
</g>
</g>
<!-- Node2&#45;&gt;Node6 -->
<g id="edge15_Node000002_Node000006" class="edge">
<title>Node2&#45;&gt;Node6</title>
<g id="a_edge15_Node000002_Node000006"><a xlink:title=" ">
<path fill="none" stroke="#63b8ff" d="M246.49,-170.21C309.03,-165.58 395.2,-154.63 416.48,-129 426.24,-117.24 437.33,-83.56 413.48,-55 395.15,-33.06 317.61,-20.56 268.31,-14.68"/>
<polygon fill="#63b8ff" stroke="#63b8ff" points="268.59,-11.19 258.25,-13.53 267.79,-18.15 268.59,-11.19"/>
</a>
</g>
</g>
<!-- Node7 -->
<g id="Node000007" class="node">
<title>Node7</title>
<g id="a_Node000007"><a xlink:href="bluetooth__manager_8h.html" target="_top" xlink:title="BLE peripheral management for sensor units.">
<polygon fill="white" stroke="#666666" points="407.48,-129 287.48,-129 287.48,-110 407.48,-110 407.48,-129"/>
<text text-anchor="middle" x="347.48" y="-117" font-family="Helvetica,sans-Serif" font-size="10.00">bluetooth_manager.h</text>
</a>
</g>
</g>
<!-- Node2&#45;&gt;Node7 -->
<g id="edge7_Node000002_Node000007" class="edge">
<title>Node2&#45;&gt;Node7</title>
<g id="a_edge7_Node000002_Node000007"><a xlink:title=" ">
<path fill="none" stroke="#63b8ff" d="M205.63,-164.98C234,-156.09 278.71,-142.07 310.34,-132.15"/>
<polygon fill="#63b8ff" stroke="#63b8ff" points="311.62,-135.41 320.11,-129.08 309.52,-128.73 311.62,-135.41"/>
</a>
</g>
</g>
<!-- Node9 -->
<g id="Node000009" class="node">
<title>Node9</title>
<g id="a_Node000009"><a xlink:href="buffer__manager_8h.html" target="_top" xlink:title="Circular buffer interface for storing SensorPacket data.">
<polygon fill="white" stroke="#666666" points="269.48,-129 167.48,-129 167.48,-110 269.48,-110 269.48,-129"/>
<text text-anchor="middle" x="218.48" y="-117" font-family="Helvetica,sans-Serif" font-size="10.00">buffer_manager.h</text>
</a>
</g>
</g>
<!-- Node2&#45;&gt;Node9 -->
<g id="edge11_Node000002_Node000009" class="edge">
<title>Node2&#45;&gt;Node9</title>
<g id="a_edge11_Node000002_Node000009"><a xlink:title=" ">
<path fill="none" stroke="#63b8ff" d="M185.08,-164.75C190.73,-157.26 199.02,-146.28 205.93,-137.13"/>
<polygon fill="#63b8ff" stroke="#63b8ff" points="208.76,-139.18 211.99,-129.09 203.18,-134.96 208.76,-139.18"/>
</a>
</g>
</g>
<!-- Node4 -->
<g id="Node000004" class="node">
<title>Node4</title>
<g id="a_Node000004"><a xlink:title=" ">
<polygon fill="#e0e0e0" stroke="#999999" points="80.48,-74 34.48,-74 34.48,-55 80.48,-55 80.48,-74"/>
<text text-anchor="middle" x="57.48" y="-62" font-family="Helvetica,sans-Serif" font-size="10.00">DHT.h</text>
</a>
</g>
</g>
<!-- Node3&#45;&gt;Node4 -->
<g id="edge3_Node000003_Node000004" class="edge">
<title>Node3&#45;&gt;Node4</title>
<g id="a_edge3_Node000003_Node000004"><a xlink:title=" ">
<path fill="none" stroke="#63b8ff" d="M61.65,-109.75C61,-102.8 60.06,-92.85 59.23,-84.13"/>
<polygon fill="#63b8ff" stroke="#63b8ff" points="62.71,-83.72 58.29,-74.09 55.74,-84.37 62.71,-83.72"/>
</a>
</g>
</g>
<!-- Node3&#45;&gt;Node5 -->
<g id="edge4_Node000003_Node000005" class="edge">
<title>Node3&#45;&gt;Node5</title>
<g id="a_edge4_Node000003_Node000005"><a xlink:title=" ">
<path fill="none" stroke="#63b8ff" d="M80.47,-109.98C98.41,-101.5 126.19,-88.35 146.91,-78.54"/>
<polygon fill="#63b8ff" stroke="#63b8ff" points="148.61,-81.61 156.15,-74.17 145.62,-75.28 148.61,-81.61"/>
</a>
</g>
</g>
<!-- Node3&#45;&gt;Node6 -->
<g id="edge6_Node000003_Node000006" class="edge">
<title>Node3&#45;&gt;Node6</title>
<g id="a_edge6_Node000003_Node000006"><a xlink:title=" ">
<path fill="none" stroke="#63b8ff" d="M51.09,-109.98C35.5,-97.3 11.02,-73.01 25.48,-55 45.04,-30.64 131.64,-18.79 184.58,-13.74"/>
<polygon fill="#63b8ff" stroke="#63b8ff" points="185.05,-17.21 194.69,-12.81 184.41,-10.24 185.05,-17.21"/>
</a>
</g>
</g>
<!-- Node5&#45;&gt;Node6 -->
<g id="edge5_Node000005_Node000006" class="edge">
<title>Node5&#45;&gt;Node6</title>
<g id="a_edge5_Node000005_Node000006"><a xlink:title=" ">
<path fill="none" stroke="#63b8ff" d="M183.06,-54.75C190.64,-47.03 201.86,-35.6 210.99,-26.28"/>
<polygon fill="#63b8ff" stroke="#63b8ff" points="213.54,-28.68 218.05,-19.09 208.55,-23.78 213.54,-28.68"/>
</a>
</g>
</g>
<!-- Node7&#45;&gt;Node5 -->
<g id="edge8_Node000007_Node000005" class="edge">
<title>Node7&#45;&gt;Node5</title>
<g id="a_edge8_Node000007_Node000005"><a xlink:title=" ">
<path fill="none" stroke="#63b8ff" d="M319.68,-109.98C290.51,-101.05 244.48,-86.94 212.07,-77.02"/>
<polygon fill="#63b8ff" stroke="#63b8ff" points="213.08,-73.66 202.49,-74.08 211.03,-80.36 213.08,-73.66"/>
</a>
</g>
</g>
<!-- Node7&#45;&gt;Node6 -->
<g id="edge9_Node000007_Node000006" class="edge">
<title>Node7&#45;&gt;Node6</title>
<g id="a_edge9_Node000007_Node000006"><a xlink:title=" ">
<path fill="none" stroke="#63b8ff" d="M362.83,-109.91C382.61,-97.74 412.75,-74.76 397.48,-55 381.81,-34.74 313.82,-21.97 268.44,-15.55"/>
<polygon fill="#63b8ff" stroke="#63b8ff" points="268.66,-12.05 258.28,-14.16 267.71,-18.98 268.66,-12.05"/>
</a>
</g>
</g>
<!-- Node8 -->
<g id="Node000008" class="node">
<title>Node8</title>
<g id="a_Node000008"><a xlink:title=" ">
<polygon fill="#e0e0e0" stroke="#999999" points="387.98,-74 306.98,-74 306.98,-55 387.98,-55 387.98,-74"/>
<text text-anchor="middle" x="347.48" y="-62" font-family="Helvetica,sans-Serif" font-size="10.00">ArduinoBLE.h</text>
</a>
</g>
</g>
<!-- Node7&#45;&gt;Node8 -->
<g id="edge10_Node000007_Node000008" class="edge">
<title>Node7&#45;&gt;Node8</title>
<g id="a_edge10_Node000007_Node000008"><a xlink:title=" ">
<path fill="none" stroke="#63b8ff" d="M347.48,-109.75C347.48,-102.8 347.48,-92.85 347.48,-84.13"/>
<polygon fill="#63b8ff" stroke="#63b8ff" points="350.98,-84.09 347.48,-74.09 343.98,-84.09 350.98,-84.09"/>
</a>
</g>
</g>
<!-- Node9&#45;&gt;Node5 -->
<g id="edge12_Node000009_Node000005" class="edge">
<title>Node9&#45;&gt;Node5</title>
<g id="a_edge12_Node000009_Node000005"><a xlink:title=" ">
<path fill="none" stroke="#63b8ff" d="M211.21,-109.75C204.93,-102.18 195.69,-91.05 188.05,-81.84"/>
<polygon fill="#63b8ff" stroke="#63b8ff" points="190.69,-79.55 181.61,-74.09 185.3,-84.02 190.69,-79.55"/>
</a>
</g>
</g>
<!-- Node9&#45;&gt;Node6 -->
<g id="edge13_Node000009_Node000006" class="edge">
<title>Node9&#45;&gt;Node6</title>
<g id="a_edge13_Node000009_Node000006"><a xlink:title=" ">
<path fill="none" stroke="#63b8ff" d="M230.4,-109.8C240.3,-101.77 253.67,-88.87 259.48,-74 266,-57.29 254.67,-39.23 243.55,-26.66"/>
<polygon fill="#63b8ff" stroke="#63b8ff" points="245.91,-24.06 236.46,-19.26 240.85,-28.9 245.91,-24.06"/>
</a>
</g>
</g>
</g>
</svg>
