<?xml version="1.0" encoding="UTF-8" standalone="no"?>
<!DOCTYPE svg PUBLIC "-//W3C//DTD SVG 1.1//EN"
 "http://www.w3.org/Graphics/SVG/1.1/DTD/svg11.dtd">
<!-- Generated by graphviz version 2.43.0 (0)
 -->
<!-- Title: loop Pages: 1 -->
<svg width="546pt" height="313pt"
 viewBox="0.00 0.00 546.00 313.00" xmlns="http://www.w3.org/2000/svg" xmlns:xlink="http://www.w3.org/1999/xlink">
<g id="graph0" class="graph" transform="scale(1 1) rotate(0) translate(4 309)">
<title>loop</title>
<!-- Node1 -->
<g id="Node000001" class="node">
<title>Node1</title>
<g id="a_Node000001"><a xlink:title="Arduino main loop function.">
<polygon fill="#999999" stroke="#666666" points="38,-194 0,-194 0,-175 38,-175 38,-194"/>
<text text-anchor="middle" x="19" y="-182" font-family="Helvetica,sans-Serif" font-size="10.00">loop</text>
</a>
</g>
</g>
<!-- Node2 -->
<g id="Node000002" class="node">
<title>Node2</title>
<g id="a_Node000002"><a xlink:href="sensor__state__manager_8cpp.html#ac0408ab1cf4324682efe91602a9e42c9" target="_top" xlink:title="Re&#45;evaluate timers, flags and inputs to select the next state.">
<polygon fill="white" stroke="#666666" points="215.5,-231 90.5,-231 90.5,-212 215.5,-212 215.5,-231"/>
<text text-anchor="middle" x="153" y="-219" font-family="Helvetica,sans-Serif" font-size="10.00">determineSensorState</text>
</a>
</g>
</g>
<!-- Node1&#45;&gt;Node2 -->
<g id="edge1_Node000001_Node000002" class="edge">
<title>Node1&#45;&gt;Node2</title>
<g id="a_edge1_Node000001_Node000002"><a xlink:title=" ">
<path fill="none" stroke="#63b8ff" d="M38.33,-191.52C48.7,-195.35 61.97,-200.01 74,-203.5 81.41,-205.65 89.28,-207.72 97.06,-209.63"/>
<polygon fill="#63b8ff" stroke="#63b8ff" points="96.28,-213.05 106.82,-211.97 97.91,-206.24 96.28,-213.05"/>
</a>
</g>
</g>
<!-- Node4 -->
<g id="Node000004" class="node">
<title>Node4</title>
<g id="a_Node000004"><a xlink:href="sensor__state__manager_8cpp.html#aa4f73ee3dd8e6bab72fab72bbf882a16" target="_top" xlink:title="Ensure BLE is in the expected lifecycle state (advertising/connected).">
<polygon fill="white" stroke="#666666" points="217.5,-268 88.5,-268 88.5,-249 217.5,-249 217.5,-268"/>
<text text-anchor="middle" x="153" y="-256" font-family="Helvetica,sans-Serif" font-size="10.00">state_BLEManagement</text>
</a>
</g>
</g>
<!-- Node1&#45;&gt;Node4 -->
<g id="edge3_Node000001_Node000004" class="edge">
<title>Node1&#45;&gt;Node4</title>
<g id="a_edge3_Node000001_Node000004"><a xlink:title=" ">
<path fill="none" stroke="#63b8ff" d="M26.46,-194.06C35.55,-206.71 53.31,-228.79 74,-240.5 77.21,-242.32 80.6,-243.95 84.09,-245.42"/>
<polygon fill="#63b8ff" stroke="#63b8ff" points="82.92,-248.72 93.51,-248.94 85.37,-242.17 82.92,-248.72"/>
</a>
</g>
</g>
<!-- Node9 -->
<g id="Node000009" class="node">
<title>Node9</title>
<g id="a_Node000009"><a xlink:href="sensor__state__manager_8cpp.html#a202113f795d7196fdb2f2e154573062e" target="_top" xlink:title="Try sampling sensors and enqueue a new SensorPacket.">
<polygon fill="white" stroke="#666666" points="232,-120 74,-120 74,-101 232,-101 232,-120"/>
<text text-anchor="middle" x="153" y="-108" font-family="Helvetica,sans-Serif" font-size="10.00">state_CreateAndBufferPacket</text>
</a>
</g>
</g>
<!-- Node1&#45;&gt;Node9 -->
<g id="edge9_Node000001_Node000009" class="edge">
<title>Node1&#45;&gt;Node9</title>
<g id="a_edge9_Node000001_Node000009"><a xlink:title=" ">
<path fill="none" stroke="#63b8ff" d="M36.99,-174.98C59.44,-162.39 99.22,-140.09 125.6,-125.3"/>
<polygon fill="#63b8ff" stroke="#63b8ff" points="127.65,-128.16 134.66,-120.22 124.23,-122.06 127.65,-128.16"/>
</a>
</g>
</g>
<!-- Node16 -->
<g id="Node000016" class="node">
<title>Node16</title>
<g id="a_Node000016"><a xlink:href="sensor__state__manager_8cpp.html#a4bedd757ce0a34be7abc32ce988d8f12" target="_top" xlink:title="Run diagnostics and recovery paths for unrecoverable errors.">
<polygon fill="white" stroke="#666666" points="200.5,-83 105.5,-83 105.5,-64 200.5,-64 200.5,-83"/>
<text text-anchor="middle" x="153" y="-71" font-family="Helvetica,sans-Serif" font-size="10.00">state_ErrorState</text>
</a>
</g>
</g>
<!-- Node1&#45;&gt;Node16 -->
<g id="edge17_Node000001_Node000016" class="edge">
<title>Node1&#45;&gt;Node16</title>
<g id="a_edge17_Node000001_Node000016"><a xlink:title=" ">
<path fill="none" stroke="#63b8ff" d="M22.8,-174.99C28.86,-156.15 45.02,-114.05 74,-92.5 80.37,-87.76 87.77,-84.19 95.42,-81.51"/>
<polygon fill="#63b8ff" stroke="#63b8ff" points="96.63,-84.8 105.18,-78.55 94.6,-78.1 96.63,-84.8"/>
</a>
</g>
</g>
<!-- Node17 -->
<g id="Node000017" class="node">
<title>Node17</title>
<g id="a_Node000017"><a xlink:href="sensor__state__manager_8cpp.html#a983a3afb91dcbfff50322233586c469c" target="_top" xlink:title="Transfer the next buffered packet via BLE notification.">
<polygon fill="white" stroke="#666666" points="225.5,-194 80.5,-194 80.5,-175 225.5,-175 225.5,-194"/>
<text text-anchor="middle" x="153" y="-182" font-family="Helvetica,sans-Serif" font-size="10.00">state_TransferPacketBatch</text>
</a>
</g>
</g>
<!-- Node1&#45;&gt;Node17 -->
<g id="edge18_Node000001_Node000017" class="edge">
<title>Node1&#45;&gt;Node17</title>
<g id="a_edge18_Node000001_Node000017"><a xlink:title=" ">
<path fill="none" stroke="#63b8ff" d="M38.08,-184.5C46.85,-184.5 58.07,-184.5 70.03,-184.5"/>
<polygon fill="#63b8ff" stroke="#63b8ff" points="70.22,-188 80.22,-184.5 70.22,-181 70.22,-188"/>
</a>
</g>
</g>
<!-- Node3 -->
<g id="Node000003" class="node">
<title>Node3</title>
<g id="a_Node000003"><a xlink:href="bluetooth__manager_8cpp.html#a8cd7266cec47e6f6bbe935416c076514" target="_top" xlink:title="Check if a BLE central device is currently connected.">
<polygon fill="white" stroke="#666666" points="390.5,-268 278.5,-268 278.5,-249 390.5,-249 390.5,-268"/>
<text text-anchor="middle" x="334.5" y="-256" font-family="Helvetica,sans-Serif" font-size="10.00">isCentralConnected</text>
</a>
</g>
</g>
<!-- Node2&#45;&gt;Node3 -->
<g id="edge2_Node000002_Node000003" class="edge">
<title>Node2&#45;&gt;Node3</title>
<g id="a_edge2_Node000002_Node000003"><a xlink:title=" ">
<path fill="none" stroke="#63b8ff" d="M200.23,-231.03C223.69,-235.86 252.39,-241.78 277.14,-246.88"/>
<polygon fill="#63b8ff" stroke="#63b8ff" points="276.62,-250.35 287.12,-248.94 278.03,-243.49 276.62,-250.35"/>
</a>
</g>
</g>
<!-- Node4&#45;&gt;Node3 -->
<g id="edge4_Node000004_Node000003" class="edge">
<title>Node4&#45;&gt;Node3</title>
<g id="a_edge4_Node000004_Node000003"><a xlink:title=" ">
<path fill="none" stroke="#63b8ff" d="M217.54,-258.5C233.99,-258.5 251.73,-258.5 268.27,-258.5"/>
<polygon fill="#63b8ff" stroke="#63b8ff" points="268.39,-262 278.39,-258.5 268.39,-255 268.39,-262"/>
</a>
</g>
</g>
<!-- Node5 -->
<g id="Node000005" class="node">
<title>Node5</title>
<g id="a_Node000005"><a xlink:href="bluetooth__manager_8cpp.html#acdb4283f066b8733e235c63fe52d9553" target="_top" xlink:title="Initialize the BLE peripheral for the sensor.">
<polygon fill="white" stroke="#666666" points="380,-305 289,-305 289,-286 380,-286 380,-305"/>
<text text-anchor="middle" x="334.5" y="-293" font-family="Helvetica,sans-Serif" font-size="10.00">setupBluetooth</text>
</a>
</g>
</g>
<!-- Node4&#45;&gt;Node5 -->
<g id="edge5_Node000004_Node000005" class="edge">
<title>Node4&#45;&gt;Node5</title>
<g id="a_edge5_Node000004_Node000005"><a xlink:title=" ">
<path fill="none" stroke="#63b8ff" d="M200.23,-268.03C224.24,-272.98 253.73,-279.06 278.87,-284.24"/>
<polygon fill="#63b8ff" stroke="#63b8ff" points="278.48,-287.73 288.98,-286.32 279.89,-280.88 278.48,-287.73"/>
</a>
</g>
</g>
<!-- Node8 -->
<g id="Node000008" class="node">
<title>Node8</title>
<g id="a_Node000008"><a xlink:href="sensor__state__manager_8cpp.html#a74cf98913506cad562c2540860db68f3" target="_top" xlink:title="Enter the ERROR_STATE and capture context for diagnostics.">
<polygon fill="white" stroke="#666666" points="395.5,-120 273.5,-120 273.5,-101 395.5,-101 395.5,-120"/>
<text text-anchor="middle" x="334.5" y="-108" font-family="Helvetica,sans-Serif" font-size="10.00">transitionToErrorState</text>
</a>
</g>
</g>
<!-- Node4&#45;&gt;Node8 -->
<g id="edge8_Node000004_Node000008" class="edge">
<title>Node4&#45;&gt;Node8</title>
<g id="a_edge8_Node000004_Node000008"><a xlink:title=" ">
<path fill="none" stroke="#63b8ff" d="M217.75,-249.88C222.94,-247.43 227.8,-244.35 232,-240.5 270.23,-205.45 230.76,-165.59 268,-129.5 269.5,-128.05 271.1,-126.71 272.79,-125.46"/>
<polygon fill="#63b8ff" stroke="#63b8ff" points="275.02,-128.21 281.8,-120.07 271.42,-122.2 275.02,-128.21"/>
</a>
</g>
</g>
<!-- Node6 -->
<g id="Node000006" class="node">
<title>Node6</title>
<g id="a_Node000006"><a xlink:href="bluetooth__manager_8cpp.html#a2b744d5d335a0af515c9958567d5f8bc" target="_top" xlink:title=" ">
<polygon fill="white" stroke="#666666" points="523,-250 452,-250 452,-231 523,-231 523,-250"/>
<text text-anchor="middle" x="487.5" y="-238" font-family="Helvetica,sans-Serif" font-size="10.00">sensorChar</text>
</a>
</g>
</g>
<!-- Node5&#45;&gt;Node6 -->
<g id="edge6_Node000005_Node000006" class="edge">
<title>Node5&#45;&gt;Node6</title>
<g id="a_edge6_Node000005_Node000006"><a xlink:title=" ">
<path fill="none" stroke="#63b8ff" d="M373.88,-285.92C382.85,-283.42 392.32,-280.55 401,-277.5 419.95,-270.83 440.64,-261.92 456.92,-254.52"/>
<polygon fill="#63b8ff" stroke="#63b8ff" points="458.82,-257.5 466.43,-250.14 455.89,-251.14 458.82,-257.5"/>
</a>
</g>
</g>
<!-- Node7 -->
<g id="Node000007" class="node">
<title>Node7</title>
<g id="a_Node000007"><a xlink:href="bluetooth__manager_8cpp.html#a83aaf49454fe892c91182596227f13ed" target="_top" xlink:title=" ">
<polygon fill="white" stroke="#666666" points="530,-305 445,-305 445,-286 530,-286 530,-305"/>
<text text-anchor="middle" x="487.5" y="-293" font-family="Helvetica,sans-Serif" font-size="10.00">sensorService</text>
</a>
</g>
</g>
<!-- Node5&#45;&gt;Node7 -->
<g id="edge7_Node000005_Node000007" class="edge">
<title>Node5&#45;&gt;Node7</title>
<g id="a_edge7_Node000005_Node000007"><a xlink:title=" ">
<path fill="none" stroke="#63b8ff" d="M380.4,-295.5C397.47,-295.5 417.07,-295.5 434.73,-295.5"/>
<polygon fill="#63b8ff" stroke="#63b8ff" points="434.87,-299 444.87,-295.5 434.87,-292 434.87,-299"/>
</a>
</g>
</g>
<!-- Node9&#45;&gt;Node8 -->
<g id="edge16_Node000009_Node000008" class="edge">
<title>Node9&#45;&gt;Node8</title>
<g id="a_edge16_Node000009_Node000008"><a xlink:title=" ">
<path fill="none" stroke="#63b8ff" d="M232.21,-110.5C242.55,-110.5 253.11,-110.5 263.31,-110.5"/>
<polygon fill="#63b8ff" stroke="#63b8ff" points="263.37,-114 273.37,-110.5 263.37,-107 263.37,-114"/>
</a>
</g>
</g>
<!-- Node10 -->
<g id="Node000010" class="node">
<title>Node10</title>
<g id="a_Node000010"><a xlink:href="buffer__manager_8cpp.html#a1e2e65d62c21f27267142571c0afb23e" target="_top" xlink:title="Add a packet to the circular buffer.">
<polygon fill="white" stroke="#666666" points="387.5,-83 281.5,-83 281.5,-64 387.5,-64 387.5,-83"/>
<text text-anchor="middle" x="334.5" y="-71" font-family="Helvetica,sans-Serif" font-size="10.00">addPacketToBuffer</text>
</a>
</g>
</g>
<!-- Node9&#45;&gt;Node10 -->
<g id="edge10_Node000009_Node000010" class="edge">
<title>Node9&#45;&gt;Node10</title>
<g id="a_edge10_Node000009_Node000010"><a xlink:title=" ">
<path fill="none" stroke="#63b8ff" d="M200.23,-100.97C223.69,-96.14 252.39,-90.22 277.14,-85.12"/>
<polygon fill="#63b8ff" stroke="#63b8ff" points="278.03,-88.51 287.12,-83.06 276.62,-81.65 278.03,-88.51"/>
</a>
</g>
</g>
<!-- Node14 -->
<g id="Node000014" class="node">
<title>Node14</title>
<g id="a_Node000014"><a xlink:href="sensor__package__manager_8cpp.html#ad8fe0b7c67a2a79fa83a0736dffc2d4e" target="_top" xlink:title="Assemble a SensorPacket using the most recent sensor readings.">
<polygon fill="white" stroke="#666666" points="398.5,-37 270.5,-37 270.5,-18 398.5,-18 398.5,-37"/>
<text text-anchor="middle" x="334.5" y="-25" font-family="Helvetica,sans-Serif" font-size="10.00">assembleSensorPacket</text>
</a>
</g>
</g>
<!-- Node9&#45;&gt;Node14 -->
<g id="edge14_Node000009_Node000014" class="edge">
<title>Node9&#45;&gt;Node14</title>
<g id="a_edge14_Node000009_Node000014"><a xlink:title=" ">
<path fill="none" stroke="#63b8ff" d="M212.47,-100.92C219.28,-98.67 225.95,-95.91 232,-92.5 251.99,-81.24 249.08,-68.48 268,-55.5 276.25,-49.84 285.82,-44.96 295.07,-40.93"/>
<polygon fill="#63b8ff" stroke="#63b8ff" points="296.59,-44.09 304.51,-37.05 293.93,-37.62 296.59,-44.09"/>
</a>
</g>
</g>
<!-- Node11 -->
<g id="Node000011" class="node">
<title>Node11</title>
<g id="a_Node000011"><a xlink:href="buffer__manager_8cpp.html#a8b1ea34da4293c06ad58cf934128b3ea" target="_top" xlink:title="Drop the oldest packet from the circular buffer.">
<polygon fill="white" stroke="#666666" points="538,-130 437,-130 437,-111 538,-111 538,-130"/>
<text text-anchor="middle" x="487.5" y="-118" font-family="Helvetica,sans-Serif" font-size="10.00">dropOldestPacket</text>
</a>
</g>
</g>
<!-- Node10&#45;&gt;Node11 -->
<g id="edge11_Node000010_Node000011" class="edge">
<title>Node10&#45;&gt;Node11</title>
<g id="a_edge11_Node000010_Node000011"><a xlink:title=" ">
<path fill="none" stroke="#63b8ff" d="M369.22,-83.04C379.45,-86 390.7,-89.32 401,-92.5 416.52,-97.29 433.54,-102.81 448.28,-107.68"/>
<polygon fill="#63b8ff" stroke="#63b8ff" points="447.48,-111.1 458.08,-110.92 449.69,-104.45 447.48,-111.1"/>
</a>
</g>
</g>
<!-- Node12 -->
<g id="Node000012" class="node">
<title>Node12</title>
<g id="a_Node000012"><a xlink:href="buffer__manager_8cpp.html#aa4be9e04bfc0423517ed15c1fc6f63db" target="_top" xlink:title="Clear the entire circular buffer.">
<polygon fill="white" stroke="#666666" points="522,-93 453,-93 453,-74 522,-74 522,-93"/>
<text text-anchor="middle" x="487.5" y="-81" font-family="Helvetica,sans-Serif" font-size="10.00">flushBuffer</text>
</a>
</g>
</g>
<!-- Node10&#45;&gt;Node12 -->
<g id="edge12_Node000010_Node000012" class="edge">
<title>Node10&#45;&gt;Node12</title>
<g id="a_edge12_Node000010_Node000012"><a xlink:title=" ">
<path fill="none" stroke="#63b8ff" d="M387.89,-76.97C405.66,-78.15 425.33,-79.45 442.4,-80.58"/>
<polygon fill="#63b8ff" stroke="#63b8ff" points="442.44,-84.09 452.64,-81.26 442.9,-77.1 442.44,-84.09"/>
</a>
</g>
</g>
<!-- Node13 -->
<g id="Node000013" class="node">
<title>Node13</title>
<g id="a_Node000013"><a xlink:href="buffer__manager_8cpp.html#af1a458a3d86b060eb32cd856911eb4db" target="_top" xlink:title="Validate the integrity of the buffer state.">
<polygon fill="white" stroke="#666666" points="526.5,-56 448.5,-56 448.5,-37 526.5,-37 526.5,-56"/>
<text text-anchor="middle" x="487.5" y="-44" font-family="Helvetica,sans-Serif" font-size="10.00">isBufferValid</text>
</a>
</g>
</g>
<!-- Node10&#45;&gt;Node13 -->
<g id="edge13_Node000010_Node000013" class="edge">
<title>Node10&#45;&gt;Node13</title>
<g id="a_edge13_Node000010_Node000013"><a xlink:title=" ">
<path fill="none" stroke="#63b8ff" d="M387.89,-64.13C404.24,-61.21 422.19,-58 438.24,-55.13"/>
<polygon fill="#63b8ff" stroke="#63b8ff" points="439.26,-58.5 448.48,-53.3 438.02,-51.61 439.26,-58.5"/>
</a>
</g>
</g>
<!-- Node15 -->
<g id="Node000015" class="node">
<title>Node15</title>
<g id="a_Node000015"><a xlink:href="DHT__handler_8cpp.html#a414d4bcc044c508d8701d17893ff3263" target="_top" xlink:title="Read temperature and humidity from the DHT sensor and store in a packet.">
<polygon fill="white" stroke="#666666" points="517,-19 458,-19 458,0 517,0 517,-19"/>
<text text-anchor="middle" x="487.5" y="-7" font-family="Helvetica,sans-Serif" font-size="10.00">readDHT</text>
</a>
</g>
</g>
<!-- Node14&#45;&gt;Node15 -->
<g id="edge15_Node000014_Node000015" class="edge">
<title>Node14&#45;&gt;Node15</title>
<g id="a_edge15_Node000014_Node000015"><a xlink:title=" ">
<path fill="none" stroke="#63b8ff" d="M398.66,-19.97C415.18,-18 432.51,-15.94 447.37,-14.16"/>
<polygon fill="#63b8ff" stroke="#63b8ff" points="448.19,-17.59 457.7,-12.93 447.36,-10.64 448.19,-17.59"/>
</a>
</g>
</g>
<!-- Node17&#45;&gt;Node3 -->
<g id="edge22_Node000017_Node000003" class="edge">
<title>Node17&#45;&gt;Node3</title>
<g id="a_edge22_Node000017_Node000003"><a xlink:title=" ">
<path fill="none" stroke="#63b8ff" d="M210.03,-194.08C217.68,-196.54 225.22,-199.63 232,-203.5 251.92,-214.88 248.25,-228.83 268,-240.5 270.98,-242.26 274.15,-243.86 277.41,-245.3"/>
<polygon fill="#63b8ff" stroke="#63b8ff" points="276.2,-248.59 286.79,-248.98 278.75,-242.07 276.2,-248.59"/>
</a>
</g>
</g>
<!-- Node17&#45;&gt;Node8 -->
<g id="edge24_Node000017_Node000008" class="edge">
<title>Node17&#45;&gt;Node8</title>
<g id="a_edge24_Node000017_Node000008"><a xlink:title=" ">
<path fill="none" stroke="#63b8ff" d="M171.37,-174.99C193.38,-163.2 232.71,-143.02 268,-129.5 273.95,-127.22 280.29,-125.06 286.6,-123.07"/>
<polygon fill="#63b8ff" stroke="#63b8ff" points="287.87,-126.34 296.42,-120.09 285.84,-119.64 287.87,-126.34"/>
</a>
</g>
</g>
<!-- Node18 -->
<g id="Node000018" class="node">
<title>Node18</title>
<g id="a_Node000018"><a xlink:href="buffer__manager_8cpp.html#aa88f90c7b96583dc985ba442bf487555" target="_top" xlink:title="Commit the removal of the last peeked packet.">
<polygon fill="white" stroke="#666666" points="399,-194 270,-194 270,-175 399,-175 399,-194"/>
<text text-anchor="middle" x="334.5" y="-182" font-family="Helvetica,sans-Serif" font-size="10.00">commitPacketRemoval</text>
</a>
</g>
</g>
<!-- Node17&#45;&gt;Node18 -->
<g id="edge19_Node000017_Node000018" class="edge">
<title>Node17&#45;&gt;Node18</title>
<g id="a_edge19_Node000017_Node000018"><a xlink:title=" ">
<path fill="none" stroke="#63b8ff" d="M225.72,-184.5C236.86,-184.5 248.38,-184.5 259.57,-184.5"/>
<polygon fill="#63b8ff" stroke="#63b8ff" points="259.73,-188 269.73,-184.5 259.73,-181 259.73,-188"/>
</a>
</g>
</g>
<!-- Node19 -->
<g id="Node000019" class="node">
<title>Node19</title>
<g id="a_Node000019"><a xlink:href="bluetooth__manager_8cpp.html#a46761ce1ac4ac80065b22d3889b44c4b" target="_top" xlink:title="Get a reference to the sensor BLE characteristic.">
<polygon fill="white" stroke="#666666" points="401,-231 268,-231 268,-212 401,-212 401,-231"/>
<text text-anchor="middle" x="334.5" y="-219" font-family="Helvetica,sans-Serif" font-size="10.00">getSensorCharacteristic</text>
</a>
</g>
</g>
<!-- Node17&#45;&gt;Node19 -->
<g id="edge20_Node000017_Node000019" class="edge">
<title>Node17&#45;&gt;Node19</title>
<g id="a_edge20_Node000017_Node000019"><a xlink:title=" ">
<path fill="none" stroke="#63b8ff" d="M200.23,-194.03C223.69,-198.86 252.39,-204.78 277.14,-209.88"/>
<polygon fill="#63b8ff" stroke="#63b8ff" points="276.62,-213.35 287.12,-211.94 278.03,-206.49 276.62,-213.35"/>
</a>
</g>
</g>
<!-- Node20 -->
<g id="Node000020" class="node">
<title>Node20</title>
<g id="a_Node000020"><a xlink:href="buffer__manager_8cpp.html#a8c120aa09fe6f1048e88204783a652ae" target="_top" xlink:title="Peek at the oldest packet without removing it.">
<polygon fill="white" stroke="#666666" points="397.5,-157 271.5,-157 271.5,-138 397.5,-138 397.5,-157"/>
<text text-anchor="middle" x="334.5" y="-145" font-family="Helvetica,sans-Serif" font-size="10.00">peekPacketFromBuffer</text>
</a>
</g>
</g>
<!-- Node17&#45;&gt;Node20 -->
<g id="edge23_Node000017_Node000020" class="edge">
<title>Node17&#45;&gt;Node20</title>
<g id="a_edge23_Node000017_Node000020"><a xlink:title=" ">
<path fill="none" stroke="#63b8ff" d="M200.23,-174.97C223.69,-170.14 252.39,-164.22 277.14,-159.12"/>
<polygon fill="#63b8ff" stroke="#63b8ff" points="278.03,-162.51 287.12,-157.06 276.62,-155.65 278.03,-162.51"/>
</a>
</g>
</g>
<!-- Node19&#45;&gt;Node6 -->
<g id="edge21_Node000019_Node000006" class="edge">
<title>Node19&#45;&gt;Node6</title>
<g id="a_edge21_Node000019_Node000006"><a xlink:title=" ">
<path fill="none" stroke="#63b8ff" d="M401.29,-229.78C414.83,-231.48 428.79,-233.24 441.39,-234.82"/>
<polygon fill="#63b8ff" stroke="#63b8ff" points="441.26,-238.33 451.62,-236.11 442.13,-231.39 441.26,-238.33"/>
</a>
</g>
</g>
</g>
</svg>
