<?xml version="1.0" encoding="UTF-8" standalone="no"?>
<!DOCTYPE svg PUBLIC "-//W3C//DTD SVG 1.1//EN"
 "http://www.w3.org/Graphics/SVG/1.1/DTD/svg11.dtd">
<!-- Generated by graphviz version 2.43.0 (0)
 -->
<!-- Title: setup Pages: 1 -->
<svg width="604pt" height="308pt"
 viewBox="0.00 0.00 604.00 307.97" xmlns="http://www.w3.org/2000/svg" xmlns:xlink="http://www.w3.org/1999/xlink">
<g id="graph0" class="graph" transform="scale(1 1) rotate(0) translate(4 303.97)">
<title>setup</title>
<!-- Node1 -->
<g id="Node000001" class="node">
<title>Node1</title>
<g id="a_Node000001"><a xlink:title="Arduino setup function.">
<polygon fill="#999999" stroke="#666666" points="44,-128 0,-128 0,-109 44,-109 44,-128"/>
<text text-anchor="middle" x="22" y="-116" font-family="Helvetica,sans-Serif" font-size="10.00">setup</text>
</a>
</g>
</g>
<!-- Node2 -->
<g id="Node000002" class="node">
<title>Node2</title>
<g id="a_Node000002"><a xlink:href="backend__task_8cpp.html#a2de9c5894c0dd4d09498d477027b9690" target="_top" xlink:title="Backend task for processing sensor data and producing JSON output.">
<polygon fill="white" stroke="#666666" points="479,-285 400,-285 400,-266 479,-266 479,-285"/>
<text text-anchor="middle" x="439.5" y="-273" font-family="Helvetica,sans-Serif" font-size="10.00">backendTask</text>
</a>
</g>
</g>
<!-- Node1&#45;&gt;Node2 -->
<g id="edge1_Node000001_Node000002" class="edge">
<title>Node1&#45;&gt;Node2</title>
<g id="a_edge1_Node000001_Node000002"><a xlink:title=" ">
<path fill="none" stroke="#63b8ff" d="M23.84,-128.32C26.6,-153.69 37.77,-221.58 80,-251.5 172.97,-317.37 315.78,-301.46 389.98,-286.94"/>
<polygon fill="#63b8ff" stroke="#63b8ff" points="390.88,-290.33 399.98,-284.91 389.48,-283.47 390.88,-290.33"/>
</a>
</g>
</g>
<!-- Node3 -->
<g id="Node000003" class="node">
<title>Node3</title>
<g id="a_Node000003"><a xlink:href="threadsafe__serial_8cpp.html#a211c3f6179c90047a5c0c7666dcbadb1" target="_top" xlink:title="Thread&#45;safe printf&#45;style formatted print.">
<polygon fill="white" stroke="#666666" points="596,-171 532,-171 532,-152 596,-152 596,-171"/>
<text text-anchor="middle" x="564" y="-159" font-family="Helvetica,sans-Serif" font-size="10.00">safePrintf</text>
</a>
</g>
</g>
<!-- Node1&#45;&gt;Node3 -->
<g id="edge15_Node000001_Node000003" class="edge">
<title>Node1&#45;&gt;Node3</title>
<g id="a_edge15_Node000001_Node000003"><a xlink:title=" ">
<path fill="none" stroke="#63b8ff" d="M29.41,-128.13C38.78,-141.33 57.58,-164.64 80,-175.5 246.51,-256.15 315.09,-229.24 496,-190.5 510.08,-187.48 524.86,-181.43 536.95,-175.63"/>
<polygon fill="#63b8ff" stroke="#63b8ff" points="538.62,-178.71 546,-171.1 535.49,-172.45 538.62,-178.71"/>
</a>
</g>
</g>
<!-- Node4 -->
<g id="Node000004" class="node">
<title>Node4</title>
<g id="a_Node000004"><a xlink:href="broker__task_8cpp.html#a09e3fef213641fea826388bc4245dd09" target="_top" xlink:title="Broker task for discovering BLE sensors and handling notifications.">
<polygon fill="white" stroke="#666666" points="169,-166 100,-166 100,-147 169,-147 169,-166"/>
<text text-anchor="middle" x="134.5" y="-154" font-family="Helvetica,sans-Serif" font-size="10.00">brokerTask</text>
</a>
</g>
</g>
<!-- Node1&#45;&gt;Node4 -->
<g id="edge3_Node000001_Node000004" class="edge">
<title>Node1&#45;&gt;Node4</title>
<g id="a_edge3_Node000001_Node000004"><a xlink:title=" ">
<path fill="none" stroke="#63b8ff" d="M44.04,-125.74C58.7,-130.78 78.65,-137.64 95.99,-143.6"/>
<polygon fill="#63b8ff" stroke="#63b8ff" points="95.25,-147.05 105.84,-146.99 97.53,-140.43 95.25,-147.05"/>
</a>
</g>
</g>
<!-- Node7 -->
<g id="Node000007" class="node">
<title>Node7</title>
<g id="a_Node000007"><a xlink:href="httptransmission__task_8cpp.html#a139cba602bd72e7d5415ff602e8cc325" target="_top" xlink:title="Task for sending processed sensor data to a backend server via HTTP.">
<polygon fill="white" stroke="#666666" points="347,-104 225,-104 225,-85 347,-85 347,-104"/>
<text text-anchor="middle" x="286" y="-92" font-family="Helvetica,sans-Serif" font-size="10.00">httpTransmissionTask</text>
</a>
</g>
</g>
<!-- Node1&#45;&gt;Node7 -->
<g id="edge9_Node000001_Node000007" class="edge">
<title>Node1&#45;&gt;Node7</title>
<g id="a_edge9_Node000001_Node000007"><a xlink:title=" ">
<path fill="none" stroke="#63b8ff" d="M44.44,-116.54C81.22,-113.17 157.87,-106.15 214.81,-100.93"/>
<polygon fill="#63b8ff" stroke="#63b8ff" points="215.2,-104.41 224.84,-100.01 214.57,-97.44 215.2,-104.41"/>
</a>
</g>
</g>
<!-- Node8 -->
<g id="Node000008" class="node">
<title>Node8</title>
<g id="a_Node000008"><a xlink:href="networkstatus__task_8cpp.html#a1d89a4d845e0e5ef835c78000d81daad" target="_top" xlink:title="Task for monitoring Wi&#45;Fi connection and updating network events.">
<polygon fill="white" stroke="#666666" points="189,-57 80,-57 80,-38 189,-38 189,-57"/>
<text text-anchor="middle" x="134.5" y="-45" font-family="Helvetica,sans-Serif" font-size="10.00">networkStatusTask</text>
</a>
</g>
</g>
<!-- Node1&#45;&gt;Node8 -->
<g id="edge11_Node000001_Node000008" class="edge">
<title>Node1&#45;&gt;Node8</title>
<g id="a_edge11_Node000001_Node000008"><a xlink:title=" ">
<path fill="none" stroke="#63b8ff" d="M37.9,-108.92C56.36,-97.07 88.01,-76.73 109.81,-62.72"/>
<polygon fill="#63b8ff" stroke="#63b8ff" points="111.96,-65.5 118.48,-57.15 108.18,-59.61 111.96,-65.5"/>
</a>
</g>
</g>
<!-- Node9 -->
<g id="Node000009" class="node">
<title>Node9</title>
<g id="a_Node000009"><a xlink:href="threadsafe__serial_8cpp.html#a66e2a38eee16d6d428686bf55c6d3c5f" target="_top" xlink:title="Thread&#45;safe print for C&#45;style strings.">
<polygon fill="white" stroke="#666666" points="316,-19 256,-19 256,0 316,0 316,-19"/>
<text text-anchor="middle" x="286" y="-7" font-family="Helvetica,sans-Serif" font-size="10.00">safePrint</text>
</a>
</g>
</g>
<!-- Node1&#45;&gt;Node9 -->
<g id="edge14_Node000001_Node000009" class="edge">
<title>Node1&#45;&gt;Node9</title>
<g id="a_edge14_Node000001_Node000009"><a xlink:title=" ">
<path fill="none" stroke="#63b8ff" d="M25.93,-108.81C32.27,-89.69 49.24,-47.33 80,-28.5 130.66,2.51 201.93,1.27 245.71,-3.42"/>
<polygon fill="#63b8ff" stroke="#63b8ff" points="245.34,-6.9 255.68,-4.6 246.16,0.05 245.34,-6.9"/>
</a>
</g>
</g>
<!-- Node2&#45;&gt;Node3 -->
<g id="edge2_Node000002_Node000003" class="edge">
<title>Node2&#45;&gt;Node3</title>
<g id="a_edge2_Node000002_Node000003"><a xlink:title=" ">
<path fill="none" stroke="#63b8ff" d="M470.32,-265.95C479.13,-262.28 488.43,-257.49 496,-251.5 521.2,-231.55 541.75,-199.93 553.17,-179.97"/>
<polygon fill="#63b8ff" stroke="#63b8ff" points="556.24,-181.65 558.03,-171.21 550.12,-178.26 556.24,-181.65"/>
</a>
</g>
</g>
<!-- Node4&#45;&gt;Node3 -->
<g id="edge8_Node000004_Node000003" class="edge">
<title>Node4&#45;&gt;Node3</title>
<g id="a_edge8_Node000004_Node000003"><a xlink:title=" ">
<path fill="none" stroke="#63b8ff" d="M169.23,-165.41C185.89,-169.35 206.36,-173.54 225,-175.5 344.79,-188.08 376.05,-183.5 496,-172.5 504.35,-171.73 513.22,-170.55 521.69,-169.23"/>
<polygon fill="#63b8ff" stroke="#63b8ff" points="522.46,-172.65 531.76,-167.58 521.33,-165.74 522.46,-172.65"/>
</a>
</g>
</g>
<!-- Node5 -->
<g id="Node000005" class="node">
<title>Node5</title>
<g id="a_Node000005"><a xlink:href="broker__task_8cpp.html#a0d643c20fb0f3a978c62dd11ab50e526" target="_top" xlink:title="Connects to a BLE sensor and subscribes to its notifications.">
<polygon fill="white" stroke="#666666" points="335,-166 237,-166 237,-147 335,-147 335,-166"/>
<text text-anchor="middle" x="286" y="-154" font-family="Helvetica,sans-Serif" font-size="10.00">connectToSensor</text>
</a>
</g>
</g>
<!-- Node4&#45;&gt;Node5 -->
<g id="edge4_Node000004_Node000005" class="edge">
<title>Node4&#45;&gt;Node5</title>
<g id="a_edge4_Node000004_Node000005"><a xlink:title=" ">
<path fill="none" stroke="#63b8ff" d="M169.05,-156.5C186.06,-156.5 207.2,-156.5 226.76,-156.5"/>
<polygon fill="#63b8ff" stroke="#63b8ff" points="226.82,-160 236.82,-156.5 226.82,-153 226.82,-160"/>
</a>
</g>
</g>
<!-- Node5&#45;&gt;Node3 -->
<g id="edge7_Node000005_Node000003" class="edge">
<title>Node5&#45;&gt;Node3</title>
<g id="a_edge7_Node000005_Node000003"><a xlink:title=" ">
<path fill="none" stroke="#63b8ff" d="M335.08,-157.37C387.85,-158.33 471.7,-159.85 521.64,-160.75"/>
<polygon fill="#63b8ff" stroke="#63b8ff" points="521.7,-164.25 531.76,-160.93 521.82,-157.25 521.7,-164.25"/>
</a>
</g>
</g>
<!-- Node6 -->
<g id="Node000006" class="node">
<title>Node6</title>
<g id="a_Node000006"><a xlink:href="broker__task_8cpp.html#a19260a63dfa833b5eca3339154a6ccbc" target="_top" xlink:title="Callback for BLE characteristic notifications.">
<polygon fill="white" stroke="#666666" points="496,-133 383,-133 383,-114 496,-114 496,-133"/>
<text text-anchor="middle" x="439.5" y="-121" font-family="Helvetica,sans-Serif" font-size="10.00">notificationCallback</text>
</a>
</g>
</g>
<!-- Node5&#45;&gt;Node6 -->
<g id="edge5_Node000005_Node000006" class="edge">
<title>Node5&#45;&gt;Node6</title>
<g id="a_edge5_Node000005_Node000006"><a xlink:title=" ">
<path fill="none" stroke="#63b8ff" d="M330.82,-146.96C347.62,-143.3 366.99,-139.08 384.63,-135.23"/>
<polygon fill="#63b8ff" stroke="#63b8ff" points="385.75,-138.57 394.78,-133.02 384.26,-131.73 385.75,-138.57"/>
</a>
</g>
</g>
<!-- Node6&#45;&gt;Node3 -->
<g id="edge6_Node000006_Node000003" class="edge">
<title>Node6&#45;&gt;Node3</title>
<g id="a_edge6_Node000006_Node000003"><a xlink:title=" ">
<path fill="none" stroke="#63b8ff" d="M471.41,-133.09C486.79,-137.86 505.58,-143.69 522.13,-148.82"/>
<polygon fill="#63b8ff" stroke="#63b8ff" points="521.51,-152.29 532.1,-151.91 523.58,-145.61 521.51,-152.29"/>
</a>
</g>
</g>
<!-- Node7&#45;&gt;Node3 -->
<g id="edge10_Node000007_Node000003" class="edge">
<title>Node7&#45;&gt;Node3</title>
<g id="a_edge10_Node000007_Node000003"><a xlink:title=" ">
<path fill="none" stroke="#63b8ff" d="M347.23,-87.8C390.17,-85.34 448.49,-86.83 496,-105.5 516.8,-113.67 535.86,-131 548.29,-144.23"/>
<polygon fill="#63b8ff" stroke="#63b8ff" points="545.83,-146.73 555.13,-151.82 551.03,-142.05 545.83,-146.73"/>
</a>
</g>
</g>
<!-- Node8&#45;&gt;Node3 -->
<g id="edge13_Node000008_Node000003" class="edge">
<title>Node8&#45;&gt;Node3</title>
<g id="a_edge13_Node000008_Node000003"><a xlink:title=" ">
<path fill="none" stroke="#63b8ff" d="M189.13,-40.7C262.8,-33.92 397.39,-30.9 496,-82.5 521.92,-96.06 541.95,-124.28 553.11,-143.06"/>
<polygon fill="#63b8ff" stroke="#63b8ff" points="550.14,-144.92 558.12,-151.89 556.23,-141.46 550.14,-144.92"/>
</a>
</g>
</g>
<!-- Node8&#45;&gt;Node9 -->
<g id="edge12_Node000008_Node000009" class="edge">
<title>Node8&#45;&gt;Node9</title>
<g id="a_edge12_Node000008_Node000009"><a xlink:title=" ">
<path fill="none" stroke="#63b8ff" d="M173.23,-37.91C195.43,-32.27 223.46,-25.14 245.9,-19.44"/>
<polygon fill="#63b8ff" stroke="#63b8ff" points="246.95,-22.78 255.78,-16.93 245.22,-16 246.95,-22.78"/>
</a>
</g>
</g>
</g>
</svg>
