<?xml version="1.0" encoding="UTF-8" standalone="no"?>
<!DOCTYPE svg PUBLIC "-//W3C//DTD SVG 1.1//EN"
 "http://www.w3.org/Graphics/SVG/1.1/DTD/svg11.dtd">
<!-- Generated by graphviz version 2.43.0 (0)
 -->
<!-- Title: main.cpp Pages: 1 -->
<svg width="1140pt" height="148pt"
 viewBox="0.00 0.00 1140.00 148.00" xmlns="http://www.w3.org/2000/svg" xmlns:xlink="http://www.w3.org/1999/xlink">
<g id="graph0" class="graph" transform="scale(1 1) rotate(0) translate(4 144)">
<title>main.cpp</title>
<!-- Node1 -->
<g id="Node000001" class="node">
<title>Node1</title>
<g id="a_Node000001"><a xlink:title="Main entry point for the ESP32 sensor aggregation system.">
<polygon fill="#999999" stroke="#666666" points="492.5,-140 430.5,-140 430.5,-121 492.5,-121 492.5,-140"/>
<text text-anchor="middle" x="461.5" y="-128" font-family="Helvetica,sans-Serif" font-size="10.00">main.cpp</text>
</a>
</g>
</g>
<!-- Node2 -->
<g id="Node000002" class="node">
<title>Node2</title>
<g id="a_Node000002"><a xlink:title=" ">
<polygon fill="#e0e0e0" stroke="#999999" points="107,-79.5 0,-79.5 0,-60.5 107,-60.5 107,-79.5"/>
<text text-anchor="middle" x="53.5" y="-67.5" font-family="Helvetica,sans-Serif" font-size="10.00">freertos/projdefs.h</text>
</a>
</g>
</g>
<!-- Node1&#45;&gt;Node2 -->
<g id="edge1_Node000001_Node000002" class="edge">
<title>Node1&#45;&gt;Node2</title>
<g id="a_edge1_Node000001_Node000002"><a xlink:title=" ">
<path fill="none" stroke="#63b8ff" d="M430.34,-126.49C369.53,-120.39 230.9,-105.4 115.5,-85 110,-84.03 104.25,-82.89 98.56,-81.7"/>
<polygon fill="#63b8ff" stroke="#63b8ff" points="98.98,-78.21 88.47,-79.5 97.5,-85.05 98.98,-78.21"/>
</a>
</g>
</g>
<!-- Node3 -->
<g id="Node000003" class="node">
<title>Node3</title>
<g id="a_Node000003"><a xlink:href="sensor__data_8h.html" target="_top" xlink:title="Header for parsing, validating, and logging sensor data from BLE devices.">
<polygon fill="white" stroke="#666666" points="210,-79.5 125,-79.5 125,-60.5 210,-60.5 210,-79.5"/>
<text text-anchor="middle" x="167.5" y="-67.5" font-family="Helvetica,sans-Serif" font-size="10.00">sensor_data.h</text>
</a>
</g>
</g>
<!-- Node1&#45;&gt;Node3 -->
<g id="edge2_Node000001_Node000003" class="edge">
<title>Node1&#45;&gt;Node3</title>
<g id="a_edge2_Node000001_Node000003"><a xlink:title=" ">
<path fill="none" stroke="#63b8ff" d="M430.33,-124.21C384.91,-116.38 297.95,-100.9 224.5,-85 220.07,-84.04 215.45,-82.99 210.85,-81.91"/>
<polygon fill="#63b8ff" stroke="#63b8ff" points="211.42,-78.45 200.88,-79.53 209.8,-85.26 211.42,-78.45"/>
</a>
</g>
</g>
<!-- Node4 -->
<g id="Node000004" class="node">
<title>Node4</title>
<g id="a_Node000004"><a xlink:title=" ">
<polygon fill="#e0e0e0" stroke="#999999" points="561,-19 498,-19 498,0 561,0 561,-19"/>
<text text-anchor="middle" x="529.5" y="-7" font-family="Helvetica,sans-Serif" font-size="10.00">Arduino.h</text>
</a>
</g>
</g>
<!-- Node1&#45;&gt;Node4 -->
<g id="edge18_Node000001_Node000004" class="edge">
<title>Node1&#45;&gt;Node4</title>
<g id="a_edge18_Node000001_Node000004"><a xlink:title=" ">
<path fill="none" stroke="#63b8ff" d="M430.25,-128.65C361.79,-125.71 208.49,-112.68 257.5,-55 286.53,-20.84 418.79,-12.84 487.61,-11.01"/>
<polygon fill="#63b8ff" stroke="#63b8ff" points="487.76,-14.51 497.68,-10.78 487.6,-7.51 487.76,-14.51"/>
</a>
</g>
</g>
<!-- Node5 -->
<g id="Node000005" class="node">
<title>Node5</title>
<g id="a_Node000005"><a xlink:href="sensor__packet__from__sensor_8h.html" target="_top" xlink:title="Defines the data structure for sensor packets received from Arduino sensors.">
<polygon fill="white" stroke="#666666" points="382,-85 267,-85 267,-55 382,-55 382,-85"/>
<text text-anchor="start" x="275" y="-73" font-family="Helvetica,sans-Serif" font-size="10.00">sensor_packet_from</text>
<text text-anchor="middle" x="324.5" y="-62" font-family="Helvetica,sans-Serif" font-size="10.00">_sensor.h</text>
</a>
</g>
</g>
<!-- Node1&#45;&gt;Node5 -->
<g id="edge4_Node000001_Node000005" class="edge">
<title>Node1&#45;&gt;Node5</title>
<g id="a_edge4_Node000001_Node000005"><a xlink:title=" ">
<path fill="none" stroke="#63b8ff" d="M441.58,-120.99C422.03,-112.65 391.62,-99.66 366.69,-89.02"/>
<polygon fill="#63b8ff" stroke="#63b8ff" points="368.01,-85.77 357.44,-85.06 365.26,-92.21 368.01,-85.77"/>
</a>
</g>
</g>
<!-- Node6 -->
<g id="Node000006" class="node">
<title>Node6</title>
<g id="a_Node000006"><a xlink:href="backend__task_8h.html" target="_top" xlink:title="Header for the backend FreeRTOS task processing sensor data.">
<polygon fill="white" stroke="#666666" points="522.5,-79.5 400.5,-79.5 400.5,-60.5 522.5,-60.5 522.5,-79.5"/>
<text text-anchor="middle" x="461.5" y="-67.5" font-family="Helvetica,sans-Serif" font-size="10.00">tasks/backend_task.h</text>
</a>
</g>
</g>
<!-- Node1&#45;&gt;Node6 -->
<g id="edge6_Node000001_Node000006" class="edge">
<title>Node1&#45;&gt;Node6</title>
<g id="a_edge6_Node000001_Node000006"><a xlink:title=" ">
<path fill="none" stroke="#63b8ff" d="M461.5,-120.87C461.5,-112.75 461.5,-100.31 461.5,-89.89"/>
<polygon fill="#63b8ff" stroke="#63b8ff" points="465,-89.67 461.5,-79.67 458,-89.67 465,-89.67"/>
</a>
</g>
</g>
<!-- Node7 -->
<g id="Node000007" class="node">
<title>Node7</title>
<g id="a_Node000007"><a xlink:href="broker__task_8h.html" target="_top" xlink:title="Header for the broker FreeRTOS task handling BLE sensor discovery.">
<polygon fill="white" stroke="#666666" points="652.5,-79.5 540.5,-79.5 540.5,-60.5 652.5,-60.5 652.5,-79.5"/>
<text text-anchor="middle" x="596.5" y="-67.5" font-family="Helvetica,sans-Serif" font-size="10.00">tasks/broker_task.h</text>
</a>
</g>
</g>
<!-- Node1&#45;&gt;Node7 -->
<g id="edge8_Node000001_Node000007" class="edge">
<title>Node1&#45;&gt;Node7</title>
<g id="a_edge8_Node000001_Node000007"><a xlink:title=" ">
<path fill="none" stroke="#63b8ff" d="M481.13,-120.99C503.83,-111.16 541.4,-94.88 567.47,-83.58"/>
<polygon fill="#63b8ff" stroke="#63b8ff" points="569.06,-86.7 576.85,-79.52 566.28,-80.28 569.06,-86.7"/>
</a>
</g>
</g>
<!-- Node8 -->
<g id="Node000008" class="node">
<title>Node8</title>
<g id="a_Node000008"><a xlink:href="httptransmission__task_8h.html" target="_top" xlink:title="Header for the HTTP transmission FreeRTOS task.">
<polygon fill="white" stroke="#666666" points="798.5,-85 670.5,-85 670.5,-55 798.5,-55 798.5,-85"/>
<text text-anchor="start" x="678.5" y="-73" font-family="Helvetica,sans-Serif" font-size="10.00">tasks/httptransmission</text>
<text text-anchor="middle" x="734.5" y="-62" font-family="Helvetica,sans-Serif" font-size="10.00">_task.h</text>
</a>
</g>
</g>
<!-- Node1&#45;&gt;Node8 -->
<g id="edge10_Node000001_Node000008" class="edge">
<title>Node1&#45;&gt;Node8</title>
<g id="a_edge10_Node000001_Node000008"><a xlink:title=" ">
<path fill="none" stroke="#63b8ff" d="M492.55,-122.85C533.07,-114.16 605.29,-98.69 660.32,-86.9"/>
<polygon fill="#63b8ff" stroke="#63b8ff" points="661.33,-90.26 670.38,-84.74 659.87,-83.41 661.33,-90.26"/>
</a>
</g>
</g>
<!-- Node9 -->
<g id="Node000009" class="node">
<title>Node9</title>
<g id="a_Node000009"><a xlink:href="networkstatus__task_8h.html" target="_top" xlink:title="Header for the network status FreeRTOS task.">
<polygon fill="white" stroke="#666666" points="932.5,-85 816.5,-85 816.5,-55 932.5,-55 932.5,-85"/>
<text text-anchor="start" x="824.5" y="-73" font-family="Helvetica,sans-Serif" font-size="10.00">tasks/networkstatus</text>
<text text-anchor="middle" x="874.5" y="-62" font-family="Helvetica,sans-Serif" font-size="10.00">_task.h</text>
</a>
</g>
</g>
<!-- Node1&#45;&gt;Node9 -->
<g id="edge12_Node000001_Node000009" class="edge">
<title>Node1&#45;&gt;Node9</title>
<g id="a_edge12_Node000001_Node000009"><a xlink:title=" ">
<path fill="none" stroke="#63b8ff" d="M492.64,-126.32C551.79,-120.1 684.69,-105.28 806.57,-85.07"/>
<polygon fill="#63b8ff" stroke="#63b8ff" points="807.16,-88.52 816.45,-83.42 806.01,-81.62 807.16,-88.52"/>
</a>
</g>
</g>
<!-- Node10 -->
<g id="Node000010" class="node">
<title>Node10</title>
<g id="a_Node000010"><a xlink:href="threadsafe__serial_8h.html" target="_top" xlink:title="Thread&#45;safe Serial printing utilities for Arduino with FreeRTOS.">
<polygon fill="white" stroke="#666666" points="1084.5,-79.5 950.5,-79.5 950.5,-60.5 1084.5,-60.5 1084.5,-79.5"/>
<text text-anchor="middle" x="1017.5" y="-67.5" font-family="Helvetica,sans-Serif" font-size="10.00">utils/threadsafe_serial.h</text>
</a>
</g>
</g>
<!-- Node1&#45;&gt;Node10 -->
<g id="edge14_Node000001_Node000010" class="edge">
<title>Node1&#45;&gt;Node10</title>
<g id="a_edge14_Node000001_Node000010"><a xlink:title=" ">
<path fill="none" stroke="#63b8ff" d="M492.78,-127.58C569.49,-122.65 773,-108.28 941.5,-85 949.16,-83.94 957.23,-82.65 965.13,-81.28"/>
<polygon fill="#63b8ff" stroke="#63b8ff" points="965.77,-84.72 975,-79.52 964.54,-77.83 965.77,-84.72"/>
</a>
</g>
</g>
<!-- Node3&#45;&gt;Node4 -->
<g id="edge3_Node000003_Node000004" class="edge">
<title>Node3&#45;&gt;Node4</title>
<g id="a_edge3_Node000003_Node000004"><a xlink:title=" ">
<path fill="none" stroke="#63b8ff" d="M199.93,-60.46C207.93,-58.52 216.5,-56.56 224.5,-55 317.89,-36.76 428.7,-22.39 487.67,-15.31"/>
<polygon fill="#63b8ff" stroke="#63b8ff" points="488.2,-18.77 497.72,-14.12 487.37,-11.82 488.2,-18.77"/>
</a>
</g>
</g>
<!-- Node5&#45;&gt;Node4 -->
<g id="edge5_Node000005_Node000004" class="edge">
<title>Node5&#45;&gt;Node4</title>
<g id="a_edge5_Node000005_Node000004"><a xlink:title=" ">
<path fill="none" stroke="#63b8ff" d="M373.6,-54.99C409.13,-44.85 456.54,-31.32 489.72,-21.85"/>
<polygon fill="#63b8ff" stroke="#63b8ff" points="490.87,-25.16 499.53,-19.05 488.95,-18.43 490.87,-25.16"/>
</a>
</g>
</g>
<!-- Node6&#45;&gt;Node4 -->
<g id="edge7_Node000006_Node000004" class="edge">
<title>Node6&#45;&gt;Node4</title>
<g id="a_edge7_Node000006_Node000004"><a xlink:title=" ">
<path fill="none" stroke="#63b8ff" d="M471.53,-60.37C482.08,-51.3 498.89,-36.84 511.69,-25.82"/>
<polygon fill="#63b8ff" stroke="#63b8ff" points="514.13,-28.34 519.43,-19.17 509.56,-23.04 514.13,-28.34"/>
</a>
</g>
</g>
<!-- Node7&#45;&gt;Node4 -->
<g id="edge9_Node000007_Node000004" class="edge">
<title>Node7&#45;&gt;Node4</title>
<g id="a_edge9_Node000007_Node000004"><a xlink:title=" ">
<path fill="none" stroke="#63b8ff" d="M586.61,-60.37C576.22,-51.3 559.66,-36.84 547.05,-25.82"/>
<polygon fill="#63b8ff" stroke="#63b8ff" points="549.26,-23.11 539.43,-19.17 544.66,-28.38 549.26,-23.11"/>
</a>
</g>
</g>
<!-- Node8&#45;&gt;Node4 -->
<g id="edge11_Node000008_Node000004" class="edge">
<title>Node8&#45;&gt;Node4</title>
<g id="a_edge11_Node000008_Node000004"><a xlink:title=" ">
<path fill="none" stroke="#63b8ff" d="M685.4,-54.99C649.87,-44.85 602.46,-31.32 569.28,-21.85"/>
<polygon fill="#63b8ff" stroke="#63b8ff" points="570.05,-18.43 559.47,-19.05 568.13,-25.16 570.05,-18.43"/>
</a>
</g>
</g>
<!-- Node9&#45;&gt;Node4 -->
<g id="edge13_Node000009_Node000004" class="edge">
<title>Node9&#45;&gt;Node4</title>
<g id="a_edge13_Node000009_Node000004"><a xlink:title=" ">
<path fill="none" stroke="#63b8ff" d="M816.43,-56.69C813.41,-56.11 810.42,-55.54 807.5,-55 723.96,-39.59 625.72,-24.6 571.24,-16.55"/>
<polygon fill="#63b8ff" stroke="#63b8ff" points="571.67,-13.08 561.27,-15.09 570.65,-20 571.67,-13.08"/>
</a>
</g>
</g>
<!-- Node10&#45;&gt;Node4 -->
<g id="edge15_Node000010_Node000004" class="edge">
<title>Node10&#45;&gt;Node4</title>
<g id="a_edge15_Node000010_Node000004"><a xlink:title=" ">
<path fill="none" stroke="#63b8ff" d="M974.19,-60.44C963.53,-58.5 952.12,-56.55 941.5,-55 806.81,-35.35 646.18,-20.44 571.51,-13.99"/>
<polygon fill="#63b8ff" stroke="#63b8ff" points="571.39,-10.47 561.13,-13.11 570.8,-17.45 571.39,-10.47"/>
</a>
</g>
</g>
<!-- Node11 -->
<g id="Node000011" class="node">
<title>Node11</title>
<g id="a_Node000011"><a xlink:title=" ">
<polygon fill="#e0e0e0" stroke="#999999" points="1011,-19 898,-19 898,0 1011,0 1011,-19"/>
<text text-anchor="middle" x="954.5" y="-7" font-family="Helvetica,sans-Serif" font-size="10.00">freertos/FreeRTOS.h</text>
</a>
</g>
</g>
<!-- Node10&#45;&gt;Node11 -->
<g id="edge16_Node000010_Node000011" class="edge">
<title>Node10&#45;&gt;Node11</title>
<g id="a_edge16_Node000010_Node000011"><a xlink:title=" ">
<path fill="none" stroke="#63b8ff" d="M1008.2,-60.37C998.53,-51.38 983.16,-37.11 971.34,-26.14"/>
<polygon fill="#63b8ff" stroke="#63b8ff" points="973.54,-23.41 963.83,-19.17 968.78,-28.54 973.54,-23.41"/>
</a>
</g>
</g>
<!-- Node12 -->
<g id="Node000012" class="node">
<title>Node12</title>
<g id="a_Node000012"><a xlink:title=" ">
<polygon fill="#e0e0e0" stroke="#999999" points="1132,-19 1029,-19 1029,0 1132,0 1132,-19"/>
<text text-anchor="middle" x="1080.5" y="-7" font-family="Helvetica,sans-Serif" font-size="10.00">freertos/semphr.h</text>
</a>
</g>
</g>
<!-- Node10&#45;&gt;Node12 -->
<g id="edge17_Node000010_Node000012" class="edge">
<title>Node10&#45;&gt;Node12</title>
<g id="a_edge17_Node000010_Node000012"><a xlink:title=" ">
<path fill="none" stroke="#63b8ff" d="M1026.8,-60.37C1036.47,-51.38 1051.84,-37.11 1063.66,-26.14"/>
<polygon fill="#63b8ff" stroke="#63b8ff" points="1066.22,-28.54 1071.17,-19.17 1061.46,-23.41 1066.22,-28.54"/>
</a>
</g>
</g>
</g>
</svg>
