<?xml version="1.0" encoding="UTF-8" standalone="no"?>
<!DOCTYPE svg PUBLIC "-//W3C//DTD SVG 1.1//EN"
 "http://www.w3.org/Graphics/SVG/1.1/DTD/svg11.dtd">
<!-- Generated by graphviz version 2.43.0 (0)
 -->
<!-- Title: safePrintf Pages: 1 -->
<svg width="604pt" height="330pt"
 viewBox="0.00 0.00 604.00 330.00" xmlns="http://www.w3.org/2000/svg" xmlns:xlink="http://www.w3.org/1999/xlink">
<g id="graph0" class="graph" transform="scale(1 1) rotate(0) translate(4 326)">
<title>safePrintf</title>
<!-- Node1 -->
<g id="Node000001" class="node">
<title>Node1</title>
<g id="a_Node000001"><a xlink:title="Thread&#45;safe printf&#45;like function for formatted Serial output.">
<polygon fill="#999999" stroke="#666666" points="596,-170 532,-170 532,-151 596,-151 596,-170"/>
<text text-anchor="middle" x="564" y="-158" font-family="Helvetica,sans-Serif" font-size="10.00">safePrintf</text>
</a>
</g>
</g>
<!-- Node2 -->
<g id="Node000002" class="node">
<title>Node2</title>
<g id="a_Node000002"><a xlink:href="backend__task_8cpp.html#a2de9c5894c0dd4d09498d477027b9690" target="_top" xlink:title="Backend task for processing sensor data and producing JSON output.">
<polygon fill="white" stroke="#666666" points="332,-322 253,-322 253,-303 332,-303 332,-322"/>
<text text-anchor="middle" x="292.5" y="-310" font-family="Helvetica,sans-Serif" font-size="10.00">backendTask</text>
</a>
</g>
</g>
<!-- Node1&#45;&gt;Node2 -->
<g id="edge1_Node000001_Node000002" class="edge">
<title>Node1&#45;&gt;Node2</title>
<g id="a_edge1_Node000001_Node000002"><a xlink:title=" ">
<path fill="none" stroke="#63b8ff" d="M558.84,-180.02C551.55,-208.96 533.55,-262.63 496,-288.5 447.31,-322.04 375.97,-322.04 332.25,-317.98"/>
<polygon fill="#63b8ff" stroke="#63b8ff" points="562.25,-180.78 561.12,-170.24 555.44,-179.18 562.25,-180.78"/>
</a>
</g>
</g>
<!-- Node3 -->
<g id="Node000003" class="node">
<title>Node3</title>
<g id="a_Node000003"><a xlink:href="src__broker__esp32_2src_2main_8cpp.html#a4fc01d736fe50cf5b977f755b675f11d" target="_top" xlink:title="Arduino setup function.">
<polygon fill="white" stroke="#666666" points="44,-246 0,-246 0,-227 44,-227 44,-246"/>
<text text-anchor="middle" x="22" y="-234" font-family="Helvetica,sans-Serif" font-size="10.00">setup</text>
</a>
</g>
</g>
<!-- Node1&#45;&gt;Node3 -->
<g id="edge15_Node000001_Node000003" class="edge">
<title>Node1&#45;&gt;Node3</title>
<g id="a_edge15_Node000001_Node000003"><a xlink:title=" ">
<path fill="none" stroke="#63b8ff" d="M553.87,-179.14C543.04,-199.03 523,-229.67 496,-244.5 414.94,-289.02 171.04,-271.76 80,-255.5 67.78,-253.32 54.6,-249.06 44,-245.13"/>
<polygon fill="#63b8ff" stroke="#63b8ff" points="557.06,-180.6 558.56,-170.11 550.84,-177.37 557.06,-180.6"/>
</a>
</g>
</g>
<!-- Node4 -->
<g id="Node000004" class="node">
<title>Node4</title>
<g id="a_Node000004"><a xlink:href="broker__task_8cpp.html#a09e3fef213641fea826388bc4245dd09" target="_top" xlink:title="Broker task for discovering BLE sensors and handling notifications.">
<polygon fill="white" stroke="#666666" points="175.5,-189 106.5,-189 106.5,-170 175.5,-170 175.5,-189"/>
<text text-anchor="middle" x="141" y="-177" font-family="Helvetica,sans-Serif" font-size="10.00">brokerTask</text>
</a>
</g>
</g>
<!-- Node1&#45;&gt;Node4 -->
<g id="edge3_Node000001_Node000004" class="edge">
<title>Node1&#45;&gt;Node4</title>
<g id="a_edge3_Node000001_Node000004"><a xlink:title=" ">
<path fill="none" stroke="#63b8ff" d="M555.79,-141.42C546.09,-118.79 526.43,-82.18 496,-66.5 451.36,-43.5 432.02,-55.58 383,-66.5 290.99,-87 192.58,-146.58 156.4,-169.94"/>
<polygon fill="#63b8ff" stroke="#63b8ff" points="552.56,-142.75 559.56,-150.7 559.04,-140.12 552.56,-142.75"/>
</a>
</g>
</g>
<!-- Node5 -->
<g id="Node000005" class="node">
<title>Node5</title>
<g id="a_Node000005"><a xlink:href="broker__task_8cpp.html#a0d643c20fb0f3a978c62dd11ab50e526" target="_top" xlink:title="Connects to a BLE sensor and subscribes to its notifications.">
<polygon fill="white" stroke="#666666" points="341.5,-189 243.5,-189 243.5,-170 341.5,-170 341.5,-189"/>
<text text-anchor="middle" x="292.5" y="-177" font-family="Helvetica,sans-Serif" font-size="10.00">connectToSensor</text>
</a>
</g>
</g>
<!-- Node1&#45;&gt;Node5 -->
<g id="edge5_Node000001_Node000005" class="edge">
<title>Node1&#45;&gt;Node5</title>
<g id="a_edge5_Node000001_Node000005"><a xlink:title=" ">
<path fill="none" stroke="#63b8ff" d="M521.68,-163.41C473.19,-166.83 392.89,-172.49 341.63,-176.11"/>
<polygon fill="#63b8ff" stroke="#63b8ff" points="522.09,-166.89 531.82,-162.7 521.6,-159.91 522.09,-166.89"/>
</a>
</g>
</g>
<!-- Node6 -->
<g id="Node000006" class="node">
<title>Node6</title>
<g id="a_Node000006"><a xlink:href="httptransmission__task_8cpp.html#a139cba602bd72e7d5415ff602e8cc325" target="_top" xlink:title="Task for sending processed sensor data to a backend server via HTTP.">
<polygon fill="white" stroke="#666666" points="202,-246 80,-246 80,-227 202,-227 202,-246"/>
<text text-anchor="middle" x="141" y="-234" font-family="Helvetica,sans-Serif" font-size="10.00">httpTransmissionTask</text>
</a>
</g>
</g>
<!-- Node1&#45;&gt;Node6 -->
<g id="edge7_Node000001_Node000006" class="edge">
<title>Node1&#45;&gt;Node6</title>
<g id="a_edge7_Node000001_Node000006"><a xlink:title=" ">
<path fill="none" stroke="#63b8ff" d="M548.35,-178.07C535.96,-191.53 516.91,-209.17 496,-217.5 398.81,-256.24 274.59,-251.91 202.1,-244.62"/>
<polygon fill="#63b8ff" stroke="#63b8ff" points="551.17,-180.16 555.16,-170.35 545.92,-175.53 551.17,-180.16"/>
</a>
</g>
</g>
<!-- Node7 -->
<g id="Node000007" class="node">
<title>Node7</title>
<g id="a_Node000007"><a xlink:href="sensor__data_8cpp.html#ae1a7ce80f99af2d428fd75786663899d" target="_top" xlink:title="Log a parse error for a given BLE device.">
<polygon fill="white" stroke="#666666" points="480,-132 399,-132 399,-113 480,-113 480,-132"/>
<text text-anchor="middle" x="439.5" y="-120" font-family="Helvetica,sans-Serif" font-size="10.00">logParseError</text>
</a>
</g>
</g>
<!-- Node1&#45;&gt;Node7 -->
<g id="edge9_Node000001_Node000007" class="edge">
<title>Node1&#45;&gt;Node7</title>
<g id="a_edge9_Node000001_Node000007"><a xlink:title=" ">
<path fill="none" stroke="#63b8ff" d="M522.12,-147.82C505.57,-142.69 486.78,-136.86 471.4,-132.09"/>
<polygon fill="#63b8ff" stroke="#63b8ff" points="521.5,-151.29 532.09,-150.91 523.57,-144.61 521.5,-151.29"/>
</a>
</g>
</g>
<!-- Node8 -->
<g id="Node000008" class="node">
<title>Node8</title>
<g id="a_Node000008"><a xlink:href="sensor__data_8cpp.html#a678aab7a17d164ad789f928dcfb35936" target="_top" xlink:title="Log a sensor reading to thread&#45;safe Serial.">
<polygon fill="white" stroke="#666666" points="491.5,-95 387.5,-95 387.5,-76 491.5,-76 491.5,-95"/>
<text text-anchor="middle" x="439.5" y="-83" font-family="Helvetica,sans-Serif" font-size="10.00">logSensorReading</text>
</a>
</g>
</g>
<!-- Node1&#45;&gt;Node8 -->
<g id="edge10_Node000001_Node000008" class="edge">
<title>Node1&#45;&gt;Node8</title>
<g id="a_edge10_Node000001_Node000008"><a xlink:title=" ">
<path fill="none" stroke="#63b8ff" d="M546.8,-143.5C534.02,-130.94 515.21,-114.23 496,-103.5 490.07,-100.19 483.45,-97.38 476.9,-95.04"/>
<polygon fill="#63b8ff" stroke="#63b8ff" points="544.4,-146.05 553.92,-150.69 549.37,-141.12 544.4,-146.05"/>
</a>
</g>
</g>
<!-- Node9 -->
<g id="Node000009" class="node">
<title>Node9</title>
<g id="a_Node000009"><a xlink:href="networkstatus__task_8cpp.html#a1d89a4d845e0e5ef835c78000d81daad" target="_top" xlink:title="Task for monitoring Wi&#45;Fi connection and updating network events.">
<polygon fill="white" stroke="#666666" points="347,-19 238,-19 238,0 347,0 347,-19"/>
<text text-anchor="middle" x="292.5" y="-7" font-family="Helvetica,sans-Serif" font-size="10.00">networkStatusTask</text>
</a>
</g>
</g>
<!-- Node1&#45;&gt;Node9 -->
<g id="edge11_Node000001_Node000009" class="edge">
<title>Node1&#45;&gt;Node9</title>
<g id="a_edge11_Node000001_Node000009"><a xlink:title=" ">
<path fill="none" stroke="#63b8ff" d="M558.69,-140.75C551.28,-111.94 533.19,-59.04 496,-33.5 452.51,-3.64 391.05,-0.41 347.27,-2.93"/>
<polygon fill="#63b8ff" stroke="#63b8ff" points="555.37,-141.92 561.1,-150.83 562.18,-140.29 555.37,-141.92"/>
</a>
</g>
</g>
<!-- Node10 -->
<g id="Node000010" class="node">
<title>Node10</title>
<g id="a_Node000010"><a xlink:href="broker__task_8cpp.html#a19260a63dfa833b5eca3339154a6ccbc" target="_top" xlink:title="Callback for BLE characteristic notifications.">
<polygon fill="white" stroke="#666666" points="496,-208 383,-208 383,-189 496,-189 496,-208"/>
<text text-anchor="middle" x="439.5" y="-196" font-family="Helvetica,sans-Serif" font-size="10.00">notificationCallback</text>
</a>
</g>
</g>
<!-- Node1&#45;&gt;Node10 -->
<g id="edge13_Node000001_Node000010" class="edge">
<title>Node1&#45;&gt;Node10</title>
<g id="a_edge13_Node000001_Node000010"><a xlink:title=" ">
<path fill="none" stroke="#63b8ff" d="M522.12,-173.18C505.57,-178.31 486.78,-184.14 471.4,-188.91"/>
<polygon fill="#63b8ff" stroke="#63b8ff" points="523.57,-176.39 532.09,-170.09 521.5,-169.71 523.57,-176.39"/>
</a>
</g>
</g>
<!-- Node2&#45;&gt;Node3 -->
<g id="edge2_Node000002_Node000003" class="edge">
<title>Node2&#45;&gt;Node3</title>
<g id="a_edge2_Node000002_Node000003"><a xlink:title=" ">
<path fill="none" stroke="#63b8ff" d="M242.73,-315.31C198.35,-315.97 132.02,-312.12 80,-288.5 58.78,-278.86 40.07,-258.3 30.27,-246.12"/>
<polygon fill="#63b8ff" stroke="#63b8ff" points="243.04,-318.8 252.96,-315.07 242.88,-311.8 243.04,-318.8"/>
</a>
</g>
</g>
<!-- Node4&#45;&gt;Node3 -->
<g id="edge4_Node000004_Node000003" class="edge">
<title>Node4&#45;&gt;Node3</title>
<g id="a_edge4_Node000004_Node000003"><a xlink:title=" ">
<path fill="none" stroke="#63b8ff" d="M111.19,-193.54C89.87,-203.92 61.4,-217.79 42.65,-226.93"/>
<polygon fill="#63b8ff" stroke="#63b8ff" points="112.96,-196.57 120.42,-189.04 109.89,-190.27 112.96,-196.57"/>
</a>
</g>
</g>
<!-- Node5&#45;&gt;Node4 -->
<g id="edge6_Node000005_Node000004" class="edge">
<title>Node5&#45;&gt;Node4</title>
<g id="a_edge6_Node000005_Node000004"><a xlink:title=" ">
<path fill="none" stroke="#63b8ff" d="M233.36,-179.5C213.88,-179.5 192.82,-179.5 175.83,-179.5"/>
<polygon fill="#63b8ff" stroke="#63b8ff" points="233.37,-183 243.37,-179.5 233.37,-176 233.37,-183"/>
</a>
</g>
</g>
<!-- Node6&#45;&gt;Node3 -->
<g id="edge8_Node000006_Node000003" class="edge">
<title>Node6&#45;&gt;Node3</title>
<g id="a_edge8_Node000006_Node000003"><a xlink:title=" ">
<path fill="none" stroke="#63b8ff" d="M69.68,-236.5C60.48,-236.5 51.68,-236.5 44.25,-236.5"/>
<polygon fill="#63b8ff" stroke="#63b8ff" points="69.79,-240 79.79,-236.5 69.79,-233 69.79,-240"/>
</a>
</g>
</g>
<!-- Node9&#45;&gt;Node3 -->
<g id="edge12_Node000009_Node000003" class="edge">
<title>Node9&#45;&gt;Node3</title>
<g id="a_edge12_Node000009_Node000003"><a xlink:title=" ">
<path fill="none" stroke="#63b8ff" d="M257.2,-23.29C250.67,-26.36 244,-29.81 238,-33.5 161.01,-80.84 142.91,-96.61 80,-161.5 59.28,-182.87 39.21,-211.76 29.34,-226.68"/>
<polygon fill="#63b8ff" stroke="#63b8ff" points="258.89,-26.37 266.58,-19.09 256.03,-19.98 258.89,-26.37"/>
</a>
</g>
</g>
<!-- Node10&#45;&gt;Node5 -->
<g id="edge14_Node000010_Node000005" class="edge">
<title>Node10&#45;&gt;Node5</title>
<g id="a_edge14_Node000010_Node000005"><a xlink:title=" ">
<path fill="none" stroke="#63b8ff" d="M372.87,-189.9C362.37,-188.52 351.67,-187.12 341.67,-185.81"/>
<polygon fill="#63b8ff" stroke="#63b8ff" points="372.48,-193.38 382.85,-191.21 373.39,-186.44 372.48,-193.38"/>
</a>
</g>
</g>
</g>
</svg>
