<?xml version="1.0" encoding="UTF-8" standalone="no"?>
<!DOCTYPE svg PUBLIC "-//W3C//DTD SVG 1.1//EN"
 "http://www.w3.org/Graphics/SVG/1.1/DTD/svg11.dtd">
<!-- Generated by graphviz version 2.43.0 (0)
 -->
<!-- Title: threadsafe_serial.h Pages: 1 -->
<svg width="874pt" height="82pt"
 viewBox="0.00 0.00 874.00 82.00" xmlns="http://www.w3.org/2000/svg" xmlns:xlink="http://www.w3.org/1999/xlink">
<g id="graph0" class="graph" transform="scale(1 1) rotate(0) translate(4 78)">
<title>threadsafe_serial.h</title>
<!-- Node1 -->
<g id="Node000001" class="node">
<title>Node1</title>
<g id="a_Node000001"><a xlink:title="Thread&#45;safe Serial printing utilities for Arduino with FreeRTOS.">
<polygon fill="#999999" stroke="#666666" points="484,-74 374,-74 374,-55 484,-55 484,-74"/>
<text text-anchor="middle" x="429" y="-62" font-family="Helvetica,sans-Serif" font-size="10.00">threadsafe_serial.h</text>
</a>
</g>
</g>
<!-- Node2 -->
<g id="Node000002" class="node">
<title>Node2</title>
<g id="a_Node000002"><a xlink:href="backend__task_8cpp.html" target="_top" xlink:title="Backend processing task for sensor data.">
<polygon fill="white" stroke="#666666" points="104,-19 0,-19 0,0 104,0 104,-19"/>
<text text-anchor="middle" x="52" y="-7" font-family="Helvetica,sans-Serif" font-size="10.00">backend_task.cpp</text>
</a>
</g>
</g>
<!-- Node1&#45;&gt;Node2 -->
<g id="edge1_Node000001_Node000002" class="edge">
<title>Node1&#45;&gt;Node2</title>
<g id="a_edge1_Node000001_Node000002"><a xlink:title=" ">
<path fill="none" stroke="#63b8ff" d="M363.69,-54.32C290.03,-43.96 171.73,-27.33 104.03,-17.81"/>
<polygon fill="#63b8ff" stroke="#63b8ff" points="363.39,-57.81 373.78,-55.74 364.36,-50.88 363.39,-57.81"/>
</a>
</g>
</g>
<!-- Node3 -->
<g id="Node000003" class="node">
<title>Node3</title>
<g id="a_Node000003"><a xlink:href="broker__task_8cpp.html" target="_top" xlink:title="Broker task for discovering BLE sensors and forwarding their data.">
<polygon fill="white" stroke="#666666" points="216,-19 122,-19 122,0 216,0 216,-19"/>
<text text-anchor="middle" x="169" y="-7" font-family="Helvetica,sans-Serif" font-size="10.00">broker_task.cpp</text>
</a>
</g>
</g>
<!-- Node1&#45;&gt;Node3 -->
<g id="edge2_Node000001_Node000003" class="edge">
<title>Node1&#45;&gt;Node3</title>
<g id="a_edge2_Node000001_Node000003"><a xlink:title=" ">
<path fill="none" stroke="#63b8ff" d="M377.2,-52.94C328.46,-43.01 256.39,-28.31 211.1,-19.08"/>
<polygon fill="#63b8ff" stroke="#63b8ff" points="376.73,-56.42 387.23,-54.98 378.13,-49.56 376.73,-56.42"/>
</a>
</g>
</g>
<!-- Node4 -->
<g id="Node000004" class="node">
<title>Node4</title>
<g id="a_Node000004"><a xlink:href="httptransmission__task_8cpp.html" target="_top" xlink:title="FreeRTOS task for transmitting aggregated sensor data to a backend server via HTTP/HTTPS.">
<polygon fill="white" stroke="#666666" points="380,-19 234,-19 234,0 380,0 380,-19"/>
<text text-anchor="middle" x="307" y="-7" font-family="Helvetica,sans-Serif" font-size="10.00">httptransmission_task.cpp</text>
</a>
</g>
</g>
<!-- Node1&#45;&gt;Node4 -->
<g id="edge3_Node000001_Node000004" class="edge">
<title>Node1&#45;&gt;Node4</title>
<g id="a_edge3_Node000001_Node000004"><a xlink:title=" ">
<path fill="none" stroke="#63b8ff" d="M399.99,-50.9C377.46,-41.11 346.8,-27.79 326.96,-19.17"/>
<polygon fill="#63b8ff" stroke="#63b8ff" points="398.83,-54.21 409.4,-54.98 401.62,-47.79 398.83,-54.21"/>
</a>
</g>
</g>
<!-- Node5 -->
<g id="Node000005" class="node">
<title>Node5</title>
<g id="a_Node000005"><a xlink:href="src__broker__esp32_2src_2main_8cpp.html" target="_top" xlink:title="Main entry point for the ESP32 sensor aggregation system.">
<polygon fill="white" stroke="#666666" points="460,-19 398,-19 398,0 460,0 460,-19"/>
<text text-anchor="middle" x="429" y="-7" font-family="Helvetica,sans-Serif" font-size="10.00">main.cpp</text>
</a>
</g>
</g>
<!-- Node1&#45;&gt;Node5 -->
<g id="edge4_Node000001_Node000005" class="edge">
<title>Node1&#45;&gt;Node5</title>
<g id="a_edge4_Node000001_Node000005"><a xlink:title=" ">
<path fill="none" stroke="#63b8ff" d="M429,-44.66C429,-35.93 429,-25.99 429,-19.09"/>
<polygon fill="#63b8ff" stroke="#63b8ff" points="425.5,-44.75 429,-54.75 432.5,-44.75 425.5,-44.75"/>
</a>
</g>
</g>
<!-- Node6 -->
<g id="Node000006" class="node">
<title>Node6</title>
<g id="a_Node000006"><a xlink:href="networkstatus__task_8cpp.html" target="_top" xlink:title="Task for monitoring Wi&#45;Fi connection status and managing network events.">
<polygon fill="white" stroke="#666666" points="611.5,-19 478.5,-19 478.5,0 611.5,0 611.5,-19"/>
<text text-anchor="middle" x="545" y="-7" font-family="Helvetica,sans-Serif" font-size="10.00">networkstatus_task.cpp</text>
</a>
</g>
</g>
<!-- Node1&#45;&gt;Node6 -->
<g id="edge5_Node000001_Node000006" class="edge">
<title>Node1&#45;&gt;Node6</title>
<g id="a_edge5_Node000001_Node000006"><a xlink:title=" ">
<path fill="none" stroke="#63b8ff" d="M456.87,-50.77C478.27,-40.99 507.24,-27.75 526.02,-19.17"/>
<polygon fill="#63b8ff" stroke="#63b8ff" points="455.28,-47.65 447.64,-54.98 458.19,-54.01 455.28,-47.65"/>
</a>
</g>
</g>
<!-- Node7 -->
<g id="Node000007" class="node">
<title>Node7</title>
<g id="a_Node000007"><a xlink:href="sensor__data_8cpp.html" target="_top" xlink:title="Functions for parsing, validating, and logging sensor data from BLE devices.">
<polygon fill="white" stroke="#666666" points="726,-19 630,-19 630,0 726,0 726,-19"/>
<text text-anchor="middle" x="678" y="-7" font-family="Helvetica,sans-Serif" font-size="10.00">sensor_data.cpp</text>
</a>
</g>
</g>
<!-- Node1&#45;&gt;Node7 -->
<g id="edge6_Node000001_Node000007" class="edge">
<title>Node1&#45;&gt;Node7</title>
<g id="a_edge6_Node000001_Node000007"><a xlink:title=" ">
<path fill="none" stroke="#63b8ff" d="M478.9,-52.88C525.57,-42.94 594.39,-28.3 637.68,-19.08"/>
<polygon fill="#63b8ff" stroke="#63b8ff" points="478.06,-49.48 469.01,-54.98 479.52,-56.33 478.06,-49.48"/>
</a>
</g>
</g>
<!-- Node8 -->
<g id="Node000008" class="node">
<title>Node8</title>
<g id="a_Node000008"><a xlink:href="threadsafe__serial_8cpp.html" target="_top" xlink:title="Thread&#45;safe wrapper functions for Arduino Serial printing.">
<polygon fill="white" stroke="#666666" points="866,-19 744,-19 744,0 866,0 866,-19"/>
<text text-anchor="middle" x="805" y="-7" font-family="Helvetica,sans-Serif" font-size="10.00">threadsafe_serial.cpp</text>
</a>
</g>
</g>
<!-- Node1&#45;&gt;Node8 -->
<g id="edge7_Node000001_Node000008" class="edge">
<title>Node1&#45;&gt;Node8</title>
<g id="a_edge7_Node000001_Node000008"><a xlink:title=" ">
<path fill="none" stroke="#63b8ff" d="M494.16,-54.32C564.59,-44.39 675.91,-28.7 744.48,-19.03"/>
<polygon fill="#63b8ff" stroke="#63b8ff" points="493.49,-50.87 484.08,-55.74 494.47,-57.81 493.49,-50.87"/>
</a>
</g>
</g>
</g>
</svg>
