<?xml version="1.0" encoding="UTF-8" standalone="no"?>
<!DOCTYPE svg PUBLIC "-//W3C//DTD SVG 1.1//EN"
 "http://www.w3.org/Graphics/SVG/1.1/DTD/svg11.dtd">
<!-- Generated by graphviz version 2.43.0 (0)
 -->
<!-- Title: safePrint Pages: 1 -->
<svg width="293pt" height="46pt"
 viewBox="0.00 0.00 293.00 46.00" xmlns="http://www.w3.org/2000/svg" xmlns:xlink="http://www.w3.org/1999/xlink">
<g id="graph0" class="graph" transform="scale(1 1) rotate(0) translate(4 42)">
<title>safePrint</title>
<!-- Node1 -->
<g id="Node000001" class="node">
<title>Node1</title>
<g id="a_Node000001"><a xlink:title="Thread&#45;safe version of Serial.print() for C&#45;style strings.">
<polygon fill="#999999" stroke="#666666" points="285,-19 225,-19 225,0 285,0 285,-19"/>
<text text-anchor="middle" x="255" y="-7" font-family="Helvetica,sans-Serif" font-size="10.00">safePrint</text>
</a>
</g>
</g>
<!-- Node2 -->
<g id="Node000002" class="node">
<title>Node2</title>
<g id="a_Node000002"><a xlink:href="networkstatus__task_8cpp.html#a1d89a4d845e0e5ef835c78000d81daad" target="_top" xlink:title="Task for monitoring Wi&#45;Fi connection and updating network events.">
<polygon fill="white" stroke="#666666" points="189,-38 80,-38 80,-19 189,-19 189,-38"/>
<text text-anchor="middle" x="134.5" y="-26" font-family="Helvetica,sans-Serif" font-size="10.00">networkStatusTask</text>
</a>
</g>
</g>
<!-- Node1&#45;&gt;Node2 -->
<g id="edge1_Node000001_Node000002" class="edge">
<title>Node1&#45;&gt;Node2</title>
<g id="a_edge1_Node000001_Node000002"><a xlink:title=" ">
<path fill="none" stroke="#63b8ff" d="M214.77,-15.79C206.65,-17.09 197.95,-18.49 189.4,-19.86"/>
<polygon fill="#63b8ff" stroke="#63b8ff" points="215.39,-19.24 224.71,-14.2 214.28,-12.32 215.39,-19.24"/>
</a>
</g>
</g>
<!-- Node3 -->
<g id="Node000003" class="node">
<title>Node3</title>
<g id="a_Node000003"><a xlink:href="src__broker__esp32_2src_2main_8cpp.html#a4fc01d736fe50cf5b977f755b675f11d" target="_top" xlink:title="Arduino setup function.">
<polygon fill="white" stroke="#666666" points="44,-19 0,-19 0,0 44,0 44,-19"/>
<text text-anchor="middle" x="22" y="-7" font-family="Helvetica,sans-Serif" font-size="10.00">setup</text>
</a>
</g>
</g>
<!-- Node1&#45;&gt;Node3 -->
<g id="edge3_Node000001_Node000003" class="edge">
<title>Node1&#45;&gt;Node3</title>
<g id="a_edge3_Node000001_Node000003"><a xlink:title=" ">
<path fill="none" stroke="#63b8ff" d="M214.46,-9.5C165.19,-9.5 82.76,-9.5 44.16,-9.5"/>
<polygon fill="#63b8ff" stroke="#63b8ff" points="214.74,-13 224.74,-9.5 214.74,-6 214.74,-13"/>
</a>
</g>
</g>
<!-- Node2&#45;&gt;Node3 -->
<g id="edge2_Node000002_Node000003" class="edge">
<title>Node2&#45;&gt;Node3</title>
<g id="a_edge2_Node000002_Node000003"><a xlink:title=" ">
<path fill="none" stroke="#63b8ff" d="M69.82,-17.55C60.62,-15.97 51.75,-14.44 44.24,-13.15"/>
<polygon fill="#63b8ff" stroke="#63b8ff" points="69.42,-21.03 79.87,-19.28 70.61,-14.13 69.42,-21.03"/>
</a>
</g>
</g>
</g>
</svg>
